<?xml version="1.0" encoding="UTF-8" standalone="no"?>
<svg
   version="1.1"
   viewBox="0 0 919.80249 352.92728"
   fill="none"
   stroke="none"
   stroke-linecap="square"
   stroke-miterlimit="10"
   id="svg163"
   sodipodi:docname="krgp-to-kg.svg"
   width="919.80249"
   height="352.92728"
   inkscape:version="1.2.1 (9c6d41e410, 2022-07-14, custom)"
   xmlns:inkscape="http://www.inkscape.org/namespaces/inkscape"
   xmlns:sodipodi="http://sodipodi.sourceforge.net/DTD/sodipodi-0.dtd"
   xmlns="http://www.w3.org/2000/svg"
   xmlns:svg="http://www.w3.org/2000/svg">
  <defs
     id="defs167" />
  <sodipodi:namedview
     id="namedview165"
     pagecolor="#ffffff"
     bordercolor="#666666"
     borderopacity="1.0"
     inkscape:showpageshadow="2"
     inkscape:pageopacity="0.0"
     inkscape:pagecheckerboard="0"
     inkscape:deskcolor="#d1d1d1"
     showgrid="false"
     inkscape:zoom="0.43703704"
     inkscape:cx="414.15254"
     inkscape:cy="176.18644"
     inkscape:window-width="1116"
     inkscape:window-height="1005"
     inkscape:window-x="0"
     inkscape:window-y="43"
     inkscape:window-maximized="1"
     inkscape:current-layer="g161" />
  <clipPath
     id="g15c51c0b237_0_115.0">
    <path
       d="M 0,0 H 960 V 540 H 0 Z"
       clip-rule="nonzero"
       id="path2" />
  </clipPath>
  <g
     clip-path="url(#g15c51c0b237_0_115.0)"
     id="g161"
     transform="translate(-20.09876,-93.536362)">
    <g
       id="g402"
       transform="matrix(0.89648158,0,0,0.89648158,49.688565,-23.166776)">
      <path
         fill="#eeeeee"
         d="m 20.59907,199.6736 v 0 c 0,-26.02261 21.095495,-47.11812 47.11811,-47.11812 v 0 c 12.496498,0 24.481178,4.96422 33.31754,13.80058 8.83636,8.83635 13.80057,20.82103 13.80057,33.31754 v 0 c 0,26.02261 -21.095497,47.1181 -47.11811,47.1181 v 0 c -26.022614,0 -47.11811,-21.09549 -47.11811,-47.1181 z"
         fill-rule="evenodd"
         id="path11" />
      <path
         stroke="#595959"
         stroke-width="1"
         stroke-linejoin="round"
         stroke-linecap="butt"
         d="m 20.59907,199.6736 v 0 c 0,-26.02261 21.095495,-47.11812 47.11811,-47.11812 v 0 c 12.496498,0 24.481178,4.96422 33.31754,13.80058 8.83636,8.83635 13.80057,20.82103 13.80057,33.31754 v 0 c 0,26.02261 -21.095497,47.1181 -47.11811,47.1181 v 0 c -26.022614,0 -47.11811,-21.09549 -47.11811,-47.1181 z"
         fill-rule="evenodd"
         id="path13" />
      <path
         fill="#000000"
         d="m 47.136597,202.24985 2.625,-0.25 q 0.234375,1.3125 0.953125,1.9375 0.734375,0.60937 1.96875,0.60937 1.296875,0 1.953125,-0.54687 0.671875,-0.54688 0.671875,-1.28125 0,-0.48438 -0.28125,-0.8125 -0.28125,-0.32813 -0.96875,-0.57813 -0.484375,-0.15625 -2.171875,-0.57812 -2.15625,-0.54688 -3.03125,-1.32813 -1.234375,-1.09375 -1.234375,-2.6875 0,-1.01562 0.578125,-1.90625 0.578125,-0.89062 1.65625,-1.34375 1.09375,-0.46875 2.640625,-0.46875 2.515625,0 3.78125,1.10938 1.28125,1.09375 1.34375,2.9375 l -2.703125,0.10937 q -0.171875,-1.03125 -0.75,-1.46875 -0.5625,-0.45312 -1.703125,-0.45312 -1.171875,0 -1.84375,0.46875 -0.421875,0.3125 -0.421875,0.84375 0,0.46875 0.40625,0.79687 0.5,0.4375 2.46875,0.90625 1.96875,0.45313 2.90625,0.95313 0.953125,0.5 1.484375,1.35937 0.53125,0.85938 0.53125,2.125 0,1.15625 -0.640625,2.15625 -0.640625,1 -1.8125,1.48438 -1.15625,0.48437 -2.890625,0.48437 -2.53125,0 -3.890625,-1.17187 -1.359375,-1.17188 -1.625,-3.40625 z m 17.552948,-5.32813 v 2.03125 h -1.75 v 3.90625 q 0,1.1875 0.04687,1.39063 0.04687,0.1875 0.21875,0.3125 0.1875,0.125 0.4375,0.125 0.359375,0 1.03125,-0.25 l 0.21875,2 q -0.890625,0.375 -2.015625,0.375 -0.703125,0 -1.265625,-0.23438 -0.546875,-0.23437 -0.8125,-0.59375 -0.25,-0.375 -0.34375,-1 -0.09375,-0.45312 -0.09375,-1.8125 v -4.21875 H 59.18954 v -2.03125 h 1.171875 v -1.92187 l 2.578125,-1.5 v 3.42187 z m 3.681427,2.95313 -2.328125,-0.42188 q 0.40625,-1.40625 1.359375,-2.07812 0.953125,-0.67188 2.84375,-0.67188 1.703125,0 2.546875,0.40625 0.84375,0.40625 1.171875,1.03125 0.34375,0.625 0.34375,2.28125 l -0.01563,3 q 0,1.26563 0.109375,1.875 0.125,0.60938 0.46875,1.29688 h -2.53125 q -0.109375,-0.25 -0.25,-0.75 -0.0625,-0.23438 -0.09375,-0.3125 -0.65625,0.64062 -1.40625,0.96875 -0.734375,0.3125 -1.59375,0.3125 -1.484375,0 -2.34375,-0.8125 -0.859375,-0.8125 -0.859375,-2.04688 0,-0.82812 0.390625,-1.46875 0.390625,-0.64062 1.09375,-0.96875 0.703125,-0.34375 2.03125,-0.60937 1.796875,-0.32813 2.484375,-0.625 v -0.25 q 0,-0.75 -0.359375,-1.0625 -0.359375,-0.3125 -1.375,-0.3125 -0.6875,0 -1.078125,0.28125 -0.375,0.26562 -0.609375,0.9375 z m 3.421875,2.07812 q -0.484375,0.15625 -1.5625,0.39063 -1.0625,0.21875 -1.390625,0.4375 -0.5,0.35937 -0.5,0.90625 0,0.53125 0.40625,0.9375 0.40625,0.39062 1.015625,0.39062 0.703125,0 1.328125,-0.46875 0.46875,-0.34375 0.609375,-0.84375 0.09375,-0.32812 0.09375,-1.25 z m 7.500717,4.64063 h -2.5625 v -9.67188 h 2.375 v 1.375 q 0.609375,-0.98437 1.09375,-1.28125 0.484375,-0.3125 1.109375,-0.3125 0.875,0 1.6875,0.48438 l -0.796875,2.23437 q -0.640625,-0.42187 -1.203125,-0.42187 -0.53125,0 -0.90625,0.29687 -0.375,0.29688 -0.59375,1.07813 -0.203125,0.76562 -0.203125,3.23437 z m 9.244644,-9.67188 v 2.03125 h -1.75 v 3.90625 q 0,1.1875 0.04687,1.39063 0.04687,0.1875 0.21875,0.3125 0.1875,0.125 0.4375,0.125 0.359375,0 1.03125,-0.25 l 0.21875,2 q -0.890625,0.375 -2.015625,0.375 -0.703125,0 -1.265625,-0.23438 -0.546875,-0.23437 -0.8125,-0.59375 -0.25,-0.375 -0.34375,-1 -0.09375,-0.45312 -0.09375,-1.8125 v -4.21875 h -1.171875 v -2.03125 h 1.171875 v -1.92187 l 2.578125,-1.5 v 3.42187 z"
         fill-rule="nonzero"
         id="path15" />
      <path
         fill="#eeeeee"
         d="m 313.05487,199.67418 v 0 c 0,-26.02261 21.09549,-47.11812 47.1181,-47.11812 v 0 c 12.49652,0 24.4812,4.96422 33.31754,13.80058 8.83636,8.83635 13.8006,20.82103 13.8006,33.31754 v 0 c 0,26.02261 -21.09552,47.1181 -47.11814,47.1181 v 0 c -26.02261,0 -47.1181,-21.09549 -47.1181,-47.1181 z"
         fill-rule="evenodd"
         id="path17" />
      <path
         stroke="#595959"
         stroke-width="1"
         stroke-linejoin="round"
         stroke-linecap="butt"
         d="m 313.05487,199.67418 v 0 c 0,-26.02261 21.09549,-47.11812 47.1181,-47.11812 v 0 c 12.49652,0 24.4812,4.96422 33.31754,13.80058 8.83636,8.83635 13.8006,20.82103 13.8006,33.31754 v 0 c 0,26.02261 -21.09552,47.1181 -47.11814,47.1181 v 0 c -26.02261,0 -47.1181,-21.09549 -47.1181,-47.1181 z"
         fill-rule="evenodd"
         id="path19" />
      <path
         fill="#000000"
         d="m 344.40607,201.68793 v -2.25 h 5.8125 v 5.3125 q -0.84375,0.82812 -2.45313,1.45312 -1.60937,0.625 -3.25,0.625 -2.09375,0 -3.65625,-0.875 -1.5625,-0.89062 -2.34375,-2.51562 -0.78125,-1.64063 -0.78125,-3.5625 0,-2.09375 0.875,-3.70313 0.875,-1.625 2.5625,-2.5 1.28125,-0.65625 3.20313,-0.65625 2.48437,0 3.875,1.04688 1.40625,1.03125 1.79687,2.875 l -2.67187,0.5 q -0.28125,-0.98438 -1.0625,-1.54688 -0.78125,-0.57812 -1.9375,-0.57812 -1.78125,0 -2.82813,1.125 -1.03125,1.125 -1.03125,3.32812 0,2.375 1.04688,3.5625 1.0625,1.1875 2.78125,1.1875 0.84375,0 1.6875,-0.32812 0.85937,-0.32813 1.46875,-0.8125 v -1.6875 z m 13.88641,1.82812 2.54688,0.42188 q -0.48438,1.40625 -1.54688,2.14062 -1.0625,0.73438 -2.65625,0.73438 -2.51562,0 -3.73437,-1.65625 -0.95313,-1.3125 -0.95313,-3.32813 0,-2.40625 1.25,-3.76562 1.26563,-1.35938 3.1875,-1.35938 2.15625,0 3.40625,1.42188 1.25,1.42187 1.1875,4.375 h -6.40625 q 0.0312,1.14062 0.60938,1.78125 0.59375,0.625 1.48437,0.625 0.59375,0 1,-0.32813 0.42188,-0.32812 0.625,-1.0625 z m 0.15625,-2.59375 q -0.0312,-1.10937 -0.57812,-1.6875 -0.54688,-0.57812 -1.32813,-0.57812 -0.84375,0 -1.39062,0.60937 -0.54688,0.60938 -0.53125,1.65625 z m 13.42261,5.67188 h -2.5625 v -4.9375 q 0,-1.5625 -0.17187,-2.01563 -0.15625,-0.46875 -0.53125,-0.71875 -0.35938,-0.26562 -0.875,-0.26562 -0.67188,0 -1.20313,0.375 -0.53125,0.35937 -0.73437,0.96875 -0.1875,0.59375 -0.1875,2.21875 v 4.375 h -2.54688 v -9.67188 h 2.375 v 1.42188 q 1.26563,-1.64063 3.1875,-1.64063 0.84375,0 1.54688,0.3125 0.70312,0.29688 1.0625,0.78125 0.35937,0.46875 0.5,1.07813 0.14062,0.59375 0.14062,1.70312 z m 8.19284,-3.07813 2.54688,0.42188 q -0.48438,1.40625 -1.54688,2.14062 -1.0625,0.73438 -2.65625,0.73438 -2.51562,0 -3.73437,-1.65625 -0.95313,-1.3125 -0.95313,-3.32813 0,-2.40625 1.25,-3.76562 1.26563,-1.35938 3.1875,-1.35938 2.15625,0 3.40625,1.42188 1.25,1.42187 1.1875,4.375 h -6.40625 q 0.0312,1.14062 0.60938,1.78125 0.59375,0.625 1.48437,0.625 0.59375,0 1,-0.32813 0.42188,-0.32812 0.625,-1.0625 z m 0.15625,-2.59375 q -0.0312,-1.10937 -0.57812,-1.6875 -0.54688,-0.57812 -1.32813,-0.57812 -0.84375,0 -1.39062,0.60937 -0.54688,0.60938 -0.53125,1.65625 z"
         fill-rule="nonzero"
         id="path21" />
      <path
         fill="#eeeeee"
         d="m 585.2525,200.32901 v 0 c 0,-26.02261 21.09552,-47.11812 47.11816,-47.11812 v 0 c 12.49646,0 24.48114,4.96422 33.31751,13.80058 8.83636,8.83635 13.8006,20.82103 13.8006,33.31754 v 0 c 0,26.02261 -21.09552,47.1181 -47.11811,47.1181 v 0 c -26.02264,0 -47.11816,-21.09549 -47.11816,-47.1181 z"
         fill-rule="evenodd"
         id="path23" />
      <path
         stroke="#595959"
         stroke-width="1"
         stroke-linejoin="round"
         stroke-linecap="butt"
         d="m 585.2525,200.32901 v 0 c 0,-26.02261 21.09552,-47.11812 47.11816,-47.11812 v 0 c 12.49646,0 24.48114,4.96422 33.31751,13.80058 8.83636,8.83635 13.8006,20.82103 13.8006,33.31754 v 0 c 0,26.02261 -21.09552,47.1181 -47.11811,47.1181 v 0 c -26.02264,0 -47.11816,-21.09549 -47.11816,-47.1181 z"
         fill-rule="evenodd"
         id="path25" />
      <path
         fill="#000000"
         d="m 616.6037,191.34276 v -2.25 h 5.8125 v 5.3125 q -0.84375,0.82812 -2.45313,1.45312 -1.60937,0.625 -3.25,0.625 -2.09375,0 -3.65625,-0.875 -1.5625,-0.89062 -2.34375,-2.51562 -0.78125,-1.64063 -0.78125,-3.5625 0,-2.09375 0.875,-3.70313 0.875,-1.625 2.5625,-2.5 1.28125,-0.65625 3.20313,-0.65625 2.48437,0 3.875,1.04688 1.40625,1.03125 1.79687,2.875 l -2.67187,0.5 q -0.28125,-0.98438 -1.0625,-1.54688 -0.78125,-0.57812 -1.9375,-0.57812 -1.78125,0 -2.82813,1.125 -1.03125,1.125 -1.03125,3.32812 0,2.375 1.04688,3.5625 1.0625,1.1875 2.78125,1.1875 0.84375,0 1.6875,-0.32812 0.85937,-0.32813 1.46875,-0.8125 v -1.6875 z m 13.88648,1.82812 2.54687,0.42188 q -0.48437,1.40625 -1.54687,2.14062 -1.0625,0.73438 -2.65625,0.73438 -2.51563,0 -3.73438,-1.65625 -0.95312,-1.3125 -0.95312,-3.32813 0,-2.40625 1.25,-3.76562 1.26562,-1.35938 3.1875,-1.35938 2.15625,0 3.40625,1.42188 1.25,1.42187 1.1875,4.375 h -6.40625 q 0.0312,1.14062 0.60937,1.78125 0.59375,0.625 1.48438,0.625 0.59375,0 1,-0.32813 0.42187,-0.32812 0.625,-1.0625 z m 0.15625,-2.59375 q -0.0312,-1.10937 -0.57813,-1.6875 -0.54687,-0.57812 -1.32812,-0.57812 -0.84375,0 -1.39063,0.60937 -0.54687,0.60938 -0.53125,1.65625 z m 13.42254,5.67188 h -2.5625 v -4.9375 q 0,-1.5625 -0.17187,-2.01563 -0.15625,-0.46875 -0.53125,-0.71875 -0.35938,-0.26562 -0.875,-0.26562 -0.67188,0 -1.20313,0.375 -0.53125,0.35937 -0.73437,0.96875 -0.1875,0.59375 -0.1875,2.21875 v 4.375 h -2.54688 v -9.67188 h 2.375 v 1.42188 q 1.26563,-1.64063 3.1875,-1.64063 0.84375,0 1.54688,0.3125 0.70312,0.29688 1.0625,0.78125 0.35937,0.46875 0.5,1.07813 0.14062,0.59375 0.14062,1.70312 z m 8.19287,-3.07813 2.54688,0.42188 q -0.48438,1.40625 -1.54688,2.14062 -1.0625,0.73438 -2.65625,0.73438 -2.51562,0 -3.73437,-1.65625 -0.95313,-1.3125 -0.95313,-3.32813 0,-2.40625 1.25,-3.76562 1.26563,-1.35938 3.1875,-1.35938 2.15625,0 3.40625,1.42188 1.25,1.42187 1.1875,4.375 h -6.40625 q 0.0312,1.14062 0.60938,1.78125 0.59375,0.625 1.48437,0.625 0.59375,0 1,-0.32813 0.42188,-0.32812 0.625,-1.0625 z m 0.15625,-2.59375 q -0.0312,-1.10937 -0.57812,-1.6875 -0.54688,-0.57812 -1.32813,-0.57812 -0.84375,0 -1.39062,0.60937 -0.54688,0.60938 -0.53125,1.65625 z"
         fill-rule="nonzero"
         id="path27" />
      <path
         fill="#000000"
         d="m 618.52655,213.90526 2.625,-0.25 q 0.23438,1.3125 0.95313,1.9375 0.73437,0.60937 1.96875,0.60937 1.29687,0 1.95312,-0.54687 0.67188,-0.54688 0.67188,-1.28125 0,-0.48438 -0.28125,-0.8125 -0.28125,-0.32813 -0.96875,-0.57813 -0.48438,-0.15625 -2.17188,-0.57812 -2.15625,-0.54688 -3.03125,-1.32813 -1.23437,-1.09375 -1.23437,-2.6875 0,-1.01562 0.57812,-1.90625 0.57813,-0.89062 1.65625,-1.34375 1.09375,-0.46875 2.64063,-0.46875 2.51562,0 3.78125,1.10938 1.28125,1.09375 1.34375,2.9375 l -2.70313,0.10937 q -0.17187,-1.03125 -0.75,-1.46875 -0.5625,-0.45312 -1.70312,-0.45312 -1.17188,0 -1.84375,0.46875 -0.42188,0.3125 -0.42188,0.84375 0,0.46875 0.40625,0.79687 0.5,0.4375 2.46875,0.90625 1.96875,0.45313 2.90625,0.95313 0.95313,0.5 1.48438,1.35937 0.53125,0.85938 0.53125,2.125 0,1.15625 -0.64063,2.15625 -0.64062,1 -1.8125,1.48438 -1.15625,0.48437 -2.89062,0.48437 -2.53125,0 -3.89063,-1.17187 -1.35937,-1.17188 -1.625,-3.40625 z m 18.70917,1.26562 2.54687,0.42188 q -0.48437,1.40625 -1.54687,2.14062 -1.0625,0.73438 -2.65625,0.73438 -2.51563,0 -3.73438,-1.65625 -0.95312,-1.3125 -0.95312,-3.32813 0,-2.40625 1.25,-3.76562 1.26562,-1.35938 3.1875,-1.35938 2.15625,0 3.40625,1.42188 1.25,1.42187 1.1875,4.375 h -6.40625 q 0.0312,1.14062 0.60937,1.78125 0.59375,0.625 1.48438,0.625 0.59375,0 1,-0.32813 0.42187,-0.32812 0.625,-1.0625 z m 0.15625,-2.59375 q -0.0312,-1.10937 -0.57813,-1.6875 -0.54687,-0.57812 -1.32812,-0.57812 -0.84375,0 -1.39063,0.60937 -0.54687,0.60938 -0.53125,1.65625 z m 9.06323,-4 v 2.03125 h -1.75 v 3.90625 q 0,1.1875 0.0469,1.39063 0.0469,0.1875 0.21875,0.3125 0.1875,0.125 0.4375,0.125 0.35938,0 1.03125,-0.25 l 0.21875,2 q -0.89062,0.375 -2.01562,0.375 -0.70313,0 -1.26563,-0.23438 -0.54687,-0.23437 -0.8125,-0.59375 -0.25,-0.375 -0.34375,-1 -0.0937,-0.45312 -0.0937,-1.8125 v -4.21875 h -1.17187 v -2.03125 h 1.17187 v -1.92187 l 2.57813,-1.5 v 3.42187 z"
         fill-rule="nonzero"
         id="path29" />
      <path
         fill="#eeeeee"
         d="m 845.16534,199.67418 v 0 c 0,-26.02261 21.09552,-47.11812 47.1181,-47.11812 v 0 c 12.49652,0 24.4812,4.96422 33.31757,13.80058 8.8363,8.83635 13.80054,20.82103 13.80054,33.31754 v 0 c 0,26.02261 -21.09546,47.1181 -47.11811,47.1181 v 0 c -26.02258,0 -47.1181,-21.09549 -47.1181,-47.1181 z"
         fill-rule="evenodd"
         id="path31" />
      <path
         stroke="#595959"
         stroke-width="1"
         stroke-linejoin="round"
         stroke-linecap="butt"
         d="m 845.16534,199.67418 v 0 c 0,-26.02261 21.09552,-47.11812 47.1181,-47.11812 v 0 c 12.49652,0 24.4812,4.96422 33.31757,13.80058 8.8363,8.83635 13.80054,20.82103 13.80054,33.31754 v 0 c 0,26.02261 -21.09546,47.1181 -47.11811,47.1181 v 0 c -26.02258,0 -47.1181,-21.09549 -47.1181,-47.1181 z"
         fill-rule="evenodd"
         id="path33" />
      <path
         fill="#000000"
         d="m 876.51654,190.68793 v -2.25 h 5.8125 v 5.3125 q -0.84375,0.82812 -2.45313,1.45312 -1.60937,0.625 -3.25,0.625 -2.09375,0 -3.65625,-0.875 -1.5625,-0.89062 -2.34375,-2.51562 -0.78125,-1.64063 -0.78125,-3.5625 0,-2.09375 0.875,-3.70313 0.875,-1.625 2.5625,-2.5 1.28125,-0.65625 3.20313,-0.65625 2.48437,0 3.875,1.04688 1.40625,1.03125 1.79687,2.875 l -2.67187,0.5 q -0.28125,-0.98438 -1.0625,-1.54688 -0.78125,-0.57812 -1.9375,-0.57812 -1.78125,0 -2.82813,1.125 -1.03125,1.125 -1.03125,3.32812 0,2.375 1.04688,3.5625 1.0625,1.1875 2.78125,1.1875 0.84375,0 1.6875,-0.32812 0.85937,-0.32813 1.46875,-0.8125 v -1.6875 z m 13.88641,1.82812 2.54688,0.42188 q -0.48438,1.40625 -1.54688,2.14062 -1.0625,0.73438 -2.65625,0.73438 -2.51562,0 -3.73437,-1.65625 -0.95313,-1.3125 -0.95313,-3.32813 0,-2.40625 1.25,-3.76562 1.26563,-1.35938 3.1875,-1.35938 2.15625,0 3.40625,1.42188 1.25,1.42187 1.1875,4.375 h -6.40625 q 0.0312,1.14062 0.60938,1.78125 0.59375,0.625 1.48437,0.625 0.59375,0 1,-0.32813 0.42188,-0.32812 0.625,-1.0625 z m 0.15625,-2.59375 q -0.0312,-1.10937 -0.57812,-1.6875 -0.54688,-0.57812 -1.32813,-0.57812 -0.84375,0 -1.39062,0.60937 -0.54688,0.60938 -0.53125,1.65625 z m 13.42261,5.67188 h -2.5625 v -4.9375 q 0,-1.5625 -0.17187,-2.01563 -0.15625,-0.46875 -0.53125,-0.71875 -0.35938,-0.26562 -0.875,-0.26562 -0.67188,0 -1.20313,0.375 -0.53125,0.35937 -0.73437,0.96875 -0.1875,0.59375 -0.1875,2.21875 v 4.375 h -2.54688 v -9.67188 h 2.375 v 1.42188 q 1.26563,-1.64063 3.1875,-1.64063 0.84375,0 1.54688,0.3125 0.70312,0.29688 1.0625,0.78125 0.35937,0.46875 0.5,1.07813 0.14062,0.59375 0.14062,1.70312 z m 8.19287,-3.07813 2.54688,0.42188 q -0.48438,1.40625 -1.54688,2.14062 -1.0625,0.73438 -2.65625,0.73438 -2.51562,0 -3.73437,-1.65625 -0.95313,-1.3125 -0.95313,-3.32813 0,-2.40625 1.25,-3.76562 1.26563,-1.35938 3.1875,-1.35938 2.15625,0 3.40625,1.42188 1.25,1.42187 1.1875,4.375 h -6.40625 q 0.0312,1.14062 0.60938,1.78125 0.59375,0.625 1.48437,0.625 0.59375,0 1,-0.32813 0.42188,-0.32812 0.625,-1.0625 z m 0.15625,-2.59375 q -0.0312,-1.10937 -0.57812,-1.6875 -0.54688,-0.57812 -1.32813,-0.57812 -0.84375,0 -1.39062,0.60937 -0.54688,0.60938 -0.53125,1.65625 z"
         fill-rule="nonzero"
         id="path35" />
      <path
         fill="#000000"
         d="m 878.43933,213.25043 2.625,-0.25 q 0.23438,1.3125 0.95313,1.9375 0.73437,0.60937 1.96875,0.60937 1.29687,0 1.95312,-0.54687 0.67188,-0.54688 0.67188,-1.28125 0,-0.48438 -0.28125,-0.8125 -0.28125,-0.32813 -0.96875,-0.57813 -0.48438,-0.15625 -2.17188,-0.57812 -2.15625,-0.54688 -3.03125,-1.32813 -1.23437,-1.09375 -1.23437,-2.6875 0,-1.01562 0.57812,-1.90625 0.57813,-0.89062 1.65625,-1.34375 1.09375,-0.46875 2.64063,-0.46875 2.51562,0 3.78125,1.10938 1.28125,1.09375 1.34375,2.9375 l -2.70313,0.10937 q -0.17187,-1.03125 -0.75,-1.46875 -0.5625,-0.45312 -1.70312,-0.45312 -1.17188,0 -1.84375,0.46875 -0.42188,0.3125 -0.42188,0.84375 0,0.46875 0.40625,0.79687 0.5,0.4375 2.46875,0.90625 1.96875,0.45313 2.90625,0.95313 0.95313,0.5 1.48438,1.35937 0.53125,0.85938 0.53125,2.125 0,1.15625 -0.64063,2.15625 -0.64062,1 -1.8125,1.48438 -1.15625,0.48437 -2.89062,0.48437 -2.53125,0 -3.89063,-1.17187 -1.35937,-1.17188 -1.625,-3.40625 z m 18.70923,1.26562 2.54687,0.42188 q -0.48437,1.40625 -1.54687,2.14062 -1.0625,0.73438 -2.65625,0.73438 -2.51563,0 -3.73438,-1.65625 -0.95312,-1.3125 -0.95312,-3.32813 0,-2.40625 1.25,-3.76562 1.26562,-1.35938 3.1875,-1.35938 2.15625,0 3.40625,1.42188 1.25,1.42187 1.1875,4.375 h -6.40625 q 0.0312,1.14062 0.60937,1.78125 0.59375,0.625 1.48438,0.625 0.59375,0 1,-0.32813 0.42187,-0.32812 0.625,-1.0625 z m 0.15625,-2.59375 q -0.0312,-1.10937 -0.57813,-1.6875 -0.54687,-0.57812 -1.32812,-0.57812 -0.84375,0 -1.39063,0.60937 -0.54687,0.60938 -0.53125,1.65625 z m 9.06317,-4 v 2.03125 h -1.75 v 3.90625 q 0,1.1875 0.0469,1.39063 0.0469,0.1875 0.21875,0.3125 0.1875,0.125 0.4375,0.125 0.35937,0 1.03125,-0.25 l 0.21875,2 q -0.89063,0.375 -2.01563,0.375 -0.70312,0 -1.26562,-0.23438 -0.54688,-0.23437 -0.8125,-0.59375 -0.25,-0.375 -0.34375,-1 -0.0937,-0.45312 -0.0937,-1.8125 v -4.21875 h -1.17188 v -2.03125 h 1.17188 v -1.92187 l 2.57812,-1.5 v 3.42187 z"
         fill-rule="nonzero"
         id="path37" />
      <path
         fill="#eeeeee"
         d="m 166.82594,152.55566 h 94.23622 v 94.23622 h -94.23622 z"
         fill-rule="evenodd"
         id="path39" />
      <path
         stroke="#595959"
         stroke-width="4"
         stroke-linejoin="round"
         stroke-linecap="butt"
         d="m 166.82594,152.55566 h 94.23622 v 94.23622 h -94.23622 z"
         fill-rule="evenodd"
         id="path41" />
      <path
         fill="#000000"
         d="m 192.43333,195.59377 v -13.35938 h 2.6875 v 13.35938 z m 14.04268,0 h -2.5625 v -4.9375 q 0,-1.5625 -0.17188,-2.01563 -0.15625,-0.46875 -0.53125,-0.71875 -0.35937,-0.26562 -0.875,-0.26562 -0.67187,0 -1.20312,0.375 -0.53125,0.35937 -0.73438,0.96875 -0.1875,0.59375 -0.1875,2.21875 v 4.375 h -2.54687 v -9.67188 h 2.375 v 1.42188 q 1.26562,-1.64063 3.1875,-1.64063 0.84375,0 1.54687,0.3125 0.70313,0.29688 1.0625,0.78125 0.35938,0.46875 0.5,1.07813 0.14063,0.59375 0.14063,1.70312 z m 2.52098,-9.67188 h 2.39062 v 1.42188 q 0.46875,-0.73438 1.25,-1.1875 0.79688,-0.45313 1.76563,-0.45313 1.6875,0 2.85937,1.32813 1.17188,1.3125 1.17188,3.67187 0,2.42188 -1.1875,3.76563 -1.1875,1.34375 -2.85938,1.34375 -0.8125,0 -1.46875,-0.3125 -0.64062,-0.32813 -1.35937,-1.09375 v 4.875 h -2.5625 z m 2.53125,4.67188 q 0,1.625 0.64062,2.40625 0.65625,0.78125 1.57813,0.78125 0.90625,0 1.48437,-0.71875 0.59375,-0.71875 0.59375,-2.34375 0,-1.51563 -0.60937,-2.25 -0.60938,-0.75 -1.51563,-0.75 -0.9375,0 -1.5625,0.73437 -0.60937,0.71875 -0.60937,2.14063 z m 15.30223,5 v -1.45313 q -0.53125,0.78125 -1.39062,1.23438 -0.85938,0.4375 -1.8125,0.4375 -0.96875,0 -1.75,-0.42188 -0.76563,-0.4375 -1.125,-1.20312 -0.34375,-0.78125 -0.34375,-2.14063 v -6.125 h 2.5625 v 4.4375 q 0,2.04688 0.14062,2.51563 0.14063,0.45312 0.51563,0.71875 0.375,0.26562 0.95312,0.26562 0.65625,0 1.17188,-0.35937 0.51562,-0.35938 0.70312,-0.89063 0.20313,-0.53125 0.20313,-2.60937 v -4.07813 h 2.54687 v 9.67188 z m 9.47411,-9.67188 v 2.03125 h -1.75 v 3.90625 q 0,1.1875 0.0469,1.39063 0.0469,0.1875 0.21875,0.3125 0.1875,0.125 0.4375,0.125 0.35938,0 1.03125,-0.25 l 0.21875,2 q -0.89062,0.375 -2.01562,0.375 -0.70313,0 -1.26563,-0.23438 -0.54687,-0.23437 -0.8125,-0.59375 -0.25,-0.375 -0.34375,-1 -0.0937,-0.45312 -0.0937,-1.8125 v -4.21875 h -1.17187 v -2.03125 h 1.17187 v -1.92187 l 2.57813,-1.5 v 3.42187 z"
         fill-rule="nonzero"
         id="path43" />
      <path
         fill="#000000"
         d="m 198.17712,212.68752 v -2.25 h 5.8125 v 5.3125 q -0.84375,0.82812 -2.45313,1.45312 -1.60937,0.625 -3.25,0.625 -2.09375,0 -3.65625,-0.875 -1.5625,-0.89062 -2.34375,-2.51562 -0.78125,-1.64063 -0.78125,-3.5625 0,-2.09375 0.875,-3.70313 0.875,-1.625 2.5625,-2.5 1.28125,-0.65625 3.20313,-0.65625 2.48437,0 3.875,1.04688 1.40625,1.03125 1.79687,2.875 l -2.67187,0.5 q -0.28125,-0.98438 -1.0625,-1.54688 -0.78125,-0.57812 -1.9375,-0.57812 -1.78125,0 -2.82813,1.125 -1.03125,1.125 -1.03125,3.32812 0,2.375 1.04688,3.5625 1.0625,1.1875 2.78125,1.1875 0.84375,0 1.6875,-0.32812 0.85937,-0.32813 1.46875,-0.8125 v -1.6875 z m 13.88643,1.82812 2.54687,0.42188 q -0.48437,1.40625 -1.54687,2.14062 -1.0625,0.73438 -2.65625,0.73438 -2.51563,0 -3.73438,-1.65625 -0.95312,-1.3125 -0.95312,-3.32813 0,-2.40625 1.25,-3.76562 1.26562,-1.35938 3.1875,-1.35938 2.15625,0 3.40625,1.42188 1.25,1.42187 1.1875,4.375 h -6.40625 q 0.0312,1.14062 0.60937,1.78125 0.59375,0.625 1.48438,0.625 0.59375,0 1,-0.32813 0.42187,-0.32812 0.625,-1.0625 z m 0.15625,-2.59375 q -0.0312,-1.10937 -0.57813,-1.6875 -0.54687,-0.57812 -1.32812,-0.57812 -0.84375,0 -1.39063,0.60937 -0.54687,0.60938 -0.53125,1.65625 z m 13.42259,5.67188 h -2.5625 v -4.9375 q 0,-1.5625 -0.17187,-2.01563 -0.15625,-0.46875 -0.53125,-0.71875 -0.35938,-0.26562 -0.875,-0.26562 -0.67188,0 -1.20313,0.375 -0.53125,0.35937 -0.73437,0.96875 -0.1875,0.59375 -0.1875,2.21875 v 4.375 h -2.54688 v -9.67188 h 2.375 v 1.42188 q 1.26563,-1.64063 3.1875,-1.64063 0.84375,0 1.54688,0.3125 0.70312,0.29688 1.0625,0.78125 0.35937,0.46875 0.5,1.07813 0.14062,0.59375 0.14062,1.70312 z m 8.19286,-3.07813 2.54687,0.42188 q -0.48437,1.40625 -1.54687,2.14062 -1.0625,0.73438 -2.65625,0.73438 -2.51563,0 -3.73438,-1.65625 -0.95312,-1.3125 -0.95312,-3.32813 0,-2.40625 1.25,-3.76562 1.26562,-1.35938 3.1875,-1.35938 2.15625,0 3.40625,1.42188 1.25,1.42187 1.1875,4.375 h -6.40625 q 0.0312,1.14062 0.60937,1.78125 0.59375,0.625 1.48438,0.625 0.59375,0 1,-0.32813 0.42187,-0.32812 0.625,-1.0625 z m 0.15625,-2.59375 q -0.0312,-1.10937 -0.57813,-1.6875 -0.54687,-0.57812 -1.32812,-0.57812 -0.84375,0 -1.39063,0.60937 -0.54687,0.60938 -0.53125,1.65625 z"
         fill-rule="nonzero"
         id="path45" />
      <path
         fill="#eeeeee"
         d="m 449.05658,152.55614 h 94.23621 v 94.23622 h -94.23621 z"
         fill-rule="evenodd"
         id="path47" />
      <path
         stroke="#595959"
         stroke-width="4"
         stroke-linejoin="round"
         stroke-linecap="butt"
         d="m 449.05658,152.55614 h 94.23621 v 94.23622 h -94.23621 z"
         fill-rule="evenodd"
         id="path49" />
      <path
         fill="#000000"
         d="m 465.38165,201.68799 v -2.25 h 5.8125 v 5.3125 q -0.84375,0.82813 -2.45313,1.45313 -1.60937,0.625 -3.25,0.625 -2.09375,0 -3.65625,-0.875 -1.5625,-0.89063 -2.34375,-2.51563 -0.78125,-1.64062 -0.78125,-3.5625 0,-2.09375 0.875,-3.70312 0.875,-1.625 2.5625,-2.5 1.28125,-0.65625 3.20313,-0.65625 2.48437,0 3.875,1.04687 1.40625,1.03125 1.79687,2.875 l -2.67187,0.5 q -0.28125,-0.98437 -1.0625,-1.54687 -0.78125,-0.57813 -1.9375,-0.57813 -1.78125,0 -2.82813,1.125 -1.03125,1.125 -1.03125,3.32813 0,2.375 1.04688,3.5625 1.0625,1.1875 2.78125,1.1875 0.84375,0 1.6875,-0.32813 0.85937,-0.32812 1.46875,-0.8125 v -1.6875 z m 13.88641,1.82813 2.54688,0.42187 q -0.48438,1.40625 -1.54688,2.14063 -1.0625,0.73437 -2.65625,0.73437 -2.51562,0 -3.73437,-1.65625 -0.95313,-1.3125 -0.95313,-3.32812 0,-2.40625 1.25,-3.76563 1.26563,-1.35937 3.1875,-1.35937 2.15625,0 3.40625,1.42187 1.25,1.42188 1.1875,4.375 h -6.40625 q 0.0312,1.14063 0.60938,1.78125 0.59375,0.625 1.48437,0.625 0.59375,0 1,-0.32812 0.42188,-0.32813 0.625,-1.0625 z m 0.15625,-2.59375 q -0.0312,-1.10938 -0.57812,-1.6875 -0.54688,-0.57813 -1.32813,-0.57813 -0.84375,0 -1.39062,0.60938 -0.54688,0.60937 -0.53125,1.65625 z m 13.42261,5.67187 h -2.5625 v -4.9375 q 0,-1.5625 -0.17187,-2.01562 -0.15625,-0.46875 -0.53125,-0.71875 -0.35938,-0.26563 -0.875,-0.26563 -0.67188,0 -1.20313,0.375 -0.53125,0.35938 -0.73437,0.96875 -0.1875,0.59375 -0.1875,2.21875 v 4.375 h -2.54688 v -9.67187 h 2.375 v 1.42187 q 1.26563,-1.64062 3.1875,-1.64062 0.84375,0 1.54688,0.3125 0.70312,0.29687 1.0625,0.78125 0.35937,0.46875 0.5,1.07812 0.14062,0.59375 0.14062,1.70313 z m 8.19284,-3.07812 2.54688,0.42187 q -0.48438,1.40625 -1.54688,2.14063 -1.0625,0.73437 -2.65625,0.73437 -2.51562,0 -3.73437,-1.65625 -0.95313,-1.3125 -0.95313,-3.32812 0,-2.40625 1.25,-3.76563 1.26563,-1.35937 3.1875,-1.35937 2.15625,0 3.40625,1.42187 1.25,1.42188 1.1875,4.375 h -6.40625 q 0.0312,1.14063 0.60938,1.78125 0.59375,0.625 1.48437,0.625 0.59375,0 1,-0.32812 0.42188,-0.32813 0.625,-1.0625 z m 0.15625,-2.59375 q -0.0312,-1.10938 -0.57812,-1.6875 -0.54688,-0.57813 -1.32813,-0.57813 -0.84375,0 -1.39062,0.60938 -0.54688,0.60937 -0.53125,1.65625 z m 4.64136,5.67187 v -13.35937 h 5.6875 q 2.14059,0 3.10934,0.35937 0.96875,0.35938 1.54688,1.28125 0.57812,0.92188 0.57812,2.10938 0,1.5 -0.89062,2.48437 -0.875,0.96875 -2.625,1.23438 0.875,0.5 1.4375,1.125 0.57812,0.60937 1.53125,2.15625 l 1.64062,2.60937 h -3.23437 l -1.9375,-2.90625 q -1.04685,-1.5625 -1.43747,-1.96875 -0.375,-0.40625 -0.8125,-0.54687 -0.42188,-0.15625 -1.34375,-0.15625 h -0.54688 v 5.57812 z m 2.70312,-7.70312 h 2 q 1.93747,0 2.42185,-0.15625 0.48437,-0.17188 0.75,-0.57813 0.28125,-0.40625 0.28125,-1 0,-0.67187 -0.35938,-1.07812 -0.35937,-0.42188 -1.01562,-0.53125 -0.32813,-0.0469 -1.96872,-0.0469 h -2.10938 z m 10.69169,7.70312 v -13.35937 h 2.6875 v 13.35937 z m 5.27703,0 v -13.35937 h 9.15625 v 2.26562 h -6.45312 v 3.15625 h 5.5625 v 2.26563 h -5.5625 v 5.67187 z"
         fill-rule="nonzero"
         id="path51" />
      <path
         fill="#eeeeee"
         d="m 721.45,152.55614 h 94.23627 v 94.23622 H 721.45 Z"
         fill-rule="evenodd"
         id="path53" />
      <path
         stroke="#595959"
         stroke-width="4"
         stroke-linejoin="round"
         stroke-linecap="butt"
         d="m 721.45,152.55614 h 94.23627 v 94.23622 H 721.45 Z"
         fill-rule="evenodd"
         id="path55" />
      <path
         fill="#000000"
         d="m 745.7095,206.59424 h -2.9375 l -1.17187,-3.03125 H 736.272 l -1.10937,3.03125 h -2.85938 l 5.20313,-13.35937 h 2.84375 z m -4.96875,-5.28125 -1.84375,-4.95312 -1.79687,4.95312 z m 12.73859,5.28125 v -1.45312 q -0.53125,0.78125 -1.39063,1.23437 -0.85937,0.4375 -1.8125,0.4375 -0.96875,0 -1.75,-0.42187 -0.76562,-0.4375 -1.125,-1.20313 -0.34375,-0.78125 -0.34375,-2.14062 v -6.125 h 2.5625 v 4.4375 q 0,2.04687 0.14063,2.51562 0.14062,0.45313 0.51562,0.71875 0.375,0.26563 0.95313,0.26563 0.65625,0 1.17187,-0.35938 0.51563,-0.35937 0.70313,-0.89062 0.20312,-0.53125 0.20312,-2.60938 v -4.07812 h 2.54688 v 9.67187 z m 9.47412,-9.67187 v 2.03125 h -1.75 v 3.90625 q 0,1.1875 0.0469,1.39062 0.0469,0.1875 0.21875,0.3125 0.1875,0.125 0.4375,0.125 0.35938,0 1.03125,-0.25 l 0.21875,2 q -0.89062,0.375 -2.01562,0.375 -0.70313,0 -1.26563,-0.23437 -0.54687,-0.23438 -0.8125,-0.59375 -0.25,-0.375 -0.34375,-1 -0.0937,-0.45313 -0.0937,-1.8125 v -4.21875 h -1.17187 v -2.03125 h 1.17187 v -1.92188 l 2.57813,-1.5 v 3.42188 z m 1.18139,4.70312 q 0,-1.28125 0.625,-2.46875 0.625,-1.20312 1.78125,-1.82812 1.15625,-0.625 2.57813,-0.625 2.1875,0 3.59375,1.42187 1.40625,1.42188 1.40625,3.60938 0,2.1875 -1.42188,3.64062 -1.42187,1.4375 -3.5625,1.4375 -1.32812,0 -2.54687,-0.59375 -1.20313,-0.60937 -1.82813,-1.76562 -0.625,-1.17188 -0.625,-2.82813 z m 2.625,0.125 q 0,1.45313 0.67188,2.21875 0.6875,0.75 1.6875,0.75 1,0 1.67187,-0.75 0.6875,-0.76562 0.6875,-2.23437 0,-1.42188 -0.6875,-2.1875 -0.67187,-0.76563 -1.67187,-0.76563 -1,0 -1.6875,0.76563 -0.67188,0.76562 -0.67188,2.20312 z m 9.38037,4.84375 v -13.35937 h 5.6875 q 2.14063,0 3.10938,0.35937 0.96875,0.35938 1.54687,1.28125 0.57813,0.92188 0.57813,2.10938 0,1.5 -0.89063,2.48437 -0.875,0.96875 -2.625,1.23438 0.875,0.5 1.4375,1.125 0.57813,0.60937 1.53125,2.15625 l 1.64063,2.60937 h -3.23438 l -1.9375,-2.90625 q -1.04687,-1.5625 -1.4375,-1.96875 -0.375,-0.40625 -0.8125,-0.54687 -0.42187,-0.15625 -1.34375,-0.15625 h -0.54687 v 5.57812 z m 2.70313,-7.70312 h 2 q 1.9375,0 2.42187,-0.15625 0.48438,-0.17188 0.75,-0.57813 0.28125,-0.40625 0.28125,-1 0,-0.67187 -0.35937,-1.07812 -0.35938,-0.42188 -1.01563,-0.53125 -0.32812,-0.0469 -1.96875,-0.0469 h -2.10937 z m 10.69171,7.70312 v -13.35937 h 2.6875 v 13.35937 z m 5.27704,0 v -13.35937 h 9.15625 v 2.26562 h -6.45313 v 3.15625 h 5.5625 v 2.26563 h -5.5625 v 5.67187 z"
         fill-rule="nonzero"
         id="path57" />
      <path
         fill="#000000"
         fill-opacity="0"
         d="m 114.83529,199.6736 c 13.00156,0 19.50312,0.0157 26.00312,0.0315 6.5,0.0157 12.99844,0.0315 25.99689,0.0315"
         fill-rule="evenodd"
         id="path59" />
      <path
         stroke="#595959"
         stroke-width="4"
         stroke-linejoin="round"
         stroke-linecap="butt"
         d="m 114.83529,199.6736 c 13.00156,0 19.50312,0.0157 26.00312,0.0315 3.25,0.008 6.4996,0.0157 10.56152,0.0217 l 1.72702,0.002"
         fill-rule="evenodd"
         id="path61" />
      <path
         fill="#595959"
         stroke="#595959"
         stroke-width="4"
         stroke-linecap="butt"
         d="m 153.12695,199.72856 -4.50098,4.4957 12.36171,-4.49109 -12.35643,-4.50559 z"
         fill-rule="evenodd"
         id="path63" />
      <path
         fill="#000000"
         fill-opacity="0"
         d="m 261.06216,199.67377 c 12.99817,0 19.49637,0.0157 25.99637,0.0315 6.5,0.0157 13.0018,0.0315 26.00363,0.0315"
         fill-rule="evenodd"
         id="path65" />
      <path
         stroke="#595959"
         stroke-width="4"
         stroke-linejoin="round"
         stroke-linecap="butt"
         d="m 261.06216,199.67377 c 12.99817,0 19.49637,0.0157 25.99637,0.0315 3.25,0.008 6.50043,0.0157 10.56363,0.0217 l 1.73163,0.002"
         fill-rule="evenodd"
         id="path67" />
      <path
         fill="#595959"
         stroke="#595959"
         stroke-width="4"
         stroke-linecap="butt"
         d="m 299.35382,199.72873 -4.50098,4.4957 12.3617,-4.49111 -12.35645,-4.50557 z"
         fill-rule="evenodd"
         id="path69" />
      <path
         fill="#000000"
         fill-opacity="0"
         d="m 407.2911,199.67418 c 10.44134,0 15.66223,0.0157 20.88272,0.0315 5.22046,0.0157 10.44052,0.0315 20.88104,0.0315"
         fill-rule="evenodd"
         id="path71" />
      <path
         stroke="#595959"
         stroke-width="4"
         stroke-linejoin="round"
         stroke-linecap="butt"
         d="m 407.2911,199.67418 c 10.44134,0 15.66223,0.0157 20.88269,0.0315 l 7.17273,0.0183"
         fill-rule="evenodd"
         id="path73" />
      <path
         fill="#595959"
         stroke="#595959"
         stroke-width="4"
         stroke-linecap="butt"
         d="m 435.34653,199.72398 -4.50266,4.494 12.36341,-4.48645 -12.35474,-4.51022 z"
         fill-rule="evenodd"
         id="path75" />
      <path
         fill="#000000"
         fill-opacity="0"
         d="m 543.2928,199.67424 c 10.48987,0 15.73566,0.16536 20.97974,0.33072 5.24408,0.16534 10.48651,0.3307 20.97302,0.3307"
         fill-rule="evenodd"
         id="path77" />
      <path
         stroke="#595959"
         stroke-width="4"
         stroke-linejoin="round"
         stroke-linecap="butt"
         d="m 543.2928,199.67426 c 10.48993,0 15.73566,0.16536 20.97974,0.3307 1.31103,0.0413 2.62188,0.0827 4.01471,0.12143 0.69641,0.0194 1.41326,0.0381 2.16082,0.0559 l 1.08979,0.0233"
         fill-rule="evenodd"
         id="path79" />
      <path
         fill="#595959"
         stroke="#595959"
         stroke-width="4"
         stroke-linecap="butt"
         d="m 571.53784,200.20554 -4.54083,4.45541 12.40124,-4.38079 -12.31585,-4.61547 z"
         fill-rule="evenodd"
         id="path81" />
      <path
         fill="#000000"
         fill-opacity="0"
         d="m 393.4905,232.99171 c 0,13.15034 93.77167,24.57628 187.5433,26.30067 93.77167,1.72443 187.54333,-6.2527 187.54333,-12.5054"
         fill-rule="evenodd"
         id="path83" />
      <path
         stroke="#595959"
         stroke-width="4"
         stroke-linejoin="round"
         stroke-linecap="butt"
         d="m 393.49054,232.99171 c 0,13.15034 93.77164,24.57628 187.54327,26.3007 46.88586,0.86219 93.77167,-0.70098 128.93597,-3.26129 17.58221,-1.28016 32.23401,-2.80961 42.49036,-4.40982 0.64099,-0.1 1.26483,-0.20028 1.87115,-0.30081 0.30316,-0.0503 0.60193,-0.10057 0.8963,-0.15095 l 0.3407,-0.0593"
         fill-rule="evenodd"
         id="path85" />
      <path
         fill="#595959"
         stroke="#595959"
         stroke-width="4"
         stroke-linecap="butt"
         d="m 755.56836,251.11028 -2.8501,5.68742 10.30963,-8.1665 -13.14697,-0.37102 z"
         fill-rule="evenodd"
         id="path87" />
      <path
         fill="#000000"
         fill-opacity="0"
         d="m 815.6863,199.67424 c 7.36975,0 11.0545,0.0157 14.73956,0.0315 3.685,0.0158 7.37036,0.0315 14.74073,0.0315"
         fill-rule="evenodd"
         id="path89" />
      <path
         stroke="#595959"
         stroke-width="4"
         stroke-linejoin="round"
         stroke-linecap="butt"
         d="m 815.6863,199.67426 c 7.36975,0 11.0545,0.0157 14.73956,0.0315 l 1.03241,0.004"
         fill-rule="evenodd"
         id="path91" />
      <path
         fill="#595959"
         stroke="#595959"
         stroke-width="4"
         stroke-linecap="butt"
         d="m 831.45825,199.70949 -4.50745,4.48921 12.36817,-4.4733 -12.34992,-4.52336 z"
         fill-rule="evenodd"
         id="path93" />
      <path
         fill="#eeeeee"
         d="m 222.03125,388.4209 v 0 c 0,-26.02261 21.0955,-47.1181 47.1181,-47.1181 v 0 c 12.49652,0 24.48117,4.9642 33.31754,13.80056 8.83636,8.83637 13.8006,20.82105 13.8006,33.31754 v 0 c 0,26.02261 -21.09552,47.1181 -47.11814,47.1181 v 0 c -26.0226,0 -47.1181,-21.09549 -47.1181,-47.1181 z"
         fill-rule="evenodd"
         id="path95" />
      <path
         stroke="#595959"
         stroke-width="1"
         stroke-linejoin="round"
         stroke-linecap="butt"
         d="m 222.03125,388.4209 v 0 c 0,-26.02261 21.0955,-47.1181 47.1181,-47.1181 v 0 c 12.49652,0 24.48117,4.9642 33.31754,13.80056 8.83636,8.83637 13.8006,20.82105 13.8006,33.31754 v 0 c 0,26.02261 -21.09552,47.1181 -47.11814,47.1181 v 0 c -26.0226,0 -47.1181,-21.09549 -47.1181,-47.1181 z"
         fill-rule="evenodd"
         id="path97" />
      <path
         fill="#000000"
         d="m 247.39433,379.43463 v -2.25 h 5.8125 v 5.3125 q -0.84375,0.82813 -2.45313,1.45313 -1.60937,0.625 -3.25,0.625 -2.09375,0 -3.65625,-0.875 -1.5625,-0.89063 -2.34375,-2.51563 -0.78125,-1.64062 -0.78125,-3.5625 0,-2.09375 0.875,-3.70312 0.875,-1.625 2.5625,-2.5 1.28125,-0.65625 3.20313,-0.65625 2.48437,0 3.875,1.04687 1.40625,1.03125 1.79687,2.875 l -2.67187,0.5 q -0.28125,-0.98437 -1.0625,-1.54687 -0.78125,-0.57813 -1.9375,-0.57813 -1.78125,0 -2.82813,1.125 -1.03125,1.125 -1.03125,3.32813 0,2.375 1.04688,3.5625 1.0625,1.1875 2.78125,1.1875 0.84375,0 1.6875,-0.32813 0.85937,-0.32812 1.46875,-0.8125 v -1.6875 z m 13.88643,1.82813 2.54687,0.42187 q -0.48437,1.40625 -1.54687,2.14063 -1.0625,0.73437 -2.65625,0.73437 -2.51563,0 -3.73438,-1.65625 -0.95312,-1.3125 -0.95312,-3.32812 0,-2.40625 1.25,-3.76563 1.26562,-1.35937 3.1875,-1.35937 2.15625,0 3.40625,1.42187 1.25,1.42188 1.1875,4.375 h -6.40625 q 0.0312,1.14063 0.60937,1.78125 0.59375,0.625 1.48438,0.625 0.59375,0 1,-0.32812 0.42187,-0.32813 0.625,-1.0625 z m 0.15625,-2.59375 q -0.0312,-1.10938 -0.57813,-1.6875 -0.54687,-0.57813 -1.32812,-0.57813 -0.84375,0 -1.39063,0.60938 -0.54687,0.60937 -0.53125,1.65625 z m 13.42258,5.67187 h -2.5625 v -4.9375 q 0,-1.5625 -0.17188,-2.01562 -0.15625,-0.46875 -0.53125,-0.71875 -0.35937,-0.26563 -0.875,-0.26563 -0.67187,0 -1.20312,0.375 -0.53125,0.35938 -0.73438,0.96875 -0.1875,0.59375 -0.1875,2.21875 v 4.375 h -2.54687 v -9.67187 h 2.375 v 1.42187 q 1.26562,-1.64062 3.1875,-1.64062 0.84375,0 1.54687,0.3125 0.70313,0.29687 1.0625,0.78125 0.35938,0.46875 0.5,1.07812 0.14063,0.59375 0.14063,1.70313 z m 8.19287,-3.07812 2.54687,0.42187 q -0.48437,1.40625 -1.54687,2.14063 -1.0625,0.73437 -2.65625,0.73437 -2.51563,0 -3.73438,-1.65625 -0.95312,-1.3125 -0.95312,-3.32812 0,-2.40625 1.25,-3.76563 1.26562,-1.35937 3.1875,-1.35937 2.15625,0 3.40625,1.42187 1.25,1.42188 1.1875,4.375 h -6.40625 q 0.0312,1.14063 0.60937,1.78125 0.59375,0.625 1.48438,0.625 0.59375,0 1,-0.32812 0.42187,-0.32813 0.625,-1.0625 z m 0.15625,-2.59375 q -0.0312,-1.10938 -0.57813,-1.6875 -0.54687,-0.57813 -1.32812,-0.57813 -0.84375,0 -1.39063,0.60938 -0.54687,0.60937 -0.53125,1.65625 z m 5.11007,-1.4375 v -2.5625 h 2.5625 v 2.5625 z m 0,7.10937 v -2.5625 h 2.5625 v 2.5625 z"
         fill-rule="nonzero"
         id="path99" />
      <path
         fill="#000000"
         d="m 240.50371,401.99713 2.625,-0.25 q 0.23437,1.3125 0.95312,1.9375 0.73438,0.60938 1.96875,0.60938 1.29688,0 1.95313,-0.54688 0.67187,-0.54687 0.67187,-1.28125 0,-0.48437 -0.28125,-0.8125 -0.28125,-0.32812 -0.96875,-0.57812 -0.48437,-0.15625 -2.17187,-0.57813 -2.15625,-0.54687 -3.03125,-1.32812 -1.23438,-1.09375 -1.23438,-2.6875 0,-1.01563 0.57813,-1.90625 0.57812,-0.89063 1.65625,-1.34375 1.09375,-0.46875 2.64062,-0.46875 2.51563,0 3.78125,1.10937 1.28125,1.09375 1.34375,2.9375 l -2.70312,0.10938 q -0.17188,-1.03125 -0.75,-1.46875 -0.5625,-0.45313 -1.70313,-0.45313 -1.17187,0 -1.84375,0.46875 -0.42187,0.3125 -0.42187,0.84375 0,0.46875 0.40625,0.79688 0.5,0.4375 2.46875,0.90625 1.96875,0.45312 2.90625,0.95312 0.95312,0.5 1.48437,1.35938 0.53125,0.85937 0.53125,2.125 0,1.15625 -0.64062,2.15625 -0.64063,1 -1.8125,1.48437 -1.15625,0.48438 -2.89063,0.48438 -2.53125,0 -3.89062,-1.17188 -1.35938,-1.17187 -1.625,-3.40625 z m 16.13106,4.34375 v -11.09375 h -3.95311 v -2.26562 h 10.60936 v 2.26562 h -3.95313 v 11.09375 z m 19.05743,0 h -2.9375 l -1.17187,-3.03125 h -5.32813 l -1.10937,3.03125 h -2.85938 l 5.20313,-13.35937 h 2.84375 z m -4.96875,-5.28125 -1.84375,-4.95312 -1.79687,4.95312 z m 8.0094,5.28125 v -11.09375 h -3.95312 v -2.26562 h 10.60937 v 2.26562 h -3.95312 v 11.09375 z"
         fill-rule="nonzero"
         id="path101" />
      <path
         fill="#000000"
         d="m 286.4726,402.794 2.46875,-0.29688 q 0.125,0.95313 0.64062,1.45313 0.53125,0.5 1.26563,0.5 0.78125,0 1.32812,-0.59375 0.54688,-0.60938 0.54688,-1.64063 0,-0.95312 -0.53125,-1.51562 -0.51563,-0.57813 -1.25,-0.57813 -0.5,0 -1.1875,0.20313 l 0.28125,-2.09375 q 1.04687,0.0312 1.59375,-0.4375 0.54687,-0.48438 0.54687,-1.28125 0,-0.67188 -0.40625,-1.07813 -0.39062,-0.40625 -1.0625,-0.40625 -0.65625,0 -1.125,0.46875 -0.45312,0.45313 -0.5625,1.32813 L 286.6601,396.419 q 0.25,-1.20313 0.73437,-1.92188 0.5,-0.73437 1.39063,-1.14062 0.89062,-0.42188 2,-0.42188 1.875,0 3.01562,1.20313 0.9375,0.98437 0.9375,2.21875 0,1.76562 -1.92187,2.8125 1.15625,0.23437 1.84375,1.09375 0.6875,0.85937 0.6875,2.0625 0,1.76562 -1.29688,3.01562 -1.28125,1.23438 -3.1875,1.23438 -1.8125,0 -3.01562,-1.04688 -1.1875,-1.04687 -1.375,-2.73437 z"
         fill-rule="nonzero"
         id="path103" />
      <path
         fill="#000000"
         fill-opacity="0"
         d="M 326.85544,232.99171 269.15466,341.30667"
         fill-rule="evenodd"
         id="path105" />
      <path
         stroke="#595959"
         stroke-width="3"
         stroke-linejoin="round"
         stroke-linecap="butt"
         d="m 326.85547,232.99171 -49.23788,92.42851"
         fill-rule="evenodd"
         id="path107" />
      <path
         fill="#595959"
         stroke="#595959"
         stroke-width="3"
         stroke-linecap="butt"
         d="m 273.24423,323.09048 -2.02756,14.34546 10.77426,-9.68597 z"
         fill-rule="evenodd"
         id="path109" />
      <path
         fill="#eeeeee"
         d="m 507.5995,388.4209 v 0 c 0,-26.02261 21.09552,-47.1181 47.1181,-47.1181 v 0 c 12.49652,0 24.4812,4.9642 33.31757,13.80056 8.83636,8.83637 13.80054,20.82105 13.80054,33.31754 v 0 c 0,26.02261 -21.09546,47.1181 -47.11811,47.1181 v 0 c -26.02258,0 -47.1181,-21.09549 -47.1181,-47.1181 z"
         fill-rule="evenodd"
         id="path111" />
      <path
         stroke="#595959"
         stroke-width="1"
         stroke-linejoin="round"
         stroke-linecap="butt"
         d="m 507.5995,388.4209 v 0 c 0,-26.02261 21.09552,-47.1181 47.1181,-47.1181 v 0 c 12.49652,0 24.4812,4.9642 33.31757,13.80056 8.83636,8.83637 13.80054,20.82105 13.80054,33.31754 v 0 c 0,26.02261 -21.09546,47.1181 -47.11811,47.1181 v 0 c -26.02258,0 -47.1181,-21.09549 -47.1181,-47.1181 z"
         fill-rule="evenodd"
         id="path113" />
      <path
         fill="#eeeeee"
         d="m 523.0365,403.8566 v 0 c 0,-26.02261 21.09552,-47.11813 47.1181,-47.11813 v 0 c 12.49652,0 24.4812,4.96423 33.31757,13.80059 8.83636,8.83637 13.80054,20.82102 13.80054,33.31754 v 0 c 0,26.02261 -21.09546,47.1181 -47.11811,47.1181 v 0 c -26.02258,0 -47.1181,-21.09549 -47.1181,-47.1181 z"
         fill-rule="evenodd"
         id="path115" />
      <path
         stroke="#595959"
         stroke-width="1"
         stroke-linejoin="round"
         stroke-linecap="butt"
         d="m 523.0365,403.8566 v 0 c 0,-26.02261 21.09552,-47.11813 47.1181,-47.11813 v 0 c 12.49652,0 24.4812,4.96423 33.31757,13.80059 8.83636,8.83637 13.80054,20.82102 13.80054,33.31754 v 0 c 0,26.02261 -21.09546,47.1181 -47.11811,47.1181 v 0 c -26.02258,0 -47.1181,-21.09549 -47.1181,-47.1181 z"
         fill-rule="evenodd"
         id="path117" />
      <path
         fill="#eeeeee"
         d="m 540.0785,417.75027 v 0 c 0,-26.02261 21.09552,-47.1181 47.1181,-47.1181 v 0 c 12.49652,0 24.4812,4.96423 33.31757,13.80056 8.83636,8.83637 13.80054,20.82105 13.80054,33.31754 v 0 c 0,26.02264 -21.09546,47.11813 -47.11811,47.11813 v 0 c -26.02258,0 -47.1181,-21.09549 -47.1181,-47.11813 z"
         fill-rule="evenodd"
         id="path119" />
      <path
         stroke="#595959"
         stroke-width="1"
         stroke-linejoin="round"
         stroke-linecap="butt"
         d="m 540.0785,417.75027 v 0 c 0,-26.02261 21.09552,-47.1181 47.1181,-47.1181 v 0 c 12.49652,0 24.4812,4.96423 33.31757,13.80056 8.83636,8.83637 13.80054,20.82105 13.80054,33.31754 v 0 c 0,26.02264 -21.09546,47.11813 -47.11811,47.11813 v 0 c -26.02258,0 -47.1181,-21.09549 -47.1181,-47.11813 z"
         fill-rule="evenodd"
         id="path121" />
      <path
         fill="#000000"
         d="m 565.4416,408.76404 v -2.25 h 5.8125 v 5.3125 q -0.84375,0.82813 -2.45313,1.45313 -1.60937,0.625 -3.25,0.625 -2.09375,0 -3.65625,-0.875 -1.5625,-0.89063 -2.34375,-2.51563 -0.78125,-1.64062 -0.78125,-3.5625 0,-2.09375 0.875,-3.70312 0.875,-1.625 2.5625,-2.5 1.28125,-0.65625 3.20313,-0.65625 2.48437,0 3.875,1.04687 1.40625,1.03125 1.79687,2.875 l -2.67187,0.5 q -0.28125,-0.98437 -1.0625,-1.54687 -0.78125,-0.57813 -1.9375,-0.57813 -1.78125,0 -2.82813,1.125 -1.03125,1.125 -1.03125,3.32813 0,2.375 1.04688,3.5625 1.0625,1.1875 2.78125,1.1875 0.84375,0 1.6875,-0.32813 0.85937,-0.32812 1.46875,-0.8125 v -1.6875 z m 13.88641,1.82813 2.54688,0.42187 q -0.48438,1.40625 -1.54688,2.14063 -1.0625,0.73437 -2.65625,0.73437 -2.51562,0 -3.73437,-1.65625 -0.95313,-1.3125 -0.95313,-3.32812 0,-2.40625 1.25,-3.76563 1.26563,-1.35937 3.1875,-1.35937 2.15625,0 3.40625,1.42187 1.25,1.42188 1.1875,4.375 h -6.40625 q 0.0312,1.14063 0.60938,1.78125 0.59375,0.625 1.48437,0.625 0.59375,0 1,-0.32812 0.42188,-0.32813 0.625,-1.0625 z m 0.15625,-2.59375 q -0.0312,-1.10938 -0.57812,-1.6875 -0.54688,-0.57813 -1.32813,-0.57813 -0.84375,0 -1.39062,0.60938 -0.54688,0.60937 -0.53125,1.65625 z m 13.42261,5.67187 h -2.5625 v -4.9375 q 0,-1.5625 -0.17187,-2.01562 -0.15625,-0.46875 -0.53125,-0.71875 -0.35938,-0.26563 -0.875,-0.26563 -0.67188,0 -1.20313,0.375 -0.53125,0.35938 -0.73437,0.96875 -0.1875,0.59375 -0.1875,2.21875 v 4.375 h -2.54688 v -9.67187 h 2.375 v 1.42187 q 1.26563,-1.64062 3.1875,-1.64062 0.84375,0 1.54688,0.3125 0.70312,0.29687 1.0625,0.78125 0.35937,0.46875 0.5,1.07812 0.14062,0.59375 0.14062,1.70313 z m 8.19281,-3.07812 2.54688,0.42187 q -0.48438,1.40625 -1.54688,2.14063 -1.0625,0.73437 -2.65625,0.73437 -2.51562,0 -3.73437,-1.65625 -0.95313,-1.3125 -0.95313,-3.32812 0,-2.40625 1.25,-3.76563 1.26563,-1.35937 3.1875,-1.35937 2.15625,0 3.40625,1.42187 1.25,1.42188 1.1875,4.375 h -6.40625 q 0.0312,1.14063 0.60938,1.78125 0.59375,0.625 1.48437,0.625 0.59375,0 1,-0.32812 0.42188,-0.32813 0.625,-1.0625 z m 0.15625,-2.59375 q -0.0312,-1.10938 -0.57812,-1.6875 -0.54688,-0.57813 -1.32813,-0.57813 -0.84375,0 -1.39062,0.60938 -0.54688,0.60937 -0.53125,1.65625 z m 5.11011,-1.4375 v -2.5625 h 2.5625 v 2.5625 z m 0,7.10937 v -2.5625 h 2.5625 v 2.5625 z"
         fill-rule="nonzero"
         id="path123" />
      <path
         fill="#000000"
         d="m 558.55096,431.32654 2.625,-0.25 q 0.23438,1.3125 0.95313,1.9375 0.73437,0.60938 1.96875,0.60938 1.29687,0 1.95312,-0.54688 0.67188,-0.54687 0.67188,-1.28125 0,-0.48437 -0.28125,-0.8125 -0.28125,-0.32812 -0.96875,-0.57812 -0.48438,-0.15625 -2.17188,-0.57813 -2.15625,-0.54687 -3.03125,-1.32812 -1.23437,-1.09375 -1.23437,-2.6875 0,-1.01563 0.57812,-1.90625 0.57813,-0.89063 1.65625,-1.34375 1.09375,-0.46875 2.64063,-0.46875 2.51562,0 3.78125,1.10937 1.28125,1.09375 1.34375,2.9375 l -2.70313,0.10938 q -0.17187,-1.03125 -0.75,-1.46875 -0.5625,-0.45313 -1.70312,-0.45313 -1.17188,0 -1.84375,0.46875 -0.42188,0.3125 -0.42188,0.84375 0,0.46875 0.40625,0.79688 0.5,0.4375 2.46875,0.90625 1.96875,0.45312 2.90625,0.95312 0.95313,0.5 1.48438,1.35938 0.53125,0.85937 0.53125,2.125 0,1.15625 -0.64063,2.15625 -0.64062,1 -1.8125,1.48437 -1.15625,0.48438 -2.89062,0.48438 -2.53125,0 -3.89063,-1.17188 -1.35937,-1.17187 -1.625,-3.40625 z m 16.13104,4.34375 v -11.09375 h -3.95312 v -2.26562 h 10.60937 v 2.26562 h -3.95312 v 11.09375 z m 19.05744,0 h -2.9375 l -1.17188,-3.03125 h -5.32812 l -1.10938,3.03125 h -2.85937 l 5.20312,-13.35937 h 2.84375 z m -4.96875,-5.28125 -1.84375,-4.95312 -1.79688,4.95312 z m 8.0094,5.28125 v -11.09375 h -3.95313 v -2.26562 h 10.60938 v 2.26562 h -3.95313 v 11.09375 z"
         fill-rule="nonzero"
         id="path125" />
      <path
         fill="#000000"
         d="m 613.2542,433.2953 v 2.375 h -8.96875 q 0.14062,-1.34375 0.85937,-2.54688 0.73438,-1.21875 2.89063,-3.20312 1.73437,-1.625 2.125,-2.1875 0.53125,-0.79688 0.53125,-1.57813 0,-0.84375 -0.46875,-1.29687 -0.45313,-0.46875 -1.26563,-0.46875 -0.79687,0 -1.28125,0.48437 -0.46875,0.46875 -0.54687,1.59375 l -2.54688,-0.25 q 0.23438,-2.10937 1.42188,-3.03125 1.20312,-0.92187 3.01562,-0.92187 1.96875,0 3.09375,1.0625 1.14063,1.0625 1.14063,2.65625 0,0.89062 -0.32813,1.71875 -0.3125,0.8125 -1.01562,1.70312 -0.46875,0.59375 -1.6875,1.70313 -1.20313,1.10937 -1.53125,1.48437 -0.3125,0.35938 -0.51563,0.70313 z"
         fill-rule="nonzero"
         id="path127" />
      <path
         fill="#000000"
         fill-opacity="0"
         d="m 632.37067,247.44711 -44.3465,107.65353"
         fill-rule="evenodd"
         id="path129" />
      <path
         stroke="#595959"
         stroke-width="3"
         stroke-linejoin="round"
         stroke-linecap="butt"
         d="m 632.37067,247.44711 -37.49054,91.01034"
         fill-rule="evenodd"
         id="path131" />
      <path
         fill="#595959"
         stroke="#595959"
         stroke-width="3"
         stroke-linecap="butt"
         d="m 590.29846,336.57007 -0.60382,14.47546 9.76721,-10.70071 z"
         fill-rule="evenodd"
         id="path133" />
      <path
         fill="#000000"
         fill-opacity="0"
         d="M 892.28345,246.79228 620.50391,384.43008"
         fill-rule="evenodd"
         id="path135" />
      <path
         stroke="#595959"
         stroke-width="3"
         stroke-linejoin="round"
         stroke-linecap="butt"
         d="M 892.28345,246.79228 636.56208,376.2977"
         fill-rule="evenodd"
         id="path137" />
      <path
         fill="#595959"
         stroke="#595959"
         stroke-width="3"
         stroke-linecap="butt"
         d="m 634.32336,371.87708 -9.90686,10.57153 14.38434,-1.73025 z"
         fill-rule="evenodd"
         id="path139" />
      <path
         fill="#000000"
         fill-opacity="0"
         d="m 302.4669,421.73843 c 0,34.06491 62.8504,64.46448 125.70081,68.12985 62.85037,3.66534 125.70077,-19.4035 125.70077,-38.80704"
         fill-rule="evenodd"
         id="path141" />
      <path
         stroke="#595959"
         stroke-width="2"
         stroke-linejoin="round"
         stroke-linecap="butt"
         d="m 302.46692,421.73843 c 0,34.06491 62.85037,64.46448 125.70077,68.12985 31.42521,1.83267 62.85041,-3.01822 86.41928,-10.75269 11.78449,-3.86724 21.60486,-8.45538 28.47907,-13.28945 3.43713,-2.41703 6.13776,-4.89554 7.97906,-7.37613 0.11512,-0.15503 0.22681,-0.31009 0.33515,-0.46512 0.0542,-0.0775 0.10754,-0.15506 0.15997,-0.23255 l 0.13208,-0.1983"
         fill-rule="evenodd"
         id="path143" />
      <path
         fill="#595959"
         stroke="#595959"
         stroke-width="2"
         stroke-linecap="butt"
         d="m 551.6723,457.55408 1.40991,2.85126 -0.15057,-6.5744 -4.1106,5.13305 z"
         fill-rule="evenodd"
         id="path145" />
      <path
         fill="#000000"
         fill-opacity="0"
         d="m 302.4669,355.10336 c 0,-26.30057 54.7323,-52.60904 109.46457,-52.60117 54.7323,0.008 109.4646,26.3321 109.4646,52.66416"
         fill-rule="evenodd"
         id="path147" />
      <path
         stroke="#595959"
         stroke-width="3"
         stroke-linejoin="round"
         stroke-linecap="butt"
         d="m 302.46692,355.10333 c 0,-26.30054 54.73227,-52.60898 109.46454,-52.60111 27.36615,0.004 54.7323,6.58692 75.2569,16.46049 10.2623,4.93676 18.81424,10.69616 24.80057,16.86712 1.49661,1.54276 2.83285,3.11121 3.99539,4.69898 0.58124,0.79388 1.11908,1.59259 1.61182,2.39529 0.24633,0.40137 0.48144,0.80374 0.70507,1.207 0.11176,0.20166 0.22071,0.4035 0.32673,0.60562 0.053,0.10105 0.10534,0.20212 0.15692,0.30326 l 0.081,0.16131"
         fill-rule="evenodd"
         id="path149" />
      <path
         fill="#595959"
         stroke="#595959"
         stroke-width="3"
         stroke-linecap="butt"
         d="m 518.86584,345.20126 -4.10022,-2.43973 5.55109,8.15396 0.98889,-9.81448 z"
         fill-rule="evenodd"
         id="path151" />
      <path
         fill="#ffffff"
         d="m 372.53412,310.86942 h 94.23624 v 38.61417 h -94.23624 z"
         fill-rule="evenodd"
         id="path153" />
      <path
         fill="#000000"
         d="m 389.49432,331.86212 v -1.57813 h 5.65625 v 4.95313 q -1.29687,1.04687 -2.6875,1.57812 -1.375,0.51563 -2.84375,0.51563 -1.96875,0 -3.57812,-0.84375 -1.60938,-0.84375 -2.42188,-2.4375 -0.8125,-1.59375 -0.8125,-3.5625 0,-1.95313 0.8125,-3.64063 0.8125,-1.6875 2.34375,-2.5 1.53125,-0.82812 3.51563,-0.82812 1.45312,0 2.625,0.46875 1.17187,0.46875 1.82812,1.3125 0.67188,0.82812 1.01563,2.17187 l -1.59375,0.4375 q -0.29688,-1.01562 -0.75,-1.59375 -0.4375,-0.59375 -1.26563,-0.9375 -0.82812,-0.34375 -1.84375,-0.34375 -1.20312,0 -2.09375,0.375 -0.89062,0.35938 -1.4375,0.96875 -0.53125,0.59375 -0.82812,1.3125 -0.51563,1.23438 -0.51563,2.6875 0,1.78125 0.60938,2.98438 0.625,1.20312 1.79687,1.79687 1.17188,0.57813 2.5,0.57813 1.14063,0 2.23438,-0.4375 1.09375,-0.45313 1.65625,-0.95313 v -2.48437 z m 14.68332,2.125 1.6875,0.20312 q -0.40625,1.48438 -1.48438,2.3125 -1.07812,0.8125 -2.76562,0.8125 -2.125,0 -3.375,-1.29687 -1.23438,-1.3125 -1.23438,-3.67188 0,-2.45312 1.25,-3.79687 1.26563,-1.34375 3.26563,-1.34375 1.9375,0 3.15625,1.32812 1.23437,1.3125 1.23437,3.70313 0,0.15625 0,0.4375 h -7.21875 q 0.0937,1.59375 0.90625,2.45312 0.8125,0.84375 2.01563,0.84375 0.90625,0 1.54687,-0.46875 0.64063,-0.48437 1.01563,-1.51562 z m -5.39063,-2.65625 h 5.40625 q -0.10937,-1.21875 -0.625,-1.82813 -0.78125,-0.95312 -2.03125,-0.95312 -1.125,0 -1.90625,0.76562 -0.76562,0.75 -0.84375,2.01563 z m 9.14133,5.76562 v -9.67187 h 1.46875 v 1.375 q 1.0625,-1.59375 3.07813,-1.59375 0.875,0 1.60937,0.3125 0.73438,0.3125 1.09375,0.82812 0.375,0.5 0.51563,1.20313 0.0937,0.45312 0.0937,1.59375 v 5.95312 h -1.64063 v -5.89062 q 0,-1 -0.20312,-1.48438 -0.1875,-0.5 -0.67188,-0.79687 -0.48437,-0.29688 -1.14062,-0.29688 -1.04688,0 -1.8125,0.67188 -0.75,0.65625 -0.75,2.51562 v 5.28125 z m 17.00073,-3.10937 1.6875,0.20312 q -0.40625,1.48438 -1.48437,2.3125 -1.07813,0.8125 -2.76563,0.8125 -2.125,0 -3.375,-1.29687 -1.23437,-1.3125 -1.23437,-3.67188 0,-2.45312 1.25,-3.79687 1.26562,-1.34375 3.26562,-1.34375 1.9375,0 3.15625,1.32812 1.23438,1.3125 1.23438,3.70313 0,0.15625 0,0.4375 h -7.21875 q 0.0937,1.59375 0.90625,2.45312 0.8125,0.84375 2.01562,0.84375 0.90625,0 1.54688,-0.46875 0.64062,-0.48437 1.01562,-1.51562 z m -5.39062,-2.65625 h 5.40625 q -0.10938,-1.21875 -0.625,-1.82813 -0.78125,-0.95312 -2.03125,-0.95312 -1.125,0 -1.90625,0.76562 -0.76563,0.75 -0.84375,2.01563 z m 9.3757,5.76562 v -13.35937 h 5.92187 q 1.78125,0 2.70313,0.35937 0.9375,0.35938 1.48437,1.28125 0.5625,0.90625 0.5625,2.01563 0,1.40625 -0.92187,2.39062 -0.92188,0.96875 -2.84375,1.23438 0.70312,0.34375 1.07812,0.67187 0.76563,0.70313 1.45313,1.76563 l 2.32812,3.64062 h -2.21875 l -1.76562,-2.78125 q -0.78125,-1.20312 -1.28125,-1.82812 -0.5,-0.64063 -0.90625,-0.89063 -0.39063,-0.26562 -0.79688,-0.35937 -0.29687,-0.0781 -0.98437,-0.0781 h -2.04688 v 5.9375 z m 1.76562,-7.45312 h 3.79688 q 1.21875,0 1.89062,-0.25 0.6875,-0.26563 1.04688,-0.8125 0.35937,-0.54688 0.35937,-1.1875 0,-0.95313 -0.6875,-1.5625 -0.6875,-0.60938 -2.1875,-0.60938 h -4.21875 z m 11.97297,7.45312 v -13.35937 h 1.76562 v 13.35937 z m 4.98016,0 v -13.35937 h 9.01562 v 1.57812 h -7.25 v 4.14063 h 6.26563 v 1.57812 h -6.26563 v 6.0625 z"
         fill-rule="nonzero"
         id="path155" />
      <path
         fill="#ffffff"
         d="m 364.81235,464.86877 h 94.23621 v 38.61417 h -94.23621 z"
         fill-rule="evenodd"
         id="path157" />
      <path
         fill="#000000"
         d="m 377.68393,491.09586 5.125,-13.35937 h 1.90625 l 5.46875,13.35937 h -2.01563 l -1.54687,-4.04687 h -5.59375 l -1.46875,4.04687 z m 3.85937,-5.48437 h 4.53125 l -1.40625,-3.70313 q -0.625,-1.6875 -0.9375,-2.76562 -0.26562,1.28125 -0.71875,2.54687 z m 16.17795,5.48437 v -1.42187 q -1.125,1.64062 -3.0625,1.64062 -0.85937,0 -1.60937,-0.32812 -0.73438,-0.32813 -1.09375,-0.82813 -0.35938,-0.5 -0.5,-1.21875 -0.10938,-0.46875 -0.10938,-1.53125 v -5.98437 h 1.64063 v 5.35937 q 0,1.28125 0.10937,1.73438 0.15625,0.64062 0.65625,1.01562 0.5,0.375 1.23438,0.375 0.73437,0 1.375,-0.375 0.65625,-0.39062 0.92187,-1.03125 0.26563,-0.65625 0.26563,-1.89062 v -5.1875 H 399.19 v 9.67187 z m 7.6257,-1.46875 0.23438,1.45313 q -0.6875,0.14062 -1.23438,0.14062 -0.89062,0 -1.39062,-0.28125 -0.48438,-0.28125 -0.6875,-0.73437 -0.20313,-0.46875 -0.20313,-1.9375 v -5.57813 h -1.20312 v -1.26562 h 1.20312 v -2.39063 l 1.625,-0.98437 v 3.375 h 1.65625 v 1.26562 h -1.65625 v 5.67188 q 0,0.6875 0.0781,0.89062 0.0937,0.20313 0.28125,0.32813 0.20312,0.10937 0.57812,0.10937 0.26563,0 0.71875,-0.0625 z m 0.99582,-3.375 q 0,-2.6875 1.48438,-3.96875 1.25,-1.07812 3.04687,-1.07812 2,0 3.26563,1.3125 1.26562,1.29687 1.26562,3.60937 0,1.85938 -0.5625,2.9375 -0.5625,1.0625 -1.64062,1.65625 -1.0625,0.59375 -2.32813,0.59375 -2.03125,0 -3.28125,-1.29687 -1.25,-1.3125 -1.25,-3.76563 z m 1.6875,0 q 0,1.85938 0.79688,2.79688 0.8125,0.92187 2.04687,0.92187 1.21875,0 2.03125,-0.92187 0.8125,-0.9375 0.8125,-2.84375 0,-1.79688 -0.8125,-2.71875 -0.8125,-0.92188 -2.03125,-0.92188 -1.23437,0 -2.04687,0.92188 -0.79688,0.90625 -0.79688,2.76562 z m 9.53196,4.84375 v -13.35937 h 5.92187 q 1.78125,0 2.70313,0.35937 0.9375,0.35938 1.48437,1.28125 0.5625,0.90625 0.5625,2.01563 0,1.40625 -0.92187,2.39062 -0.92188,0.96875 -2.84375,1.23438 0.70312,0.34375 1.07812,0.67187 0.76563,0.70313 1.45313,1.76563 l 2.32812,3.64062 h -2.21875 l -1.76562,-2.78125 q -0.78125,-1.20312 -1.28125,-1.82812 -0.5,-0.64063 -0.90625,-0.89063 -0.39063,-0.26562 -0.79688,-0.35937 -0.29687,-0.0781 -0.98437,-0.0781 h -2.04688 v 5.9375 z m 1.76562,-7.45312 h 3.79688 q 1.21875,0 1.89062,-0.25 0.6875,-0.26563 1.04688,-0.8125 0.35937,-0.54688 0.35937,-1.1875 0,-0.95313 -0.6875,-1.5625 -0.6875,-0.60938 -2.1875,-0.60938 h -4.21875 z m 11.97296,7.45312 v -13.35937 h 1.76563 v 13.35937 z m 4.98017,0 v -13.35937 h 9.01562 v 1.57812 h -7.25 v 4.14063 h 6.26563 v 1.57812 h -6.26563 v 6.0625 z"
         fill-rule="nonzero"
         id="path159" />
    </g>
  </g>
</svg>
