<?xml version="1.0" encoding="UTF-8" standalone="no"?>
<svg
   id="Layer_1"
   data-name="Layer 1"
   viewBox="0 0 23.999999 24"
   version="1.1"
   sodipodi:docname="CTD.svg"
   inkscape:version="1.3.2 (091e20ef0f, 2023-11-25, custom)"
   width="24"
   height="24"
   xmlns:inkscape="http://www.inkscape.org/namespaces/inkscape"
   xmlns:sodipodi="http://sodipodi.sourceforge.net/DTD/sodipodi-0.dtd"
   xmlns="http://www.w3.org/2000/svg"
   xmlns:svg="http://www.w3.org/2000/svg">
  <sodipodi:namedview
     id="namedview14"
     pagecolor="#ffffff"
     bordercolor="#666666"
     borderopacity="1.0"
     inkscape:showpageshadow="2"
     inkscape:pageopacity="0.0"
     inkscape:pagecheckerboard="0"
     inkscape:deskcolor="#d1d1d1"
     inkscape:zoom="11.544461"
     inkscape:cx="5.1106759"
     inkscape:cy="11.867163"
     inkscape:window-width="1920"
     inkscape:window-height="1011"
     inkscape:window-x="1920"
     inkscape:window-y="45"
     inkscape:window-maximized="1"
     inkscape:current-layer="Layer_1" />
  <defs
     id="defs1" />
  <path
     id="path122"
     d="m 13.639366,9.8148395 0.262007,0.7235155 h -3.081252 v 0.170239 h 3.081252 l -0.262007,0.725176 c 0.429678,-0.357875 0.935285,-0.612509 1.455672,-0.810297 -0.518967,-0.199603 -1.027206,-0.449446 -1.455672,-0.8086335 z m 0,0 c 0.428464,0.3591875 0.936705,0.6090315 1.455672,0.8086335 z M 3.6039304,6.9157945 c -0.51046,0 -0.9263381,0.415546 -0.9263381,0.926006 0,0.510459 0.4158781,0.926005 0.9263381,0.926005 0.095766,0 0.1863448,-0.01875 0.2733124,-0.04589 l 1.4114515,2.1449395 c -0.1389896,0.16208 -0.2260986,0.369935 -0.2260986,0.599493 0,0.07869 0.013,0.15375 0.031587,0.226763 l -3.106522,1.102233 C 1.837293,12.48657 1.5231272,12.271328 1.1574146,12.271328 c -0.51045943,0 -0.92600515,0.415878 -0.92600515,0.926338 0,0.51046 0.41554572,0.926004 0.92600515,0.926004 0.5104599,0 0.926005,-0.415544 0.926005,-0.926004 0,-0.08457 -0.015225,-0.164816 -0.036575,-0.242724 L 5.150375,11.854044 c 0.1133574,0.243703 0.3295069,0.427598 0.5925101,0.500741 L 5.225852,15.239867 c -0.026213,-0.0023 -0.051361,-0.008 -0.078137,-0.008 -0.51046,0 -0.9260051,0.415545 -0.9260051,0.926004 0,0.510459 0.4155451,0.926338 0.9260051,0.926338 0.5104601,0 0.9263374,-0.415878 0.9263374,-0.926338 0,-0.424794 -0.2897759,-0.77988 -0.6806219,-0.888433 l 0.517366,-2.885082 c 0.026213,0.0023 0.05136,0.008 0.078137,0.008 0.2030315,0 0.3894769,-0.06758 0.542303,-0.178883 l 3.0553182,0.960919 c -2.044e-4,0.0079 -0.00234,0.01531 -0.00234,0.02327 0,0.510461 0.415545,0.926006 0.9260063,0.926006 0.51046,0 0.926337,-0.415545 0.926337,-0.926006 0,-0.510458 -0.415877,-0.926336 -0.926337,-0.926336 -0.321743,0 -0.6053551,0.165636 -0.771395,0.415622 L 6.8564101,11.780227 c 0.035794,-0.09848 0.058516,-0.20322 0.058516,-0.313877 0,-0.20166 -0.066621,-0.386984 -0.1765561,-0.539311 L 9.3052495,8.6926565 c 0.1118815,0.04809 0.2348241,0.07515 0.3640844,0.07515 0.5104611,0 0.9260071,-0.415546 0.9260061,-0.926006 0,-0.510459 -0.415545,-0.926005 -0.9260061,-0.926005 -0.5104593,0 -0.926005,0.415546 -0.926005,0.926005 0,0.316578 0.1601444,0.596333 0.4033197,0.763414 L 6.6269834,10.798365 C 6.4606229,10.639253 6.2365951,10.540013 5.9889213,10.540013 c -0.095878,0 -0.1865696,0.01867 -0.2736454,0.04589 L 4.3038246,8.4412875 c 0.1390092,-0.162029 0.2260984,-0.36985 0.2260984,-0.599492 0,-0.51046 -0.4155457,-0.926004 -0.9260051,-0.926004 z m 12.3319946,0.411965 c -0.510463,0 -0.926006,0.415545 -0.926006,0.926005 0,0.51046 0.415543,0.926006 0.926006,0.926006 0.09576,0 0.186343,-0.01875 0.273313,-0.04589 l 1.411451,2.1436095 c -0.138764,0.16204 -0.225766,0.36974 -0.225766,0.599161 0,0.510458 0.415546,0.926004 0.926004,0.926004 0.202439,0 0.388391,-0.06718 0.540975,-0.177886 l 3.056646,0.961583 c -1.71e-4,0.0079 -0.0023,0.0153 -0.0023,0.02327 0,0.510459 0.415878,0.926004 0.926339,0.926004 0.510458,0 0.926004,-0.415545 0.926004,-0.926004 0,-0.51046 -0.415546,-0.926338 -0.926004,-0.926338 -0.321845,0 -0.605278,0.165838 -0.771393,0.415954 L 19.18805,12.192192 c 0.03616,-0.09892 0.05885,-0.20429 0.05885,-0.31554 0,-0.510458 -0.415542,-0.926337 -0.926004,-0.926337 -0.09588,0 -0.186589,0.01867 -0.273644,0.04589 L 16.6358,8.8529275 c 0.138915,-0.162004 0.226097,-0.369609 0.226097,-0.59916 0,-0.51046 -0.415545,-0.926006 -0.926004,-0.926006 z"
     style="stroke-width:0.170239" />
</svg>
