<?xml version="1.0" encoding="UTF-8" standalone="no"?>
<!-- Created with Inkscape (http://www.inkscape.org/) -->

<svg
   width="24"
   height="24"
   viewBox="0 0 24 24"
   version="1.1"
   id="svg1"
   xml:space="preserve"
   sodipodi:docname="DRC.svg"
   inkscape:version="1.4.2 (ebf0e940d0, 2025-05-08)"
   xmlns:inkscape="http://www.inkscape.org/namespaces/inkscape"
   xmlns:sodipodi="http://sodipodi.sourceforge.net/DTD/sodipodi-0.dtd"
   xmlns="http://www.w3.org/2000/svg"
   xmlns:svg="http://www.w3.org/2000/svg"><sodipodi:namedview
     id="namedview1"
     pagecolor="#ffffff"
     bordercolor="#666666"
     borderopacity="1.0"
     inkscape:showpageshadow="2"
     inkscape:pageopacity="0.0"
     inkscape:pagecheckerboard="0"
     inkscape:deskcolor="#d1d1d1"
     inkscape:document-units="mm"
     inkscape:zoom="5.7181017"
     inkscape:cx="0.87441607"
     inkscape:cy="32.965486"
     inkscape:window-width="1225"
     inkscape:window-height="580"
     inkscape:window-x="0"
     inkscape:window-y="0"
     inkscape:window-maximized="0"
     inkscape:current-layer="layer1" /><defs
     id="defs1" /><g
     id="layer1"
     transform="translate(-80.168747,-123.03125)"><path
       style="fill:#000000;stroke-width:0.510665"
       d="m 96.565728,146.29242 c -1.334304,-0.63818 -2.049534,-1.89279 -1.922895,-3.373 0.0397,-0.46428 0.109736,-0.93592 0.155581,-1.04809 0.155975,-0.38167 -0.528077,-0.64978 -1.299897,-0.5095 -0.8048,0.14627 -1.052775,0.0756 -1.052775,-0.30001 0,-0.27967 0.07766,-0.4853 0.727106,-1.92527 0.19272,-0.42729 0.327269,-0.7769 0.298995,-0.7769 -0.02829,0 -0.913253,0.95762 -1.966621,2.12805 -2.191134,2.43459 -2.347973,2.57305 -2.640032,2.33067 -0.111446,-0.0925 -0.202628,-0.22212 -0.202628,-0.28805 0,-0.0659 0.425608,-1.07398 0.945795,-2.24009 0.520193,-1.1661 0.945797,-2.17633 0.945797,-2.24495 0,-0.0686 -0.19148,-0.0865 -0.425505,-0.0396 -0.333563,0.0667 -0.525457,0.009 -0.888038,-0.26769 l -0.462529,-0.35279 -0.296052,0.27813 c -0.810019,0.76098 -2.642117,0.9851 -3.688586,0.45123 -1.183154,-0.60361 -1.822285,-1.58704 -1.914068,-2.9452 -0.197068,-2.91612 3.218248,-4.63317 5.600885,-2.81584 0.6143,0.46854 0.94084,0.26189 1.066689,-0.67506 0.180165,-1.34134 0.475343,-1.33709 1.866722,0.0269 l 1.068167,1.04713 -1.15791,-2.22937 c -0.636855,-1.22616 -1.294081,-2.47687 -1.460501,-2.77937 -0.3322,-0.60382 -0.278603,-1.00381 0.134496,-1.00381 0.15297,0 0.996,0.70625 2.015919,1.68884 l 1.752994,1.68884 0.08929,-0.47598 c 0.06297,-0.33567 0.222031,-0.56298 0.539572,-0.77114 0.450003,-0.29498 0.450161,-0.29549 0.26351,-0.82451 -0.458555,-1.29968 -0.03931,-2.85963 1.009855,-3.7577 1.643569,-1.40683 4.309028,-0.89994 5.257856,0.99988 1.16789,2.33849 -0.4417,5.02463 -3.002727,5.01107 -0.87909,-0.004 -1.705034,-0.28683 -2.199612,-0.75146 -0.269327,-0.25302 -0.344374,-0.26599 -0.635956,-0.10994 -0.254557,0.13623 -0.371434,0.36686 -0.508152,1.00266 -0.25436,1.18299 -0.470183,1.16704 -1.856578,-0.13719 l -1.110194,-1.04439 0.469853,0.86855 c 2.579472,4.7682 2.693357,5.04565 2.145894,5.22814 -0.08587,0.0286 -0.974351,-0.71323 -1.974384,-1.64857 -1.000037,-0.93535 -1.844243,-1.65436 -1.876019,-1.59782 -0.03175,0.0565 -0.09692,0.26679 -0.144766,0.4672 -0.04839,0.20278 -0.26761,0.47106 -0.49425,0.60494 -0.277606,0.16399 -0.378507,0.30606 -0.316973,0.4463 0.318311,0.72546 0.364057,1.4917 0.137666,2.30597 -0.221618,0.79711 -0.221204,0.8438 0.009,1.01844 0.279967,0.21236 0.58969,0.22982 1.270364,0.0716 0.52625,-0.12234 0.930072,0.0153 0.930072,0.31683 0,0.10084 -0.18822,0.59943 -0.418271,1.10797 -0.230045,0.50853 -0.472993,1.07661 -0.539883,1.26239 -0.128323,0.35641 0.849948,-0.64126 2.8866,-2.9438 0.802474,-0.90723 1.185053,-1.24411 1.381017,-1.21602 0.152119,0.0218 0.288249,0.15894 0.310247,0.31252 0.02153,0.15052 -0.38884,1.24219 -0.912018,2.42592 -0.523168,1.18374 -0.951216,2.15801 -0.951216,2.16503 0,0.007 0.20977,-0.0117 0.466159,-0.0417 0.326479,-0.0381 0.589179,0.0332 0.876668,0.23787 l 0.410498,0.29231 0.440694,-0.32991 c 1.62602,-1.21727 3.37789,-1.15312 4.703207,0.1722 1.40092,1.40092 1.38847,3.45775 -0.0293,4.85551 -0.668748,0.65928 -1.157278,0.86348 -2.206437,0.92226 -0.789384,0.0442 -1.057684,-4.9e-4 -1.622341,-0.2706 z"
       id="path1" /></g></svg>
