<?xml version="1.0" encoding="UTF-8" standalone="no"?>
<!-- Created with Inkscape (http://www.inkscape.org/) -->

<svg
   version="1.1"
   id="svg1"
   sodipodi:docname="GlyGenProtein.svg"
   inkscape:version="1.3.2 (091e20ef0f, 2023-11-25, custom)"
   width="24"
   height="24"
   xmlns:inkscape="http://www.inkscape.org/namespaces/inkscape"
   xmlns:sodipodi="http://sodipodi.sourceforge.net/DTD/sodipodi-0.dtd"
   xmlns="http://www.w3.org/2000/svg"
   xmlns:svg="http://www.w3.org/2000/svg">
  <defs
     id="defs1" />
  <sodipodi:namedview
     id="namedview1"
     pagecolor="#ffffff"
     bordercolor="#666666"
     borderopacity="1.0"
     inkscape:showpageshadow="2"
     inkscape:pageopacity="0.0"
     inkscape:pagecheckerboard="0"
     inkscape:deskcolor="#d1d1d1"
     inkscape:zoom="16.231579"
     inkscape:cx="6.8693256"
     inkscape:cy="6.2224385"
     inkscape:window-width="1920"
     inkscape:window-height="1011"
     inkscape:window-x="1920"
     inkscape:window-y="45"
     inkscape:window-maximized="1"
     inkscape:current-layer="g1" />
  <g
     inkscape:groupmode="layer"
     inkscape:label="Image"
     id="g1">
    <path
       style="fill:#000000;stroke-width:0.124133"
       d="M 3.9278012,23.665806 C 3.7596444,23.497649 3.8525471,22.903575 4.0952526,22.595026 4.4175123,22.185338 4.9045673,22.030862 6.2732821,21.904234 7.9933309,21.745099 8.5666165,21.341168 8.6593403,20.223042 8.732224,19.34416 8.5289861,19.147616 7.1842272,18.796508 5.8749989,18.454676 5.22821,18.17933 5.078833,17.900218 5.0147083,17.7804 4.9622424,17.424785 4.9622424,17.109965 c 0,-0.740642 0.344353,-1.097558 1.3215859,-1.369803 0.3996347,-0.111333 0.7824685,-0.21979 0.8507416,-0.241016 0.1485813,-0.04619 -0.01817,-0.110728 -0.9669196,-0.374218 -0.9707916,-0.269612 -1.2054079,-0.525101 -1.2054079,-1.312648 0,-0.490815 0.062728,-0.689036 0.2899592,-0.916266 0.2528588,-0.252859 1.404924,-0.69182 1.8156993,-0.69182 0.36728,0 -0.056176,-0.222362 -0.6962337,-0.3656 -0.9493581,-0.212458 -1.4094248,-0.659941 -1.4094248,-1.370875 0,-0.9259492 0.3041629,-1.1910302 1.7968628,-1.5659844 L 7.5973105,8.6911842 6.5590755,8.3963333 C 5.2632717,8.0283343 4.9622424,7.7386259 4.9622424,6.859552 4.9622424,6.0858242 5.20148,5.8277961 6.1676503,5.5594677 6.56291,5.4496949 6.9700938,5.3294529 7.0725035,5.2922634 7.1763156,5.2545644 6.9100668,5.1238205 6.4707684,4.9967758 5.0781446,4.5940296 4.8697794,4.3224982 4.9982385,3.0778497 5.1328212,1.7738686 5.6685802,1.1289275 7.0284907,0.63385314 7.5990994,0.42612338 8.1152671,0.35931397 9.4310304,0.32288226 10.997132,0.27951965 11.139328,0.29512367 11.603358,0.5612531 c 0.362471,0.20788417 0.593926,0.4796364 0.857256,1.006509 0.326156,0.652577 0.366533,0.8725144 0.421336,2.2951681 l 0.06062,1.5734301 1.228185,1.8364036 c 0.675503,1.0100217 1.194818,1.890396 1.154032,1.9563868 -0.04079,0.06599 -0.349243,0.1199835 -0.685464,0.1199835 h -0.611311 l -0.03306,3.3205578 -0.03306,3.320557 -0.527565,0.03817 c -0.449095,0.03249 -0.527385,0.07865 -0.526352,0.310333 0.002,0.464013 0.558286,1.496136 1.029009,1.909436 0.840066,0.737587 2.341789,0.633221 2.938078,-0.204189 0.220164,-0.309191 0.624621,-1.563811 0.624621,-1.937565 0,-0.07809 -0.533961,-0.933668 -1.18658,-1.901281 -1.331828,-1.974646 -1.398105,-2.249227 -0.542916,-2.249227 h 0.488166 V 8.7532958 c 0,-2.3254249 0.0408,-3.2434318 0.14896,-3.3515911 0.08193,-0.081927 0.347493,-0.1489595 0.590146,-0.1489595 h 0.441179 l 0.466153,-1.5826958 c 0.555938,-1.8875409 0.584972,-2.4038229 0.159126,-2.82966798 -0.16758,-0.16757943 -0.363089,-0.30469023 -0.434466,-0.30469023 -0.07138,0 -0.129775,-0.0837897 -0.129775,-0.18619937 0,-0.42928577 0.892883,0.0170549 1.117132,0.55843902 0.212488,0.51299456 0.09296,1.68380426 -0.285153,2.79315176 -0.536526,1.5741082 -0.536668,1.5516626 0.0098,1.5516626 0.260739,0 0.541102,0.067032 0.623029,0.1489595 0.108143,0.1081421 0.148959,1.0245801 0.148959,3.3444537 v 3.1954936 l 0.526495,0.03817 c 0.379318,0.0275 0.537764,0.0976 0.566809,0.250778 0.02217,0.116933 -0.486437,0.993602 -1.130245,1.948151 -0.982379,1.456533 -1.18439,1.83979 -1.256582,2.383986 -0.160351,1.208796 -0.702883,2.069583 -1.526514,2.421991 -0.552599,0.236442 -1.490454,0.209176 -2.084281,-0.0606 -0.894708,-0.406459 -1.284343,-1.011735 -1.748797,-2.716653 -0.02588,-0.09498 -0.259663,-0.155166 -0.602737,-0.155166 h -0.560498 l -0.03306,-3.320557 -0.03306,-3.3205585 -0.651698,-0.03752 C 10.187074,9.3511006 9.9275655,9.2785129 9.9275655,9.1913923 c 0,-0.079623 0.5643015,-0.9947758 1.2540025,-2.0336744 L 12.435571,5.2688115 12.391865,3.6780824 C 12.343992,1.9356314 12.201951,1.505731 11.501456,0.9831328 10.763987,0.43295146 7.7708508,0.6280768 6.5421022,1.3064383 5.8941668,1.6641467 5.434363,2.3234879 5.4839616,2.8237708 c 0.041821,0.4218281 0.19069,0.4945068 1.9562617,0.9550542 1.3334668,0.3478338 1.6184107,0.6063448 1.6184107,1.4682778 0,0.7879527 -0.2351713,1.0437403 -1.2054083,1.31108 -1.287284,0.354699 -1.2948179,0.3709562 -0.286417,0.6180777 1.2160235,0.2980019 1.4918253,0.5699068 1.4918253,1.4707478 0,0.9225362 -0.2183461,1.1564183 -1.3969676,1.4963677 l -0.9544839,0.275301 0.9285508,0.273184 c 1.1654042,0.342867 1.4229007,0.584329 1.4229007,1.334293 0,0.972328 -0.2238581,1.186877 -1.6137294,1.546619 l -0.8068645,0.208843 0.5585986,0.14665 c 1.0157998,0.266681 1.6149415,0.528909 1.739279,0.761233 0.067493,0.126115 0.1227163,0.503613 0.1227163,0.838886 0,0.783348 -0.2081439,0.974433 -1.4581729,1.338664 -0.5293315,0.154236 -0.8786308,0.309492 -0.7762211,0.345014 0.1024098,0.03552 0.5213583,0.157002 0.9309974,0.269955 1.2100132,0.333648 1.3033966,0.480472 1.3033966,2.049303 0,1.167161 -0.033381,1.375845 -0.279479,1.747258 -0.4219302,0.636776 -1.1903329,0.955376 -2.6175057,1.085285 -1.4145684,0.128761 -1.8578354,0.358014 -1.921034,0.993539 -0.037631,0.378424 -0.1409404,0.480275 -0.3128118,0.308403 z"
       id="path1" />
  </g>
</svg>
