<?xml version="1.0" encoding="UTF-8" standalone="no"?>
<!-- Created with Inkscape (http://www.inkscape.org/) -->

<svg
   width="24mm"
   height="24mm"
   viewBox="0 0 24 24.000001"
   version="1.1"
   id="svg1"
   xml:space="preserve"
   sodipodi:docname="GSFM.svg"
   inkscape:version="1.4.2 (ebf0e940, 2025-05-08)"
   xmlns:inkscape="http://www.inkscape.org/namespaces/inkscape"
   xmlns:sodipodi="http://sodipodi.sourceforge.net/DTD/sodipodi-0.dtd"
   xmlns="http://www.w3.org/2000/svg"
   xmlns:svg="http://www.w3.org/2000/svg"><sodipodi:namedview
     id="namedview1"
     pagecolor="#ffffff"
     bordercolor="#000000"
     borderopacity="0.25"
     inkscape:showpageshadow="2"
     inkscape:pageopacity="0.0"
     inkscape:pagecheckerboard="0"
     inkscape:deskcolor="#d1d1d1"
     inkscape:document-units="mm"
     inkscape:zoom="1.822373"
     inkscape:cx="20.303198"
     inkscape:cy="88.895083"
     inkscape:window-width="1120"
     inkscape:window-height="627"
     inkscape:window-x="168"
     inkscape:window-y="214"
     inkscape:window-maximized="0"
     inkscape:current-layer="svg1" /><defs
     id="defs1" /><g
     id="layer1"
     transform="matrix(0.21488593,0,0,0.21488593,-9.4522019,-8.6185914)"><path
       id="path1"
       style="fill:#000000"
       d="m 66.840335,148.13893 c -1.327376,-0.40896 -1.450545,-1.19639 -0.591594,-3.78212 1.608209,-4.84125 5.613673,-10.3309 10.560847,-14.47407 2.891771,-2.42181 4.858798,-3.77534 9.136504,-6.28691 1.082594,-0.63563 11.56627,-5.87574 11.755345,-5.87574 0.03226,0 1.217008,-0.57834 2.632763,-1.2852 2.91289,-1.45436 3.88047,-2.04833 6.43414,-3.94979 5.70422,-4.24736 8.70672,-8.18768 10.62151,-13.939102 0.72929,-2.190557 1.06666,-3.950956 1.25312,-6.538736 0.20667,-2.868341 0.0263,-4.858898 -0.75696,-8.352872 -0.68439,-3.05301 -1.27077,-4.79259 -1.96028,-5.815431 -0.26296,-0.390087 -0.66384,-1.080126 -0.89085,-1.53342 -0.227,-0.453294 -0.62911,-1.183615 -0.89358,-1.622935 -0.26446,-0.439321 -0.57048,-1.142017 -0.68003,-1.561547 -0.31975,-1.224452 -1.51751,-2.906985 -2.49003,-3.497816 -0.82455,-0.500937 -0.90359,-0.729065 -0.33633,-0.970742 0.20776,-0.08852 1.04108,-0.526934 1.85182,-0.974265 0.81075,-0.447331 1.56198,-0.779598 1.66941,-0.738372 0.24095,0.09246 1.79904,2.311566 2.53017,3.603571 0.29706,0.524945 0.94255,1.665293 1.43442,2.534106 1.78357,3.150389 2.74105,5.373533 3.60082,8.360592 0.87759,3.048973 1.40172,7.466758 1.25705,10.595323 -0.21539,4.657758 -1.04169,8.033096 -2.90871,11.881786 -2.19858,4.53214 -5.41111,8.49716 -9.1946,11.34828 -3.95241,2.9784 -6.12184,4.1982 -16.483404,9.26808 -4.472999,2.18862 -9.517233,5.10467 -11.933463,6.89867 -3.37822,2.50827 -6.596649,5.61183 -8.288808,7.99297 -1.090629,1.5347 -2.871505,4.93167 -3.420582,6.52468 -0.182281,0.52885 -0.465373,1.28605 -0.629092,1.68268 l -0.297672,0.72115 -1.176639,-0.01 c -0.647151,-0.005 -1.459534,-0.0967 -1.805295,-0.20326 z m 32.427962,-0.0789 c -0.512901,-0.20452 -0.968045,-0.67304 -1.244908,-1.2815 l -0.247065,-0.54297 -3.368923,-0.0145 -3.368923,-0.0145 -0.315041,0.48529 c -0.391339,0.60282 -0.829131,0.83104 -1.599217,0.83365 -0.846499,0.003 -1.49325,-0.34556 -1.816105,-0.97841 l -0.270664,-0.53055 h -1.89917 c -1.044543,0 -2.449527,-0.0369 -3.122187,-0.0821 l -1.223017,-0.0821 -0.274723,0.43561 c -0.41953,0.66522 -1.192119,1.00602 -2.127299,0.93837 -0.925835,-0.067 -1.508327,-0.43162 -1.875513,-1.17411 l -0.255401,-0.51644 -1.597181,0.0385 -1.597182,0.0386 -0.07067,-0.36967 c -0.03887,-0.20332 -0.0095,-0.54519 0.0653,-0.75971 l 0.135966,-0.39003 h 1.631376 1.631376 l 0.207497,-0.40126 c 0.560621,-1.08412 2.153132,-1.40908 3.156785,-0.64416 0.28641,0.21829 0.643312,0.60462 0.793114,0.85851 l 0.272369,0.46163 h 3.121807 3.121807 l 0.333008,-0.35645 c 1.003648,-1.07432 2.379553,-0.95251 3.178963,0.28144 l 0.313364,0.4837 3.509187,0.002 3.509187,0.002 0.534428,-0.5473 c 0.618006,-0.6329 1.257682,-0.88772 1.891298,-0.7534 0.53661,0.11375 1.3062,0.66762 1.49296,1.07447 0.1269,0.27646 0.24158,0.29635 1.83285,0.31793 1.91183,0.0259 2.2712,0.14046 2.2712,0.72386 0,0.54581 -0.50321,0.69542 -2.33898,0.69542 h -1.47382 l -0.15949,0.38504 c -0.47419,1.1448 -1.75111,1.78535 -2.758366,1.3837 z m -0.414887,-8.62996 c -0.271981,-0.14385 -0.581945,-0.46217 -0.708536,-0.72763 l -0.22504,-0.47192 -1.682519,-0.0905 c -0.925385,-0.0497 -2.120956,-0.0897 -2.656825,-0.0888 -0.952342,0.002 -0.980979,0.012 -1.270311,0.45891 -0.611593,0.94469 -2.247477,1.24009 -3.063751,0.55324 -0.235157,-0.19788 -0.519645,-0.53785 -0.632195,-0.75549 l -0.204636,-0.39573 h -2.274972 -2.274973 l -0.585604,0.64682 c -0.575716,0.6359 -0.601727,0.64773 -1.540489,0.70078 -0.868086,0.049 -0.99332,0.0216 -1.377701,-0.30182 -1.246525,-1.04888 -1.14154,-2.83758 0.220419,-3.7554 0.887487,-0.59808 1.932755,-0.35952 2.777498,0.63391 l 0.46126,0.54245 2.367659,0.0455 2.367659,0.0455 0.349174,-0.51362 c 0.594006,-0.87375 1.548866,-1.16367 2.393708,-0.72678 0.214737,0.11104 0.610625,0.46647 0.879752,0.78983 l 0.489322,0.58793 h 2.641881 2.641881 l 0.489376,-0.52898 c 0.527789,-0.57051 1.083919,-0.91378 1.478426,-0.91255 0.618137,0.002 1.337657,0.3342 1.864527,0.86106 l 0.56927,0.56927 1.51657,0.099 c 0.83412,0.0545 1.53204,0.10335 1.55092,0.10863 0.0955,0.0266 0.016,0.74868 -0.10785,0.98014 -0.12657,0.23649 -0.29893,0.2657 -1.56812,0.2657 h -1.42592 l -0.43929,0.55464 c -0.81606,1.03036 -2.014402,1.35799 -3.02057,0.82584 z m 8.37965,-0.263 c -0.69972,-0.37446 -1.28523,-1.53441 -1.17814,-2.334 0.15647,-1.16831 1.44147,-2.90434 2.14977,-2.90434 0.208,0 0.36544,-0.18902 0.60065,-0.72114 0.58571,-1.32506 1.72059,-4.48168 1.80816,-5.02931 0.0804,-0.50285 0.0477,-0.57612 -0.46204,-1.03669 -0.36001,-0.32524 -0.65091,-0.76925 -0.84629,-1.29169 l -0.29772,-0.79609 -1.99161,-0.0196 c -1.09538,-0.0108 -2.09897,-0.0537 -2.23019,-0.0954 -0.16572,-0.0526 -0.31481,0.0533 -0.48816,0.34676 -0.69316,1.17343 -2.32207,1.24462 -2.90014,0.12676 -0.31133,-0.60206 -0.40895,-1.57065 -0.20735,-2.05736 0.18472,-0.44594 1.15293,-1.24132 1.50499,-1.23635 0.55186,0.008 1.367,0.5425 1.70378,1.1176 l 0.34925,0.59641 2.13639,-0.0411 2.13639,-0.041 0.2061,-0.39855 c 0.11335,-0.2192 0.20609,-0.42721 0.20609,-0.46223 0,-0.035 -0.38633,-0.28026 -0.85851,-0.54496 -0.47218,-0.2647 -1.1245,-0.67457 -1.4496,-0.91082 -0.66244,-0.4814 -0.67949,-0.75774 -0.0847,-1.37256 l 0.3262,-0.33718 0.41519,0.30284 c 0.22835,0.16657 0.61607,0.44056 0.8616,0.60888 0.24554,0.16831 0.64785,0.49002 0.89404,0.7149 l 0.44761,0.40887 0.78865,-0.40584 c 0.67093,-0.34526 0.94241,-0.40522 1.81885,-0.4017 0.75129,0.003 1.20371,0.0832 1.67101,0.29618 l 0.6408,0.29204 4.02873,-4.03435 c 2.21579,-2.21889 4.08431,-4.15893 4.15225,-4.31119 0.0845,-0.18947 0.0474,-0.47615 -0.11761,-0.90828 -0.28185,-0.73802 -0.30937,-2.10266 -0.0592,-2.93752 0.38671,-1.29072 1.9307,-2.3956 3.32784,-2.3814 l 0.6631,0.007 0.47992,-1.04885 c 0.59541,-1.30121 2.24605,-5.20711 2.24605,-5.3148 0,-0.0436 -0.15267,-0.27943 -0.33928,-0.52408 -0.94748,-1.242213 -1.21868,-2.968493 -0.66145,-4.210353 0.41016,-0.914116 1.31595,-1.864675 1.99138,-2.089819 0.73174,-0.243912 0.75735,-0.341258 0.8773,-3.334037 l 0.0947,-2.362838 -0.32885,-0.08406 c -0.18087,-0.04623 -0.63792,-0.338826 -1.01567,-0.650212 -0.81556,-0.672293 -1.00539,-1.157368 -1.01831,-2.602131 -0.0113,-1.261487 0.39273,-2.246314 1.23881,-3.019704 l 0.56032,-0.512181 -0.41482,-1.447028 c -0.22814,-0.795865 -0.52221,-1.946839 -0.65349,-2.557719 -0.21942,-1.02112 -0.27981,-1.137914 -0.74878,-1.448264 -0.29966,-0.198303 -0.63647,-0.5986 -0.81639,-0.970272 -0.27286,-0.56365 -0.2891,-0.700949 -0.14881,-1.258071 0.20002,-0.79437 0.49785,-1.247908 0.98484,-1.49974 0.52757,-0.272817 0.99704,-0.24964 1.64562,0.08124 1.12081,0.571795 1.36807,1.631999 0.68392,2.932585 l -0.40412,0.768236 0.40049,1.946594 c 0.22027,1.070626 0.49981,2.24561 0.6212,2.611074 0.22016,0.662834 0.22223,0.664481 0.83682,0.664481 0.33887,0 0.72399,0.05773 0.85582,0.128279 0.19722,0.105549 0.36615,-0.03754 0.95337,-0.807536 0.39252,-0.514698 1.1715,-1.370701 1.73106,-1.902227 l 1.01738,-0.966412 -0.0736,-0.812192 c -0.14595,-1.609466 0.67321,-2.618185 2.00433,-2.468149 1.1362,0.128066 1.86173,1.327967 1.5355,2.539474 -0.25632,0.951896 -1.23977,1.660725 -2.02077,1.456488 -0.20667,-0.05405 -0.667,0.356096 -2.01936,1.799188 l -1.75166,1.869193 0.3714,0.440457 c 0.20428,0.242252 0.45786,0.646775 0.56352,0.898939 0.14703,0.350897 0.2469,0.434918 0.42561,0.358061 0.35973,-0.154704 2.32845,-0.594135 3.32222,-0.741537 0.49001,-0.07268 0.91638,-0.208498 0.94748,-0.301814 0.27812,-0.834361 1.73026,-1.112078 2.38602,-0.456318 0.39397,0.393964 0.51064,0.912639 0.34719,1.543419 -0.14609,0.56378 -0.58455,0.857783 -1.27116,0.852361 -0.63365,-0.005 -0.89852,-0.169065 -1.21267,-0.751121 -0.12232,-0.226647 -0.22488,-0.341531 -0.22791,-0.255298 -0.008,0.23397 -0.83798,0.517423 -2.75273,0.940341 -0.94436,0.208585 -1.76677,0.424416 -1.82757,0.479627 -0.21186,0.192364 -0.51958,1.81468 -0.37684,1.986672 0.0746,0.08989 0.58566,0.466432 1.13568,0.83677 0.55003,0.370338 1.26653,0.883454 1.59222,1.140257 l 0.59217,0.466914 0.30068,-0.273625 c 0.76668,-0.697699 1.62333,-0.781203 2.28682,-0.222913 1.04485,0.879184 1.1201,2.257609 0.17721,3.245979 -0.30891,0.323806 -0.46948,0.377671 -1.1245,0.377231 -1.10401,-7.42e-4 -1.58654,-0.33303 -1.86261,-1.282674 -0.19991,-0.68767 -0.28133,-0.784013 -1.06992,-1.265945 -1.02332,-0.625382 -2.23941,-1.543789 -2.69754,-2.037221 -0.40752,-0.438923 -0.49142,-0.442147 -1.02764,-0.03949 -0.23378,0.175547 -0.52542,0.35605 -0.64809,0.401118 -0.26387,0.09694 -0.34147,0.472576 -0.53223,2.576387 -0.0788,0.868813 -0.1789,1.858713 -0.2225,2.199778 -0.0787,0.616136 -0.0757,0.621669 0.46746,0.861329 0.30069,0.132665 0.83186,0.49221 1.18038,0.798988 0.49423,0.435041 0.68257,0.725983 0.85589,1.322183 l 0.22222,0.764405 2.1358,-0.09528 c 1.99566,-0.08903 2.16208,-0.117385 2.53615,-0.43215 0.72732,-0.611999 1.81338,-0.397035 2.40123,0.475275 0.76874,1.140736 0.0145,2.621899 -1.33515,2.621899 -0.80509,0 -1.51086,-0.557158 -1.51106,-1.192885 -7e-5,-0.230265 -0.16911,-0.25003 -2.20177,-0.257444 l -2.2017,-0.008 -0.0808,0.351435 c -0.0444,0.193289 -0.23949,0.713469 -0.43346,1.155956 -0.34402,0.784817 -0.34615,0.808157 -0.0869,0.952767 0.42336,0.23617 1.50796,1.30448 1.41687,1.39558 -0.16392,0.16392 -0.88665,-0.2284 -1.39662,-0.75813 -0.59549,-0.61855 -0.86717,-0.65661 -1.74626,-0.24465 -0.34983,0.16394 -0.89093,0.28892 -1.24661,0.28794 -0.55084,-0.002 -0.64658,0.0429 -0.77501,0.35978 -0.0806,0.19883 -0.74042,1.62473 -1.46628,3.16865 -0.72587,1.54393 -1.31976,2.86144 -1.31976,2.92781 0,0.0664 0.19033,0.28082 0.42297,0.47657 0.23263,0.19575 0.61051,0.68821 0.83972,1.09435 0.29783,0.52773 0.4809,0.71911 0.64158,0.67072 0.38366,-0.11554 3.62775,-0.36124 3.70815,-0.28084 0.0418,0.0418 0.17201,-0.1272 0.2893,-0.3756 0.27096,-0.57386 0.98507,-0.84401 1.70533,-0.64513 0.93367,0.25779 1.19722,1.17083 0.52411,1.81571 -0.45321,0.4342 -1.21486,0.49703 -1.75276,0.14459 -0.28831,-0.18891 -0.57618,-0.20979 -1.81521,-0.13167 -0.8099,0.0511 -1.75838,0.12812 -2.10771,0.17124 l -0.63516,0.0784 -0.0813,0.6863 c -0.0456,0.38484 -0.26828,1.01763 -0.50698,1.44059 -0.37041,0.65634 -0.40092,0.78373 -0.23493,0.98098 0.10491,0.12468 0.75622,0.91186 1.44735,1.74929 l 1.25659,1.5226 0.72499,-0.0582 c 0.59504,-0.0478 0.81118,-1.1e-4 1.20577,0.26584 0.94769,0.63875 1.20701,1.77336 0.65246,2.85482 -1.1521,2.24681 -4.22083,0.7892 -3.86127,-1.83406 l 0.088,-0.64173 -0.96122,-0.99177 c -0.52867,-0.54547 -1.15998,-1.31503 -1.40291,-1.71013 l -0.4417,-0.71836 -0.70215,0.35581 c -0.80669,0.40878 -1.51157,0.38548 -2.42426,-0.0801 l -0.5358,-0.27335 -0.20342,0.31046 c -0.21894,0.33414 -3.83642,3.97849 -6.50146,6.54973 -1.61659,1.5597 -1.63498,1.58442 -1.45592,1.95633 0.0998,0.20717 0.22615,0.63986 0.2809,0.96153 l 0.0995,0.58487 2.04608,0.10262 c 1.35805,0.0681 2.14376,0.16662 2.33656,0.29295 0.25875,0.16953 0.33143,0.15509 0.66549,-0.13226 1.16552,-1.00254 3.06754,-0.442 3.33483,0.98278 0.31834,1.69691 -1.14643,2.84635 -2.73291,2.14458 -0.65989,-0.2919 -0.96571,-0.71224 -1.12119,-1.54104 -0.0868,-0.46265 -0.10737,-0.47602 -0.73293,-0.47616 -0.35399,-9e-5 -1.35447,-0.0494 -2.22328,-0.1095 l -1.57966,-0.10936 -0.33184,0.63157 c -0.18251,0.34735 -0.50703,0.77897 -0.72115,0.95914 -0.21412,0.18017 -0.38931,0.38371 -0.38931,0.45233 0,0.0686 0.38633,0.72241 0.85851,1.45288 0.47218,0.73048 1.02096,1.59723 1.2195,1.92612 0.28581,0.47344 0.46348,0.6172 0.85316,0.69031 1.04884,0.19676 1.79296,1.51194 1.4684,2.59525 -0.33297,1.11136 -1.46195,1.85784 -2.44314,1.61541 -0.58466,-0.14445 -1.25266,-0.80845 -1.41323,-1.40475 -0.1679,-0.62354 -0.008,-1.56942 0.36156,-2.13991 0.1786,-0.27565 0.17175,-0.364 -0.064,-0.82417 -0.14521,-0.28349 -0.46191,-0.76268 -0.70378,-1.06488 -0.24188,-0.30219 -0.61386,-0.89311 -0.82663,-1.31315 -0.54697,-1.0798 -0.61316,-1.11618 -1.53501,-0.84361 -0.63634,0.18815 -0.78742,0.29136 -0.84153,0.57491 -0.0842,0.44112 -1.47546,4.14929 -1.8351,4.89106 l -0.27247,0.56197 0.33208,0.39956 c 1.28889,1.55082 0.81688,3.7717 -0.95934,4.51385 -0.68126,0.28465 -1.44824,0.26821 -2.03077,-0.0435 z m -4.66815,-7.66356 c -0.65451,-0.26128 -1.23626,-1.14625 -1.23626,-1.88062 0,-0.36989 0.10613,-0.56654 0.48555,-0.89967 0.73039,-0.6413 1.51602,-0.56438 2.36841,0.23188 0.92394,0.86308 0.39389,2.44569 -0.86221,2.57437 -0.3022,0.031 -0.64217,0.0193 -0.75549,-0.026 z m -9.233219,-0.78539 c -0.356461,-0.0983 -0.989091,-0.40514 -1.405845,-0.68185 -0.875391,-0.58123 -1.634991,-0.65631 -2.904938,-0.28713 -1.044514,0.30365 -1.40087,0.18231 -0.563603,-0.19191 0.36233,-0.16194 0.856832,-0.44292 1.098894,-0.6244 0.242062,-0.18147 0.910144,-0.54514 1.484627,-0.80815 0.574484,-0.263 1.523161,-0.79377 2.108173,-1.17949 1.289698,-0.85033 1.840859,-0.98992 2.344478,-0.59377 0.691119,0.54364 0.942098,0.99456 0.999418,1.79563 0.04942,0.69071 0.0087,0.83609 -0.4049,1.4449 -0.790392,1.16349 -1.528112,1.46491 -2.756304,1.12617 z m -11.617005,-8.83777 c -0.985198,-1.39052 -2.293735,-3.54461 -3.528547,-5.80864 -3.131371,-5.74136 -4.807502,-12.77682 -4.344257,-18.234764 0.293384,-3.456651 0.863551,-6.029106 2.018906,-9.108816 1.459521,-3.89049 3.176831,-6.662309 6.046753,-9.759742 2.952637,-3.186705 6.458882,-5.885383 10.78136,-8.298167 2.201917,-1.229098 9.720569,-4.997273 11.867749,-5.94784 3.86707,-1.71197 6.00801,-2.877607 9.27192,-5.0481 4.21631,-2.803839 6.77661,-5.496839 9.50661,-9.999341 0.89471,-1.475623 1.17738,-2.096581 1.70884,-3.753947 0.51378,-1.602259 0.69539,-2.008134 0.94015,-2.101193 0.16685,-0.06344 1.02213,-0.1596 1.90062,-0.213698 1.59553,-0.09825 1.5978,-0.09795 2.08944,0.277037 0.73557,0.561048 0.82469,0.929935 0.4646,1.922997 -0.46467,1.281496 -2.34188,4.95443 -3.53359,6.913826 -1.43119,2.353127 -2.63184,3.879159 -4.62327,5.876189 -4.31155,4.32368 -8.88438,7.161769 -19.78574,12.279856 -4.596327,2.157931 -7.971546,3.93839 -10.027408,5.289549 -0.831038,0.546177 -2.040971,1.338655 -2.688741,1.761062 -1.344924,0.877019 -4.850647,4.36732 -6.23977,6.212321 -1.877818,2.494075 -3.226542,5.143203 -4.113272,8.079179 -0.670928,2.221455 -0.889161,3.699559 -0.986761,6.683382 -0.126337,3.86235 0.251532,6.16405 1.797179,10.94706 0.852765,2.63889 2.218968,5.26743 5.041286,9.69932 0.519921,0.81643 0.959596,1.53422 0.977057,1.59507 0.01746,0.0609 -0.586382,0.43437 -1.341872,0.83002 -0.755489,0.39565 -1.570068,0.83915 -1.810174,0.98556 l -0.436558,0.2662 z m 42.470954,-0.64384 c -0.3546,-0.3546 -0.46703,-0.58367 -0.46703,-0.95156 0,-0.67788 0.54694,-1.10789 1.2841,-1.00958 1.17525,0.15675 1.61813,1.35536 0.76579,2.07256 -0.57708,0.48557 -1.01682,0.45462 -1.58286,-0.11142 z m -36.494861,-1.16816 c -0.358331,-0.60661 -0.296479,-1.22328 0.194919,-1.94339 0.800634,-1.17327 1.664765,-1.49991 2.546204,-0.96245 0.490197,0.2989 1.246978,1.47657 1.059428,1.64864 -0.230188,0.21119 -3.166518,1.65614 -3.365493,1.65614 -0.10967,0 -0.305446,-0.17953 -0.435058,-0.39894 z m -2.693109,-5.8367 c -0.950182,-0.52664 -1.297964,-2.29352 -0.641576,-3.25948 0.864824,-1.27271 2.441427,-1.23875 3.442823,0.0742 l 0.375618,0.49246 h 2.376323 2.376324 l 0.288092,-0.46615 c 0.299384,-0.48441 1.004228,-0.90747 1.511908,-0.90747 0.459145,0 1.281758,0.47944 1.626221,0.9478 l 0.313176,0.42582 h 2.04511 2.045111 l 0.30587,-0.49492 c 0.35733,-0.57816 1.00928,-1.01482 1.51626,-1.01555 0.50599,-7.3e-4 1.23284,0.53163 1.59902,1.17112 0.34559,0.60357 0.3183,0.98526 -0.11387,1.59218 -0.28231,0.39647 -1.77459,1.21968 -2.21099,1.21968 -0.14072,0 -0.52409,-0.24725 -0.85193,-0.54945 l -0.59608,-0.54945 h -1.730694 -1.730692 l -0.531134,0.53647 c -1.024604,1.0349 -2.381663,1.01834 -3.265607,-0.0398 l -0.472232,-0.56532 -2.262978,0.0407 -2.262977,0.0407 -0.224085,0.47222 c -0.321091,0.67665 -0.95916,1.02706 -1.859391,1.02113 -0.406602,-0.003 -0.887031,-0.0868 -1.06762,-0.18685 z m -2.324843,-7.7738 c -1.761386,-0.4169 -2.0975,-3.00143 -0.517336,-3.97802 0.868687,-0.53688 1.901317,-0.30188 2.646614,0.60229 l 0.393667,0.47759 2.314774,0.0186 2.314773,0.0186 0.215113,-0.44416 c 0.139799,-0.28865 0.413689,-0.532 0.782287,-0.69505 0.768949,-0.34014 1.3839,-0.16368 2.067855,0.59338 l 0.517481,0.57279 2.208937,-0.0298 c 1.596837,-0.0215 2.22433,-0.0763 2.264487,-0.19777 0.03055,-0.0924 0.285985,-0.39976 0.567627,-0.68307 0.380088,-0.38234 0.625959,-0.51511 0.953903,-0.51511 0.640551,0 1.318031,0.36779 1.801191,0.97783 l 0.42226,0.53315 2.63267,-0.002 2.63267,-0.002 0.31337,-0.4837 c 0.93011,-1.4357 2.61604,-1.32561 3.40029,0.22204 0.44363,0.87545 0.42701,1.32061 -0.0777,2.08265 -0.90136,1.36079 -2.75742,1.42359 -3.42458,0.11586 l -0.2856,-0.55983 h -2.59078 -2.59078 l -0.35734,0.4685 c -0.44618,0.58497 -1.39441,0.97394 -2.066764,0.84781 -0.328581,-0.0616 -0.634168,-0.26988 -0.967458,-0.65925 -0.267944,-0.31303 -0.48717,-0.61984 -0.48717,-0.68179 0,-0.062 -0.946474,-0.11264 -2.103275,-0.11264 H 93.550739 L 93.24,105.36505 c -0.463381,0.62676 -1.086817,0.95222 -1.825152,0.95281 -0.700823,5.6e-4 -1.261834,-0.35198 -1.617412,-1.01638 l -0.190911,-0.35673 h -2.243257 c -1.350016,0 -2.243257,0.0528 -2.243257,0.13259 0,0.25532 -0.892712,1.14633 -1.332719,1.33017 -0.48827,0.20402 -0.466454,0.20304 -1.114425,0.0497 z m 55.182133,-0.86434 c -0.3316,-0.25459 -0.49632,-0.64573 -0.6022,-1.42994 -0.13347,-0.98858 -0.0285,-1.20466 0.74709,-1.53833 0.79209,-0.34074 1.11917,-0.35957 1.6328,-0.094 0.65166,0.33699 0.84064,1.03348 0.5573,2.05393 -0.22974,0.82742 -0.67193,1.18522 -1.45833,1.18001 -0.36229,-0.002 -0.75679,-0.0797 -0.87666,-0.17171 z M 82.853503,98.414907 c -0.664417,-0.228457 -1.101876,-0.70451 -1.32174,-1.438349 -0.32857,-1.096669 0.439767,-2.394413 1.628486,-2.750562 0.515612,-0.154481 0.628528,-0.139974 1.2294,0.157953 0.363903,0.180432 0.785267,0.522032 0.936365,0.75911 l 0.274723,0.431052 2.266468,0.08624 c 1.246558,0.04743 2.525013,0.108099 2.841011,0.13482 0.518669,0.04386 0.589875,0.01157 0.732194,-0.332018 0.605244,-1.46119 3.027618,-1.538959 3.625757,-0.116403 l 0.171535,0.407961 2.736411,0.0033 c 2.625947,0.0032 2.742447,-0.0081 2.885967,-0.280022 0.8012,-1.517877 2.6576,-1.657656 3.60271,-0.271269 l 0.31823,0.466808 2.89807,0.06868 2.89807,0.06868 0.39303,-0.639148 c 0.388,-0.630946 0.51099,-0.724814 1.2351,-0.942567 0.43942,-0.132144 1.30631,0.06688 1.69618,0.389414 0.56152,0.464536 0.75127,0.889686 0.75127,1.683317 0,2.220996 -2.6008,3.152167 -3.80654,1.362869 l -0.38299,-0.568347 -1.99175,0.06333 c -1.09546,0.03483 -2.34799,0.02039 -2.7834,-0.03208 -0.7333,-0.08838 -0.80736,-0.07144 -1.00468,0.229707 -0.11717,0.178813 -0.49932,0.506678 -0.84924,0.728588 -1.16595,0.739427 -2.44092,0.496499 -2.99253,-0.570187 l -0.20682,-0.399957 h -2.711136 c -2.649327,0 -2.714225,0.0068 -2.846727,0.298289 -0.329283,0.724379 -1.595252,1.192206 -2.538714,0.938158 -0.464562,-0.125094 -0.793076,-0.405645 -1.305646,-1.115024 -0.11096,-0.153564 -0.669527,-0.181987 -2.906025,-0.147876 l -2.768663,0.04223 -0.08296,0.330526 C 85.382939,97.828613 84.477062,98.411398 83.815032,98.53 83.588385,98.5706 83.155696,98.51881 82.8535,98.414899 Z M 65.926378,96.637463 c -0.469993,-0.204319 -0.934548,-0.840464 -1.072527,-1.468679 -0.05646,-0.257048 0.0355,-0.642836 0.286612,-1.202382 l 0.369743,-0.823896 -0.355587,-1.893802 c -0.195572,-1.041592 -0.396563,-2.141054 -0.446645,-2.44325 -0.131208,-0.791717 -0.26527,-0.983002 -0.757997,-1.081547 -0.240973,-0.04819 -0.705776,-0.30694 -1.032895,-0.57499 l -0.594762,-0.487363 -0.31126,0.291914 c -0.171193,0.160552 -0.758521,0.575894 -1.305173,0.922981 -0.863118,0.548022 -1.005408,0.695862 -1.081268,1.123441 -0.18484,1.041846 -1.073805,1.935261 -1.924522,1.934157 -0.531657,-6.89e-4 -1.227386,-0.443965 -1.488096,-0.948122 -0.466535,-0.902178 -0.137548,-2.359274 0.624801,-2.767271 0.416664,-0.222992 1.279387,-0.190695 1.796455,0.06725 0.236609,0.118036 0.471651,0.214611 0.522316,0.214611 0.05067,0 0.546533,-0.33997 1.101929,-0.755489 0.555397,-0.41552 1.09045,-0.75549 1.189009,-0.75549 0.136023,0 0.171859,-0.289581 0.14874,-1.201915 -0.02314,-0.913282 0.03236,-1.360941 0.231131,-1.864127 l 0.261589,-0.662213 -1.567703,-1.599694 c -0.862236,-0.879833 -1.575636,-1.619984 -1.585334,-1.644782 -0.0097,-0.0248 -0.300227,0.02607 -0.645622,0.113044 -0.541919,0.136457 -0.699281,0.123185 -1.14813,-0.09684 -1.471219,-0.721174 -1.557201,-2.761049 -0.159996,-3.795786 0.438783,-0.324952 1.296348,-0.344141 1.880473,-0.04208 0.896539,0.463618 1.264681,1.372056 0.98178,2.422671 l -0.161709,0.600539 0.665631,0.613653 c 0.366097,0.337509 1.134188,1.055337 1.706869,1.595173 l 1.041237,0.981519 0.469741,-0.260081 c 0.377359,-0.208932 0.675396,-0.249426 1.515448,-0.205901 l 1.045707,0.05418 0.409734,-0.628661 c 0.746255,-1.144992 1.951907,-3.118194 2.030672,-3.323453 0.04264,-0.111119 -0.01693,-0.469759 -0.13238,-0.796977 -0.442692,-1.254722 -0.195103,-2.410716 0.668848,-3.122858 l 0.500801,-0.412802 -0.295144,-1.225264 c -0.162329,-0.673896 -0.400167,-1.843393 -0.52853,-2.598882 L 68.546978,67.51439 67.807237,67.2741 c -0.888926,-0.288749 -1.860396,-1.179222 -2.056476,-1.885015 -0.20278,-0.729911 -0.163245,-2.008999 0.07986,-2.583745 l 0.216013,-0.510695 -0.525076,-0.411695 c -0.288792,-0.226432 -0.89154,-0.768444 -1.33944,-1.204471 -0.786335,-0.765489 -0.829759,-0.787695 -1.261655,-0.645156 -1.426055,0.47064 -2.758454,-1.03944 -2.237046,-2.535366 0.475715,-1.364833 2.197747,-1.58751 3.282851,-0.424506 0.295717,0.316945 0.33917,0.480322 0.312914,1.17649 l -0.03049,0.808432 0.717299,0.669144 c 0.394515,0.368029 0.968938,0.892494 1.276496,1.165477 l 0.559196,0.496334 0.677059,-0.348521 c 0.557604,-0.28703 0.810352,-0.336854 1.432549,-0.282397 0.415519,0.03637 0.844778,0.08783 0.953909,0.11437 0.121491,0.02954 0.361143,-0.23474 0.618127,-0.681654 0.23084,-0.401446 0.949653,-1.541275 1.597364,-2.532955 l 1.177655,-1.803053 -0.353159,-0.626364 c -0.464687,-0.824168 -0.487902,-2.140077 -0.05225,-2.961513 0.856248,-1.614476 2.71762,-2.241083 4.198535,-1.413384 l 0.625189,0.349426 0.447352,-0.597051 c 0.246043,-0.328378 0.808157,-0.850142 1.249142,-1.159475 0.73813,-0.517769 0.801792,-0.603866 0.801792,-1.084367 0,-1.474996 2.122478,-1.842785 2.697163,-0.467371 0.241548,0.578105 0.157042,1.074236 -0.275335,1.616489 -0.332364,0.416825 -0.872456,0.525275 -1.601586,0.321598 -0.27689,-0.07735 -0.374394,-0.0366 -0.480766,0.200928 -0.132779,0.29649 -1.661133,1.66644 -1.976347,1.771511 -0.122738,0.04091 -0.110343,0.160541 0.04812,0.464444 0.117393,0.225135 0.213822,0.723083 0.214287,1.106551 l 8.47e-4,0.697214 1.339276,0.519466 c 2.447142,0.949174 4.297929,1.51671 4.488416,1.376352 0.85991,-0.633614 0.984155,-0.680309 1.804122,-0.678053 0.710021,0.002 0.92314,0.06314 1.347599,0.386891 0.277308,0.211514 0.598031,0.52778 0.712718,0.702814 0.238994,0.364751 0.314008,1.316129 0.153833,1.951004 -0.10801,0.428112 -0.09519,0.441882 1.100631,1.182021 2.173424,1.345214 3.127229,1.987938 3.493178,2.353887 0.321742,0.321742 0.378945,0.336992 0.539302,0.143773 0.268508,-0.323532 0.891932,-0.610181 1.325806,-0.609602 0.597801,7.99e-4 1.237918,0.47725 1.653515,1.230743 0.353082,0.640151 0.585434,0.864431 0.585434,0.565099 0,-0.170992 0.722836,-0.38185 1.680419,-0.490194 0.433162,-0.04901 1.127011,-0.208413 1.541891,-0.354231 1.28921,-0.453121 2.15998,-0.31257 2.59173,0.418334 0.219,0.370738 0.21596,0.392806 -0.0803,0.583047 -0.16936,0.108749 -0.74062,0.371121 -1.26946,0.58305 -0.77803,0.311787 -1.24169,0.397736 -2.42952,0.45036 -1.429403,0.06333 -1.477154,0.05586 -1.816959,-0.283941 l -0.348976,-0.348976 -0.434803,0.815774 c -0.7029,1.318776 -1.746313,1.718529 -2.74471,1.051556 -0.662872,-0.442827 -0.947017,-1.090875 -0.947389,-2.160708 -2.94e-4,-0.847281 -0.01726,-0.893827 -0.332338,-0.911959 -0.182616,-0.01051 -0.691288,-0.183581 -1.130382,-0.384605 -0.863603,-0.39537 -3.322282,-1.98506 -3.614211,-2.336812 -0.143321,-0.172691 -0.219948,-0.182471 -0.381193,-0.04865 -0.222654,0.184787 -1.73041,0.238431 -2.168045,0.07714 -0.29367,-0.108235 -0.421227,0.03038 -2.283986,2.482004 l -0.775485,1.020635 0.206196,0.493497 c 0.270901,0.648357 0.175564,1.833957 -0.186465,2.318855 -0.537646,0.720119 -0.966148,0.930157 -1.89254,0.927664 -1.170452,-0.0031 -1.886394,-0.459461 -2.22743,-1.41967 l -0.238381,-0.671178 -1.025079,-0.08665 c -0.563793,-0.04766 -1.849183,-0.08665 -2.856422,-0.08665 H 72.34996 l -0.333453,0.652468 c -0.38392,0.751218 -1.080089,1.464101 -1.633512,1.672731 -0.368533,0.138931 -0.379612,0.170975 -0.299732,0.866936 0.04562,0.39747 0.241313,1.567227 0.434873,2.599459 l 0.351927,1.876786 0.496007,0.09305 c 0.642818,0.120593 1.467052,0.977424 1.671844,1.737964 0.283019,1.051053 -0.309579,2.449649 -1.242308,2.931982 -0.218989,0.113244 -0.725749,0.208515 -1.126133,0.211712 -0.824741,0.0066 -0.703999,-0.120758 -2.143425,2.260655 -0.410985,0.67994 -0.874087,1.375334 -1.029116,1.545319 l -0.281871,0.309064 0.283515,0.309063 c 0.155934,0.169986 0.439388,0.620717 0.6299,1.001627 l 0.346385,0.692562 2.106938,-0.259163 c 1.158816,-0.14254 2.121456,-0.272972 2.139201,-0.289848 0.01774,-0.01688 -0.09446,-0.273718 -0.249344,-0.57076 -0.573108,-1.099126 -0.03987,-2.39446 0.985702,-2.39446 0.225444,0 0.652202,0.123614 0.948351,0.274698 0.419678,0.214104 0.575272,0.39759 0.705369,0.831814 0.149114,0.4977 0.13311,0.633209 -0.150069,1.270621 -0.174341,0.392428 -0.34645,0.914397 -0.382465,1.159931 l -0.06548,0.446425 h -0.820122 c -0.451067,0 -1.541481,0.09111 -2.423142,0.202464 -0.881661,0.111355 -1.874698,0.219527 -2.20675,0.240383 -0.579888,0.03642 -0.610388,0.06057 -0.77233,0.611518 -0.09273,0.315479 -0.307151,0.797779 -0.476491,1.071778 -0.169341,0.273999 -0.285388,0.517566 -0.257883,0.541259 0.813926,0.701139 2.781132,2.274337 3.584162,2.866297 1.311834,0.96703 1.43902,1.285723 0.783165,1.962393 -0.360123,0.371553 -0.565149,0.470887 -0.971912,0.470887 -0.603925,0 -0.971363,-0.408203 -1.48373,-1.64834 -0.504471,-1.221027 -1.723376,-2.76495 -2.298131,-2.910923 -0.137695,-0.03497 -0.45793,-0.0089 -0.711635,0.05783 l -0.461281,0.121413 0.09232,0.782053 c 0.09581,0.811645 0.748651,4.151592 0.840763,4.301375 0.02885,0.0469 0.230539,0.120899 0.44821,0.164433 0.964888,0.192977 1.639713,1.253426 1.463048,2.299094 -0.218724,1.294616 -1.63571,1.993194 -2.914944,1.437075 z m 12.81875,-33.382092 c 0.06325,-0.251987 -0.142165,-0.85003 -0.766668,-2.232127 -0.469182,-1.038355 -1.072388,-2.397874 -1.340456,-3.021152 l -0.487396,-1.133234 h -0.723829 c -0.398106,0 -0.812312,-0.03396 -0.920458,-0.07545 -0.136394,-0.05234 -0.576757,0.505221 -1.43748,1.820042 -0.682467,1.042523 -1.365547,2.143679 -1.517954,2.447012 l -0.277104,0.551515 0.328752,0.382196 c 0.180813,0.210208 0.365261,0.549248 0.409885,0.753421 0.154641,0.707547 0.181748,0.739042 0.573182,0.665961 0.207822,-0.0388 1.274143,-0.02269 2.369603,0.0358 3.713118,0.198248 3.6912,0.19937 3.789923,-0.193975 z m 3.223593,-1.578854 c 1.075166,-1.368418 2.098018,-2.47251 2.290581,-2.47251 0.153693,0 0.149091,-0.0576 -0.02439,-0.305288 -0.117607,-0.167908 -0.213832,-0.560869 -0.213832,-0.873248 0,-0.567212 -0.001,-0.568331 -0.789829,-0.84951 -0.434407,-0.154852 -1.655209,-0.599135 -2.712894,-0.987295 -1.057685,-0.38816 -1.95397,-0.716728 -1.991745,-0.730152 -0.08236,-0.02927 -0.961532,0.848464 -0.961532,0.959956 0,0.09091 1.582829,3.8153 2.176243,5.120686 l 0.40588,0.892851 h 0.613967 c 0.580678,0 0.646151,-0.04096 1.207554,-0.75549 z M 59.433332,95.232686 c -0.485251,-0.178424 -0.686808,-0.500553 -0.686808,-1.097658 0,-0.746403 0.454201,-1.277404 1.092649,-1.277404 0.620619,0 0.967776,0.421068 0.967776,1.173819 0,0.934641 -0.621212,1.477898 -1.373617,1.201243 z m 68.138738,-3.121721 c -0.09,-0.108468 -0.34817,-0.237736 -0.57367,-0.287263 -0.84286,-0.185123 -1.60672,-1.181184 -1.50294,-1.959807 0.013,-0.0978 -0.10938,-0.393155 -0.27205,-0.656347 -0.39255,-0.635158 -0.28361,-0.753917 1.44819,-1.578848 1.60129,-0.762757 2.50866,-1.040117 2.71796,-0.830812 0.22792,0.227917 -0.10073,0.502516 -1.10984,0.927323 -0.50656,0.213247 -0.94163,0.435368 -0.96681,0.4936 -0.0252,0.05823 -0.19517,0.105877 -0.37775,0.105877 -0.18257,0 -0.33195,0.04672 -0.33195,0.10383 0,0.05711 -0.18544,0.185913 -0.41209,0.286237 -0.52101,0.230621 -0.54348,0.674995 -0.0572,1.131308 0.40612,0.381105 1.84292,2.227724 1.84292,2.368574 0,0.161798 -0.23422,0.101805 -0.40475,-0.103672 z M 85.412153,90.362298 c -1.018686,-0.504234 -1.395131,-1.776826 -0.844739,-2.855684 0.457814,-0.897389 1.421247,-1.37508 2.35826,-1.169278 0.244864,0.05378 0.686225,0.356392 1.018608,0.698389 l 0.586521,0.603486 2.837284,0.01962 2.837284,0.01962 0.258402,-0.424908 c 0.723598,-1.189862 2.269733,-1.241422 3.264142,-0.108853 l 0.395555,0.450511 2.77665,0.07728 c 2.3823,0.06631 2.80011,0.04765 2.94186,-0.131338 0.53465,-0.675089 0.9388,-0.996554 1.44268,-1.14752 0.48629,-0.145697 0.65801,-0.135724 1.19515,0.06941 0.35542,0.135734 0.78897,0.442223 1.00039,0.707192 l 0.37313,0.467639 2.56628,4e-6 c 2.42643,3e-6 2.57092,-0.01464 2.65155,-0.268687 0.0469,-0.14778 0.27216,-0.425937 0.50056,-0.618127 0.59784,-0.503049 1.70745,-0.498091 2.31167,0.01033 0.8074,0.679384 1.04059,1.617009 0.64038,2.574859 -0.56981,1.36373 -2.50249,1.577412 -3.35432,0.370861 l -0.3711,-0.525629 -2.40383,-0.06224 -2.40383,-0.06224 -0.50959,0.576434 c -0.65622,0.742273 -1.14537,0.939605 -2.12728,0.858177 -0.68086,-0.05646 -0.83062,-0.124084 -1.16688,-0.52687 -0.21218,-0.254151 -0.38578,-0.541695 -0.38578,-0.638985 0,-0.132301 -0.34087,-0.176891 -1.35225,-0.176891 -0.74373,0 -1.99544,-0.03922 -2.78157,-0.08716 l -1.429326,-0.08716 -0.343404,0.521239 c -0.428461,0.650342 -1.122533,1.026705 -1.893402,1.026705 -0.804569,0 -1.346104,-0.310957 -1.679447,-0.964362 L 94.042898,89.011506 H 91.301983 88.561069 L 88.36455,89.38925 c -0.269167,0.517388 -0.750655,0.927641 -1.307672,1.114207 -0.663333,0.222174 -0.962603,0.196491 -1.644725,-0.14115 z m 4.355884,-7.741663 c -0.484846,-0.263331 -0.867173,-1.254001 -0.741822,-1.92218 0.137196,-0.731316 1.253243,-1.851724 1.844517,-1.851724 0.541237,0 1.143483,0.296062 1.484732,0.729889 0.240677,0.305972 0.366363,0.328144 2.345854,0.413823 l 2.091553,0.09053 0.195992,-0.469075 c 0.517103,-1.237603 2.16291,-1.354919 3.135667,-0.223516 l 0.44863,0.521804 1.96152,0.06162 1.96152,0.06162 0.29184,-0.472201 c 0.2878,-0.465669 1.15943,-0.980116 1.67092,-0.986192 0.45636,-0.0054 1.16108,0.42092 1.48705,0.899637 l 0.31941,0.469086 1.85438,7e-5 1.85438,7e-5 0.23235,-0.40835 c 0.72031,-1.265933 2.35007,-1.187867 3.02978,0.145128 0.72299,1.417875 -0.20763,2.918044 -1.81135,2.91991 -0.54287,6.31e-4 -0.66528,-0.06198 -1.11756,-0.571632 l -0.5079,-0.57234 h -1.74193 -1.74192 l -0.44056,0.467129 c -0.9216,0.97718 -2.39631,0.947893 -3.06386,-0.06085 l -0.35977,-0.543643 h -1.88673 -1.88674 l -0.60504,0.605038 c -0.474275,0.474278 -0.740123,0.625296 -1.230103,0.698773 -0.863645,0.129511 -1.559612,-0.174771 -1.865131,-0.815451 l -0.232882,-0.48836 h -2.078225 -2.078224 l -0.220997,0.463436 c -0.145993,0.306151 -0.425752,0.562556 -0.824299,0.75549 -0.697594,0.337699 -1.257246,0.363701 -1.775052,0.08247 z M 63.617792,78.259083 c -0.494712,-0.425534 -0.533602,-1.257184 -0.07611,-1.627637 0.432981,-0.350607 0.999493,-0.325367 1.362175,0.06069 0.348443,0.370901 0.378529,0.777546 0.0977,1.320599 -0.330412,0.638947 -0.824984,0.726993 -1.383769,0.246347 z m 44.603788,-3.201598 c -0.17106,-0.119813 -0.46704,-0.465003 -0.65774,-0.767088 l -0.34672,-0.549246 -1.54479,0.04594 c -1.44849,0.04307 -1.57247,0.06926 -1.98895,0.42007 -0.55179,0.464797 -1.37738,0.697266 -2.03687,0.573545 -0.60249,-0.113029 -1.51256,-0.887569 -1.35066,-1.149523 0.0603,-0.09754 0.64184,-0.431993 1.29235,-0.743236 l 1.18275,-0.565896 2.31192,-0.04352 2.31192,-0.04352 0.57267,-0.596743 c 0.97061,-1.011391 2.14327,-0.950127 3.12064,0.163034 1.11039,1.26466 -0.0669,3.474031 -1.8512,3.474031 -0.42069,0 -0.82955,-0.08772 -1.01532,-0.217841 z M 75.809939,73.413154 c -0.679541,-0.475969 -0.19082,-1.57187 0.700981,-1.57187 0.517082,0 1.054157,0.464699 1.054157,0.9121 0,0.699635 -1.105122,1.115059 -1.755138,0.65977 z M 62.074655,70.650455 c -0.26492,-0.10659 -0.580897,-0.803444 -0.580897,-1.281104 0,-0.48555 0.474991,-1.041075 1.003588,-1.173744 0.694361,-0.174274 1.606284,0.649852 1.606284,1.451634 0,0.160661 -0.180683,0.472795 -0.401519,0.69363 -0.310421,0.310421 -0.520785,0.399059 -0.927191,0.390675 -0.28912,-0.006 -0.604239,-0.04246 -0.700265,-0.08109 z m 21.041832,-0.974722 c -0.573965,-0.388483 -0.479694,-1.158 0.198303,-1.618711 0.600589,-0.408111 0.763136,-0.417102 1.118372,-0.06187 0.599182,0.599181 0.112009,1.787662 -0.731118,1.783599 -0.240051,-0.0012 -0.503552,-0.04752 -0.585557,-0.103022 z m 21.325693,-6.854535 c -0.19688,-0.19688 -0.0752,-0.730999 0.25633,-1.124972 0.48297,-0.573976 1.10918,-0.76209 1.79208,-0.538342 0.70096,0.229663 0.78236,0.592571 0.15914,0.709488 -0.25403,0.04766 -0.79799,0.300785 -1.2088,0.562508 -0.79949,0.509356 -0.85784,0.53222 -0.99875,0.391318 z M 93.634254,57.987792 c -0.646679,-0.344107 -1.091635,-1.150794 -1.094491,-1.984266 -0.0028,-0.804588 0.257863,-1.339929 0.885304,-1.818502 0.958314,-0.730941 2.120771,-0.510545 2.809876,0.532737 l 0.332077,0.502756 h 2.308608 2.308612 l 0.20624,-0.398824 c 0.44475,-0.860055 1.71486,-1.228481 2.61573,-0.758752 0.22609,0.117891 0.58602,0.426574 0.79983,0.685962 l 0.38874,0.471614 h 2.44762 2.44762 l 0.0824,-0.3281 c 0.13355,-0.532133 0.97872,-1.182879 1.53628,-1.182879 0.73915,0 1.38441,0.338466 1.80561,0.947119 0.37707,0.544881 0.39679,0.553766 1.27584,0.574899 0.49107,0.01181 1.07128,0.06051 1.28936,0.108234 l 0.39652,0.08677 -0.63383,0.583787 c -0.54968,0.506287 -0.71583,0.583787 -1.2515,0.583787 -0.5346,0 -0.64409,0.0508 -0.81418,0.377745 -0.38531,0.740629 -0.85257,1.04291 -1.70771,1.104765 -0.71357,0.05161 -0.84119,0.0182 -1.25258,-0.327965 -0.25194,-0.21199 -0.53316,-0.564033 -0.62495,-0.782319 l -0.16687,-0.396884 -2.38678,0.01824 -2.38678,0.01824 -0.39378,0.477716 c -0.52081,0.631838 -1.04082,0.884071 -1.8226,0.884071 -0.57402,0 -0.70521,-0.06265 -1.22255,-0.583787 -0.31874,-0.321083 -0.60422,-0.660103 -0.63439,-0.753377 -0.0421,-0.130224 -0.57574,-0.149035 -2.298755,-0.08104 -2.108051,0.08319 -2.250511,0.10593 -2.353342,0.375633 -0.178451,0.46804 -0.82686,1.02913 -1.360624,1.177392 -0.705717,0.196026 -0.985898,0.175014 -1.530505,-0.11478 z m 23.616486,-7.701927 c -0.60468,-0.190546 -1.02234,-0.534732 -1.34455,-1.108036 l -0.3095,-0.550674 -2.91015,0.0053 -2.91014,0.0053 -0.27473,0.436009 c -0.91511,1.452357 -2.84212,1.530981 -3.7891,0.154599 l -0.41363,-0.601191 -4.35463,0.0011 -4.354637,0.0011 -0.304973,0.534156 c -0.352404,0.617228 -1.235475,1.112069 -1.98455,1.112069 -1.026969,0 -2.03737,-1.198877 -2.03737,-2.417412 0,-0.716448 0.674871,-1.769678 1.373617,-2.143721 0.858481,-0.45955 1.859778,-0.09441 2.550428,0.930053 l 0.402848,0.597559 4.358877,0.04012 4.35887,0.04012 0.15577,-0.376261 c 0.37257,-0.899929 1.66486,-1.638225 2.50042,-1.428513 0.54719,0.137336 1.25231,0.693963 1.52966,1.207521 l 0.26631,0.493135 2.69451,-0.07013 c 1.92193,-0.05002 2.78096,-0.02387 2.99603,0.09123 0.26356,0.141057 0.30151,0.126909 0.30151,-0.112407 0,-0.427597 0.95391,-1.331264 1.61283,-1.527887 0.50988,-0.152149 0.65219,-0.142475 1.14,0.07749 0.51171,0.230748 1.09452,0.779519 1.4367,1.352779 0.0908,0.152076 0.41689,0.264087 0.96154,0.330263 l 0.82417,0.100138 0.0438,0.535465 c 0.0541,0.660316 -0.1057,0.773605 -0.94997,0.673613 -0.63635,-0.07537 -0.65319,-0.06721 -1.08101,0.523382 -0.69074,0.95353 -1.62762,1.365258 -2.48899,1.093824 z" /></g></svg>
