<?xml version="1.0" encoding="UTF-8" standalone="no"?>
<!-- Created with Inkscape (http://www.inkscape.org/) -->

<svg
   width="24mm"
   height="24mm"
   viewBox="0 0 24 24"
   version="1.1"
   id="svg770"
   xml:space="preserve"
   inkscape:export-filename="bitmap.png"
   inkscape:export-xdpi="200"
   inkscape:export-ydpi="200"
   inkscape:version="1.2.2 (b0a8486541, 2022-12-01)"
   sodipodi:docname="LinkedDataHub.svg"
   xmlns:inkscape="http://www.inkscape.org/namespaces/inkscape"
   xmlns:sodipodi="http://sodipodi.sourceforge.net/DTD/sodipodi-0.dtd"
   xmlns="http://www.w3.org/2000/svg"
   xmlns:svg="http://www.w3.org/2000/svg"><sodipodi:namedview
     id="namedview772"
     pagecolor="#ffffff"
     bordercolor="#666666"
     borderopacity="1.0"
     inkscape:showpageshadow="2"
     inkscape:pageopacity="0.0"
     inkscape:pagecheckerboard="0"
     inkscape:deskcolor="#d1d1d1"
     inkscape:document-units="mm"
     showgrid="false"
     inkscape:zoom="3.3638608"
     inkscape:cx="28.389998"
     inkscape:cy="79.818998"
     inkscape:window-width="1920"
     inkscape:window-height="991"
     inkscape:window-x="1920"
     inkscape:window-y="65"
     inkscape:window-maximized="1"
     inkscape:current-layer="layer1" /><defs
     id="defs767" /><g
     inkscape:label="Layer 1"
     inkscape:groupmode="layer"
     id="layer1"
     transform="translate(-11.829362,-9.4851381)"><path
       id="path1703"
       style="color:#000000;fill:#161616;-inkscape-stroke:none"
       d="m 18.056641,10.09375 c -1.244685,0.06301 -2.176823,1.048126 -2.613282,2.082031 l -0.0078,0.01953 -0.0059,0.01953 c -0.614908,2.28085 -0.06379,4.578353 -0.248047,6.732422 v 0.0098 0.0098 c -0.01793,0.860519 -0.624812,1.609615 -1.410157,1.980469 l -0.002,0.002 h -0.002 c -1.33699,0.827979 -0.912923,0.747655 0.376954,1.486331 0.156115,0.09434 0.271688,0.197107 0.28711,0.222656 l 0.02539,0.04297 0.03516,0.03125 c 0.728943,0.63464 0.763493,1.685178 0.701171,2.701172 l -0.002,0.01953 0.002,0.01953 c 0.107116,1.600248 -0.29065,3.302996 0.09375,5.035156 0.250603,1.441435 1.537698,2.452084 2.916016,2.636719 l 0.08203,-0.611328 c -1.135302,-0.152081 -2.200161,-0.999647 -2.394531,-2.134766 l -0.002,-0.0078 v -0.0078 c -0.34548,-1.544916 0.02493,-3.199657 -0.08203,-4.912109 0.06379,-1.039983 0.04616,-2.322841 -0.890625,-3.167969 -0.125302,-0.177858 -0.285712,-0.294545 -0.451172,-0.394531 -0.181134,-0.109457 -0.367552,-0.206791 -0.490235,-0.289062 -0.02737,-0.01835 -0.03507,-0.02732 -0.05469,-0.04297 0.03141,-0.02248 0.04983,-0.03977 0.115234,-0.07227 l 0.0039,-0.002 c 0.961838,-0.455709 1.734148,-1.385731 1.757812,-2.521484 0.190407,-2.274182 -0.326927,-4.510413 0.224609,-6.583985 0.371012,-0.863225 1.146054,-1.640907 2.066407,-1.6875 z m 11.75,-0.0078 -0.107422,0.607421 c 0.659829,0.116057 1.3578,0.425594 1.853515,0.876954 0.495716,0.451359 0.79266,1.018647 0.730469,1.726562 l -0.002,0.02148 0.002,0.02149 c 0.116349,2.217012 -0.632926,4.725454 0.460938,7.023437 v 0.002 l 0.002,0.002 c 0.135995,0.273265 0.36679,0.464746 0.599609,0.646485 0.232819,0.181739 0.475739,0.348769 0.640625,0.492187 0.164887,0.143418 0.197228,0.247945 0.199219,0.220703 9.95e-4,-0.01362 0.01429,-0.01545 -0.03125,0.02539 -0.04554,0.04084 -0.147956,0.105436 -0.314453,0.173828 l -0.01563,0.0078 -0.01367,0.0078 c -0.713742,0.386529 -1.129359,1.012992 -1.34375,1.6875 -0.214191,0.673879 -0.245189,1.401247 -0.222656,2.06836 2.1e-5,6.22e-4 -2.2e-5,0.0013 0,0.002 -0.05004,1.841412 0.216054,3.663317 -0.181641,5.359375 -0.375009,0.890108 -1.369883,1.434159 -2.345703,1.548828 l 0.07227,0.611328 c 1.15394,-0.1356 2.373355,-0.765218 2.855469,-1.9375 l 0.0078,-0.02344 0.0059,-0.02148 c 0.44732,-1.86612 0.152442,-3.755831 0.203125,-5.539062 v -0.0098 -0.0098 c -0.02146,-0.632368 0.01145,-1.297112 0.191406,-1.863281 0.179956,-0.566169 0.489452,-1.028041 1.050782,-1.332031 l -0.0293,0.01367 c 1.549057,-0.777144 0.728558,-0.974968 0.316406,-1.455091 -0.208674,-0.181505 -0.455436,-0.349294 -0.666016,-0.513672 -0.209143,-0.163258 -0.373828,-0.327529 -0.425781,-0.429688 v -0.002 c -0.961529,-2.022197 -0.288651,-4.390711 -0.402344,-6.74414 0.08028,-0.913786 -0.32612,-1.688547 -0.927734,-2.236329 C 31.36721,10.567452 30.574887,10.22105 29.806715,10.085938 Z M 19.779049,29.515009 c -1.166899,-0.253707 -0.718782,-2.221346 0.382018,-2.202825 1.187046,-0.09225 1.41493,1.61636 0.507493,2.152223 -0.256183,0.188081 -0.613574,0.210763 -0.889511,0.0506 z m 3.126264,-3.931494 c -2.263732,-0.780421 -2.528412,-4.52125 -0.323649,-5.532268 1.407707,-0.617042 2.818336,0.786499 2.994862,2.130641 0.361278,1.538055 -0.741629,3.454423 -2.428367,3.432238 l -0.121489,-0.01072 z m 5.770266,-1.689137 c -1.152629,-0.234504 -0.825588,-2.079134 0.205476,-2.269395 1.345146,-0.239141 1.515921,1.91213 0.346165,2.254296 -0.177029,0.06706 -0.372704,0.07731 -0.551641,0.0151 z m -9.221396,-5.995637 c -0.999028,-0.694375 0.169737,-2.361875 1.208669,-1.955252 1.046864,0.420591 0.611074,2.013946 -0.40211,2.148022 -0.278573,0.0605 -0.593759,0.0071 -0.806559,-0.19277 z m 8.860874,-2.414545 c -1.117953,-0.544707 -0.337105,-2.380116 0.786255,-2.308153 1.292252,-0.01533 1.40501,1.913984 0.34797,2.39743 -0.351014,0.211943 -0.823734,0.183223 -1.134225,-0.08928 z"
       sodipodi:nodetypes="cccccccccccccccccccccccccsccccccccccsccccccsssscccssccccccccccscccscccsccsccssccccccsccssccccccccc" /></g></svg>
