<?xml version="1.0" encoding="UTF-8" standalone="no"?>
<!-- Created with Inkscape (http://www.inkscape.org/) -->

<svg
   version="1.1"
   id="svg1"
   width="24"
   height="24"
   viewBox="0 0 24 24"
   xmlns="http://www.w3.org/2000/svg"
   xmlns:svg="http://www.w3.org/2000/svg">
  <defs
     id="defs1" />
  <g
     id="g1">
    <path
       style="fill:#000000;stroke-width:1.04835"
       d="m 17.564011,23.870869 c -0.189844,-0.241346 -0.12028,-0.566505 0.198993,-0.930136 0.09246,-0.105313 0.160142,-0.213692 0.150392,-0.240844 -0.0098,-0.02715 -0.311964,-0.27772 -0.671584,-0.556819 -0.35962,-0.2791 -0.865706,-0.68625 -1.124632,-0.90478 -1.238181,-1.045002 -1.460271,-1.287227 -1.613757,-1.760065 -0.193029,-0.594659 -0.432582,-2.042708 -0.534784,-3.232654 -0.02502,-0.291348 -0.05416,-0.403511 -0.10191,-0.392313 -0.126328,0.02963 -2.587866,2.731571 -2.763685,3.033603 -0.2192,0.376554 -0.597213,1.349465 -1.1637815,2.995284 -0.2966883,0.86184 -0.583877,1.626852 -0.6381992,1.700026 C 9.1051624,23.846054 8.9711549,23.882322 8.573132,23.779182 8.077196,23.650669 7.176845,23.193505 6.903081,22.931193 6.7179495,22.753805 6.6754988,22.678389 6.6754988,22.526879 c 0,-0.282566 0.1313356,-0.405528 0.4843054,-0.453426 0.1655718,-0.02247 0.4464431,-0.02097 0.6241587,0.0034 0.23211,0.03174 0.3337623,0.02696 0.3609071,-0.01695 0.020783,-0.03363 0.1249977,-0.36932 0.2315872,-0.745983 0.288196,-1.018418 0.7743259,-2.461444 0.9824934,-2.916432 0.3190319,-0.6973 0.6953974,-1.181553 2.3301154,-2.998059 0.690296,-0.767061 0.887215,-1.016993 0.866452,-1.099718 -0.01478,-0.05888 0.03193,-0.400731 0.103808,-0.759671 0.112744,-0.563066 0.240138,-1.606008 0.240705,-1.970588 l 1.79e-4,-0.114878 0.300774,0.103766 c 0.523202,0.180492 1.127699,0.31864 1.426242,0.325942 0.665638,0.01628 0.969738,-0.423164 1.109296,-1.603016 0.09328,-0.7886356 -0.05191,-1.8882388 -0.299173,-2.2655952 -0.121136,-0.1848778 -0.146252,-0.1279193 -0.05617,0.1273924 0.04174,0.1183075 0.100841,0.4388256 0.13133,0.7122624 0.134819,1.2090744 -0.0074,2.2067944 -0.37424,2.6245474 -0.143451,0.163381 -0.181308,0.178307 -0.452278,0.178307 -0.162647,0 -0.495637,-0.05665 -0.739977,-0.125899 -0.55652,-0.157712 -1.235223,-0.368807 -1.428444,-0.444283 -0.227605,-0.08891 -0.258488,-0.07024 -0.159903,0.09665 0.123503,0.209075 0.04401,0.374782 -0.277638,0.578767 -0.383477,0.243194 -0.438214,0.223059 -0.813797,-0.299333 -0.419896,-0.584029 -0.529498,-0.695148 -0.685658,-0.695148 -0.221976,0 -0.6207964,-0.321912 -0.7840067,-0.632818 C 9.6734841,9.9015862 9.6535208,9.81279 9.6793333,9.6146126 9.7064835,9.4061643 9.6939326,9.3602486 9.580734,9.2539042 9.5093938,9.1868832 9.3296857,8.947227 9.181383,8.7213344 8.9648338,8.3914899 8.923942,8.2959197 8.9737044,8.2359597 9.0580587,8.1343191 8.6856573,7.5571812 8.5619194,7.597785 8.516941,7.6125447 8.2805636,7.6978279 8.0366353,7.7873038 7.4380913,8.0068575 6.9747494,8.0150605 6.388304,7.8164856 5.5424198,7.5300636 5.0004012,7.0754574 4.6174459,6.3312173 4.288681,5.6922912 4.217,5.410123 4.217,4.7548839 4.217,3.6338009 4.5741799,2.8925818 5.3728341,2.3562988 5.7784623,2.0839262 6.0966767,1.9827791 6.701653,1.9339223 c 1.2080532,-0.097561 2.18497,0.4874541 2.7865314,1.6686791 0.3240465,0.636297 0.3755902,0.81025 0.4140252,1.397274 0.04113,0.6282008 -0.036238,0.9791948 -0.3447294,1.5639129 L 9.3121413,7.0288071 9.4976889,7.3272159 c 0.1278847,0.2056717 0.2196042,0.2991438 0.2951346,0.3007738 0.1338011,0.00288 0.2018998,0.081216 0.4827045,0.5552178 0.206598,0.3487419 0.235396,0.3749236 0.506327,0.4603271 0.20296,0.063978 0.377636,0.1742173 0.595178,0.3756227 0.169349,0.1567878 0.34007,0.2855796 0.37938,0.286204 0.03931,6.244e-4 0.304908,0.08301 0.590221,0.1830797 0.285311,0.1000692 0.534736,0.1819445 0.554276,0.1819445 0.01954,0 0.05063,-0.2808144 0.06909,-0.6240319 0.04355,-0.8100062 0.156618,-1.1261402 0.539806,-1.509329 0.153809,-0.1538088 0.279653,-0.3251947 0.279653,-0.3808577 0,-0.088147 -0.03881,-0.1014142 -0.300775,-0.1028211 C 12.312943,7.0470347 11.395746,6.6152392 10.754789,5.766297 10.212808,5.0484488 9.9709069,4.0257627 10.151301,3.214927 10.384515,2.1666747 11.056093,1.3000826 11.976337,0.85993292 12.239925,0.73385928 12.555629,0.60408151 12.6779,0.57153803 c 0.122271,-0.0325439 0.222311,-0.0712332 0.222311,-0.0859772 0,-0.0554912 -0.369615,-0.17839433 -0.536499,-0.17839433 -0.09554,0 -0.266039,0.0470772 -0.378899,0.10461687 -0.254587,0.12979558 -0.287697,0.13020559 -0.287697,0.003564 0,-0.17519726 0.298149,-0.33760911 0.662339,-0.36079901 0.179731,-0.01144441 0.397061,0.0036902 0.482954,0.03363314 0.119258,0.04157365 0.21855,0.03449321 0.42009,-0.02995647 0.229003,-0.07323233 0.310727,-0.07552497 0.617748,-0.01732963 0.540781,0.10250444 0.969837,0.31944719 1.164512,0.58881118 0.09012,0.12468552 0.250579,0.27078881 0.356591,0.32467396 0.519981,0.26430396 0.949858,0.80646576 1.189963,1.50078956 0.101869,0.2945698 0.14142,0.5349393 0.162988,0.9905074 0.03432,0.7248406 -0.07839,1.2616457 -0.388484,1.8503817 -0.360996,0.6853594 -1.16908,1.3636826 -1.808208,1.51785 -0.113997,0.027498 -0.143524,0.061552 -0.130771,0.1508216 0.01381,0.096606 0.06278,0.1219385 0.302017,0.1562185 0.783119,0.11221 1.157295,0.765815 1.393424,2.4340142 0.108702,0.7679615 0.157437,3.3052785 0.08274,4.3075675 -0.05212,0.699365 -0.113584,0.93039 -0.306033,1.150379 -0.06491,0.0742 -0.06399,0.223073 0.0069,1.124632 0.08914,1.133125 0.222443,2.471981 0.268827,2.700062 0.03936,0.193509 0.812527,0.95853 1.956319,1.935694 1.388852,1.186523 1.505392,1.294972 1.595386,1.48462 0.07766,0.163667 0.07663,0.190979 -0.01509,0.398042 -0.239444,0.540589 -1.229467,1.291772 -1.760535,1.335812 -0.249394,0.02068 -0.283935,0.0099 -0.386812,-0.120901 z M 11.964706,11.454492 c 0.111017,-0.0899 0.115747,-0.111164 0.05145,-0.231305 -0.03895,-0.07277 -0.168534,-0.243365 -0.287977,-0.379102 l -0.217169,-0.246796 -0.172192,0.08905 c -0.118193,0.06112 -0.157422,0.108527 -0.125094,0.151172 0.0259,0.03418 0.158408,0.209246 0.294455,0.389056 0.136046,0.179811 0.266912,0.326929 0.290813,0.326929 0.0239,0 0.09847,-0.04455 0.165714,-0.099 z m -0.80716,-1.055272 c 0.216019,-0.08184 0.382642,-0.258187 0.382642,-0.4049565 0,-0.2336131 -0.122499,-0.5429454 -0.275667,-0.6961141 -0.15077,-0.1507702 -0.311329,-0.2025957 -0.28665,-0.092525 0.0085,0.037968 -0.111743,0.060788 -0.344566,0.065386 -0.322724,0.00637 -0.369966,0.021392 -0.483854,0.1538273 -0.1506695,0.1752089 -0.156556,0.3044414 -0.02687,0.5899833 0.159122,0.350358 0.646778,0.531479 1.034967,0.384399 z m 3.30001,-0.6274991 c 0.01383,-0.1933104 0.008,-0.6491477 -0.01301,-1.0129722 -0.03217,-0.5577458 -0.04962,-0.6519858 -0.111238,-0.600845 -0.05657,0.046949 -0.07336,0.2394494 -0.07433,0.8519536 -6.87e-4,0.4352146 -0.0218,0.8797631 -0.04689,0.9878856 -0.03713,0.1598871 -0.02957,0.2055821 0.04047,0.2447771 0.122692,0.06867 0.175005,-0.05147 0.205008,-0.4707991 z M 10.33539,8.9232095 C 10.338325,8.8524952 9.80741,8.101131 9.7545057,8.101131 c -0.094641,0 -0.3589657,0.1595279 -0.3589657,0.2166462 0,0.058248 0.306168,0.5056573 0.4819197,0.7042373 0.093065,0.105153 0.1055085,0.1063287 0.2768353,0.026154 0.09866,-0.046171 0.180157,-0.1024028 0.181095,-0.124959 z M 9.3863447,7.8768224 C 9.4536298,7.7957494 9.1653905,7.3165037 9.0493445,7.3165037 c -0.1103107,0 -0.086994,0.1262083 0.071576,0.3874276 0.1564628,0.2577478 0.181477,0.2740414 0.2654242,0.1728911 z M 8.1266859,7.4249627 C 8.779203,7.1370166 9.1921225,6.6937293 9.3947091,6.0636837 9.5003952,5.7349997 9.5116664,5.6212491 9.4847205,5.1552835 9.4452293,4.4723761 9.3038445,4.021654 8.9778798,3.5395194 8.4048061,2.6918858 7.6771945,2.2723727 6.7801158,2.2723727 c -0.5570862,0 -0.888801,0.1082589 -1.3162383,0.4295693 -0.6008222,0.4516463 -0.8807181,1.0869805 -0.8807181,1.9991375 0,0.4781644 0.1182351,1.0742239 0.2749633,1.3861749 0.1333525,0.2654239 0.4688483,0.6910003 0.6870439,0.8715152 0.2197777,0.1818238 0.8344399,0.5185904 1.0440255,0.5720099 0.090623,0.023098 0.411927,0.035968 0.7140085,0.0286 0.440149,-0.010735 0.6037099,-0.037433 0.8234853,-0.1344168 z m -0.9542566,0.00794 C 6.6918918,7.3812332 5.9798465,7.0404159 5.5980475,6.6793264 5.2597256,6.3593556 4.9306452,5.7252831 4.8137691,5.1681785 4.6831159,4.5454029 4.8284743,3.8323401 5.2060163,3.243992 5.6245508,2.5917624 6.5378411,2.2641826 7.3542194,2.4734723 7.8031211,2.5885544 8.099955,2.768157 8.4823066,3.156034 8.7456339,3.4231666 8.834764,3.5644252 9.0168909,4.0032745 9.3211571,4.7364284 9.3805608,5.1614479 9.2639319,5.7707953 9.1649321,6.2880342 9.1034985,6.4375041 8.8422762,6.7966894 8.5272045,7.2299186 7.8135366,7.5018244 7.1724293,7.4328972 Z M 8.12567,7.0100583 C 8.5860373,6.7751436 8.8846355,6.3396949 8.9785369,5.7663136 9.1557534,4.6841951 8.7463468,3.5924579 7.9619919,3.0555609 7.5935221,2.8033406 7.2965768,2.7112491 6.832396,2.7052402 6.3481041,2.6989708 5.9637681,2.8579536 5.611416,3.2103059 5.329339,3.4923829 5.2261007,3.7047385 5.1202446,4.2206194 4.8961774,5.3125917 5.4465116,6.4410384 6.4265874,6.8992433 6.9860512,7.1608038 7.7345787,7.2096231 8.12567,7.0100583 Z m 6.295257,-0.474963 C 15.157115,6.3074751 15.722367,5.7931248 16.120273,4.9887762 16.557016,4.1059226 16.566347,3.1217113 16.146084,2.2659221 15.938668,1.8435536 15.598156,1.401184 15.398,1.2940639 c -0.08452,-0.045233 -0.116596,-0.039991 -0.152967,0.025 -0.06472,0.1156295 -0.183103,0.053904 -0.246738,-0.1286404 -0.07642,-0.21923903 -0.552619,-0.41982629 -0.518052,-0.21822014 0.02792,0.16279404 -0.155934,0.13716544 -0.244489,-0.0340818 -0.07928,-0.1533087 -0.09715,-0.16017833 -0.416597,-0.16017833 -0.307332,0 -0.331611,0.00824 -0.306573,0.10398157 0.04177,0.1597142 -0.122228,0.1930784 -0.239171,0.0486591 -0.09399,-0.11607532 -0.107864,-0.11790228 -0.405269,-0.0533767 -0.905622,0.1964848 -1.57673,0.7615656 -2.087885,1.7580252 l -0.26009,0.5070287 0.001,0.6355613 c 9.6e-4,0.5701137 0.01443,0.6624939 0.130772,0.8971037 0.122278,0.246574 0.147664,0.2665418 0.443552,0.3488964 0.195217,0.054335 0.522797,0.088936 0.866627,0.09154 0.846362,0.00641 1.411307,-0.1731775 1.931877,-0.6141116 0.182508,-0.1545884 0.182764,-0.1554215 0.08196,-0.2669463 -0.09109,-0.100782 -0.09313,-0.1198685 -0.02049,-0.1925067 0.07232,-0.072314 0.100233,-0.072443 0.270623,-0.00125 0.242091,0.1011521 0.452534,0.3106782 0.452534,0.4505628 0,0.1292661 -0.115743,0.1859067 -0.238972,0.1169443 -0.06819,-0.038164 -0.163576,0.00743 -0.417304,0.1994741 -0.704318,0.5330963 -1.827686,0.7596891 -2.715447,0.5477281 -0.171422,-0.040929 -0.321225,-0.064867 -0.332895,-0.053196 -0.04902,0.049024 0.228581,0.410041 0.504464,0.6560423 0.342226,0.3051583 0.699311,0.4932236 1.199831,0.6319129 0.451913,0.125221 1.24029,0.1003742 1.742553,-0.05492 z M 12.493464,3.8752919 c -0.118633,-0.3403118 0.05198,-0.9003923 0.274274,-0.9003923 0.195067,0 0.331592,0.3602156 0.267008,0.704483 -0.04327,0.2306041 -0.154573,0.3416866 -0.342391,0.3416866 -0.11498,0 -0.15943,-0.03258 -0.198891,-0.1457773 z m -1.37567,-0.018484 c -0.07377,-0.1378424 -0.0216,-0.5976683 0.08672,-0.7642152 0.09138,-0.1405115 0.27096,-0.1532927 0.367472,-0.026154 0.09468,0.124718 0.09061,0.5592484 -0.007,0.7479935 -0.100348,0.1940501 -0.353207,0.2180105 -0.447203,0.042376 z m 2.4427,-1.2224514 C 13.448952,2.5359254 13.248872,2.4170177 13.115872,2.3701177 12.682103,2.2171575 12.630164,2.1896352 12.651662,2.124136 c 0.01167,-0.03555 0.09421,-0.071884 0.183414,-0.080745 0.417984,-0.041515 1.032839,0.3095994 1.032839,0.5898053 0,0.2085217 -0.07214,0.208794 -0.307421,0.00116 z m -2.525496,-0.00213 c -0.09836,-0.2563071 0.893625,-0.7980023 1.070676,-0.5846693 0.07914,0.095358 -0.04052,0.208317 -0.313451,0.295899 -0.105922,0.03399 -0.279814,0.1311211 -0.386428,0.2158471 -0.216627,0.1721534 -0.324573,0.1933827 -0.370797,0.072923 z M 14.52177,0.51640073 c -0.04315,-0.0278882 -0.102004,-0.0507065 -0.130771,-0.0507065 -0.02877,0 -0.017,0.0228184 0.02616,0.0507065 0.04316,0.0278882 0.102004,0.0507066 0.130771,0.0507066 0.02877,0 0.017,-0.0228184 -0.02616,-0.0507066 z m -0.755393,-0.1324347 c -0.110182,-0.0833385 -0.424336,-0.10461435 -0.469346,-0.031787 -0.05016,0.0811611 0.03498,0.11193864 0.304983,0.11024933 0.245178,-0.001531 0.257988,-0.007653 0.164363,-0.0784623 z"
       id="path1" />
  </g>
</svg>
