<?xml version="1.0" encoding="UTF-8" standalone="no"?>
<!-- Created with Inkscape (http://www.inkscape.org/) -->

<svg
   version="1.1"
   id="svg1"
   width="24"
   height="24"
   viewBox="0 0 24 24"
   sodipodi:docname="Rummagene.svg"
   inkscape:version="1.3.2 (091e20ef0f, 2023-11-25, custom)"
   xmlns:inkscape="http://www.inkscape.org/namespaces/inkscape"
   xmlns:sodipodi="http://sodipodi.sourceforge.net/DTD/sodipodi-0.dtd"
   xmlns="http://www.w3.org/2000/svg"
   xmlns:svg="http://www.w3.org/2000/svg">
  <defs
     id="defs1" />
  <sodipodi:namedview
     id="namedview1"
     pagecolor="#ffffff"
     bordercolor="#666666"
     borderopacity="1.0"
     inkscape:showpageshadow="2"
     inkscape:pageopacity="0.0"
     inkscape:pagecheckerboard="0"
     inkscape:deskcolor="#d1d1d1"
     inkscape:zoom="9.1630129"
     inkscape:cx="21.28121"
     inkscape:cy="15.60622"
     inkscape:window-width="1920"
     inkscape:window-height="999"
     inkscape:window-x="0"
     inkscape:window-y="0"
     inkscape:window-maximized="0"
     inkscape:current-layer="g1" />
  <g
     inkscape:groupmode="layer"
     inkscape:label="Image"
     id="g1"
     transform="translate(-36.908943,-58.923982)">
    <path
       style="fill:#000000;stroke-width:0.0284093"
       d="m 41.611524,82.022228 c -0.204457,-0.06757 -0.434553,-0.284083 -0.557719,-0.524809 -0.05385,-0.10525 -0.119185,-0.342911 -0.156196,-0.568185 -0.1005,-0.611717 -0.08766,-3.467377 0.02487,-5.53026 0.04747,-0.870307 0.07772,-1.604777 0.06722,-1.632156 -0.01402,-0.03653 -0.219122,-0.06216 -0.770747,-0.09633 -1.847865,-0.114436 -1.736317,-0.102056 -1.945505,-0.215912 -0.220367,-0.119938 -0.379566,-0.317018 -0.50016,-0.619171 -0.07427,-0.18609 -0.08323,-0.273024 -0.0783,-0.759393 0.01154,-1.137682 0.358577,-2.12778 1.143594,-3.262745 0.290185,-0.419545 0.964234,-1.145557 1.291606,-1.391176 0.07292,-0.05471 0.141099,-0.108884 0.151516,-0.12039 0.07295,-0.08058 0.519239,-0.388362 0.738641,-0.509396 0.145835,-0.08045 0.356409,-0.196659 0.467946,-0.258244 0.520087,-0.287166 1.77038,-0.7372 2.221467,-0.799601 0.104168,-0.01441 0.246304,-0.04416 0.315862,-0.06609 0.103974,-0.0328 0.122558,-0.05432 0.104494,-0.121072 -0.12548,-0.463633 -0.11658,-1.499629 0.0178,-2.072018 0.274527,-1.169339 1.000312,-2.21998 2.005042,-2.90248 0.471773,-0.320469 1.263403,-0.641349 1.89617,-0.768592 1.505522,-0.302748 2.937621,0.03971 4.044846,0.967215 0.977879,0.819162 1.485107,2.015923 1.482596,3.498058 -0.0014,0.795436 -0.153284,1.449085 -0.496727,2.136955 -0.553708,1.109005 -1.401974,1.872336 -2.571679,2.314177 -0.201767,0.07622 -0.649936,0.17821 -1.197283,0.272478 -0.05178,0.0089 -0.08907,0.0514 -0.103984,0.118478 -0.01279,0.05751 -0.03457,0.57991 -0.04838,1.160877 -0.02134,0.897159 -0.01713,1.053636 0.02797,1.0386 0.0292,-0.0097 0.179016,-0.161205 0.332907,-0.336599 0.153892,-0.175396 0.494916,-0.556231 0.757832,-0.846302 0.262917,-0.29007 0.516797,-0.579846 0.564177,-0.643944 0.135843,-0.183769 0.470029,-0.514272 0.520004,-0.514272 0.04019,0 0.377929,0.362293 0.448635,0.481253 0.02659,0.04474 -0.111646,0.216218 -0.575734,0.714174 -0.339148,0.363897 -0.932199,1.043835 -0.948081,1.086979 -0.008,0.02163 0.06694,-0.02283 0.166433,-0.0988 0.175937,-0.134338 0.269966,-0.159507 0.529869,-0.141836 0.311517,0.02118 0.514601,0.183759 0.687619,0.550467 0.07439,0.157681 0.08935,0.245347 0.08394,0.491962 l -0.0066,0.300089 0.337218,0.06953 c 0.474068,0.09774 0.65518,0.162835 1.151617,0.413936 0.486377,0.246011 0.878366,0.493301 1.101517,0.694905 0.08179,0.0739 0.161445,0.134363 0.17701,0.13438 0.01556,1.6e-5 0.09623,0.06049 0.179264,0.134387 l 0.150962,0.134359 0.222572,-0.238555 c 0.185824,-0.199172 0.403539,-0.558688 0.403539,-0.666377 0,-0.01537 -0.184051,-0.02163 -0.409002,-0.01393 -0.51331,0.01756 -0.869143,-0.06887 -1.466011,-0.356118 -0.229168,-0.110289 -0.553034,-0.245759 -0.719702,-0.301046 -0.166668,-0.05529 -0.341384,-0.125077 -0.38826,-0.155089 -0.112961,-0.07233 -0.111088,-0.241908 0.0054,-0.492159 0.1539,-0.330519 0.239319,-0.325281 0.989049,0.06063 1.006254,0.517953 1.260937,0.598072 1.673031,0.526309 0.132684,-0.02311 0.278344,-0.07206 0.323692,-0.108774 0.07932,-0.06422 0.08063,-0.07658 0.03487,-0.325047 -0.05966,-0.32374 -0.189522,-0.601277 -0.385596,-0.824027 -0.198746,-0.225789 -0.339947,-0.309476 -0.656133,-0.388879 -0.233631,-0.05867 -0.265317,-0.07803 -0.312503,-0.190963 -0.07987,-0.191155 -0.06445,-0.27526 0.07628,-0.415987 0.16593,-0.165929 0.302601,-0.167878 0.711619,-0.01015 0.261123,0.100699 0.349009,0.159425 0.581048,0.38826 0.281338,0.277451 0.494066,0.628462 0.584568,0.964565 0.05168,0.191929 0.100197,0.187873 0.214678,-0.01794 0.174463,-0.313655 0.238483,-0.741149 0.18418,-1.229844 -0.02764,-0.248758 -0.02727,-0.250159 0.08966,-0.333414 0.149584,-0.106514 0.390314,-0.120212 0.4922,-0.028 0.162871,0.147397 0.204566,0.865731 0.07909,1.3625 -0.105411,0.417308 -0.320565,0.768958 -0.705429,1.152956 -0.305286,0.304601 -0.314943,0.319685 -0.315485,0.492883 -7.59e-4,0.24241 -0.09449,0.622769 -0.211133,0.856796 -0.117542,0.235826 -0.388943,0.52007 -0.587255,0.615042 -0.08093,0.03876 -0.14669,0.079 -0.146117,0.08941 5.74e-4,0.01042 0.09198,0.120088 0.203121,0.243713 l 0.202077,0.224775 0.146826,-0.116204 c 0.08075,-0.06391 0.257624,-0.163904 0.393041,-0.222206 0.29307,-0.126176 0.704978,-0.144291 0.983376,-0.04326 0.09294,0.03374 0.174289,0.05602 0.180781,0.04953 0.04069,-0.04068 0.127321,-0.642672 0.147739,-1.026515 0.0133,-0.250001 0.03798,-0.481515 0.05483,-0.514473 0.01686,-0.03296 0.107583,-0.100737 0.201608,-0.150617 l 0.170956,-0.0907 0.105741,0.07827 c 0.145971,0.108043 0.214142,0.264774 0.212311,0.488122 -0.0064,0.771863 -0.03798,0.919653 -0.264433,1.234867 -0.07334,0.102079 -0.123638,0.185596 -0.111782,0.185596 0.01185,0 0.0048,0.04408 -0.01569,0.09796 -0.02808,0.07384 -0.02571,0.09411 0.0096,0.08235 0.05171,-0.01725 0.0917,0.0092 0.280419,0.185234 0.153689,0.143376 0.16876,0.317256 0.05016,0.578684 -0.08142,0.179458 -0.13872,0.232787 -0.410765,0.382256 -0.161056,0.08849 -0.17561,0.109081 -0.200799,0.284093 -0.01552,0.107836 -0.0122,0.193905 0.0077,0.200859 0.01944,0.0069 0.01517,0.04376 -0.0097,0.08351 -0.06098,0.09765 0.0027,0.150247 0.06757,0.05578 0.02857,-0.04163 0.08716,-0.126836 0.13018,-0.189336 0.280785,-0.407934 0.352862,-0.514458 0.47416,-0.700762 0.286916,-0.440689 0.640713,-1.051266 0.735286,-1.268948 0.155491,-0.357901 0.257867,-0.473645 0.418066,-0.472657 0.07421,4.57e-4 0.207367,0.03372 0.295909,0.0739 0.142513,0.06469 0.160883,0.08741 0.160082,0.198033 -0.0014,0.197658 -0.05908,0.396403 -0.148341,0.51138 -0.151972,0.195757 -0.264044,0.369782 -0.373192,0.579495 -0.05964,0.114583 -0.189473,0.357483 -0.288523,0.539776 -0.09905,0.182294 -0.165422,0.331441 -0.147489,0.331441 0.06282,0 0.498835,-0.475317 0.606918,-0.661627 0.116727,-0.20121 0.184738,-0.237379 0.458226,-0.243694 0.308127,-0.0071 0.550798,0.291941 0.45647,0.562532 -0.03545,0.101663 -0.189016,0.194184 -0.468468,0.282227 -0.04167,0.01313 -0.224988,0.223887 -0.407382,0.468354 -0.412431,0.552795 -0.630951,0.778697 -1.089961,1.126785 -0.36458,0.276477 -0.636069,0.551758 -0.820176,0.831631 -0.145984,0.221921 -0.660229,0.711503 -0.856977,0.815878 l -0.169187,0.08975 -0.373626,-0.125298 c -0.205495,-0.06892 -0.440735,-0.159319 -0.522756,-0.200898 -0.116284,-0.05895 -0.191832,-0.07058 -0.343022,-0.05281 -0.106643,0.01254 -0.248195,0.0072 -0.314561,-0.01182 -0.08924,-0.0256 -0.15136,-0.01929 -0.238538,0.0242 -0.172306,0.08596 -0.228696,0.255319 -0.215671,0.64776 0.0095,0.286425 0.02006,0.330529 0.08186,0.342353 0.03902,0.0074 0.119299,-0.02217 0.178391,-0.06586 0.05909,-0.04369 0.114986,-0.07944 0.124207,-0.07944 0.04499,0 0.09994,0.264817 0.09994,0.481631 0,0.133679 0.01768,0.276075 0.03927,0.316436 0.02159,0.04036 0.04964,0.266882 0.06232,0.503377 0.02206,0.411688 0.0194,0.433645 -0.06274,0.515778 -0.07343,0.07342 -0.110983,0.08234 -0.260629,0.06182 -0.251537,-0.03448 -0.322942,-0.122239 -0.334437,-0.411052 -0.0052,-0.130307 -0.02896,-0.318787 -0.05284,-0.418846 -0.02387,-0.100059 -0.04575,-0.298586 -0.04862,-0.441174 -0.0043,-0.217871 -0.01429,-0.254362 -0.06203,-0.228624 -0.03125,0.01684 -0.158954,0.09231 -0.283785,0.167707 -0.423503,0.255784 -1.453747,0.514021 -1.592221,0.399099 -0.100981,-0.08381 -0.27446,-0.35453 -0.291692,-0.455198 -0.01485,-0.08676 -0.01798,-0.08798 -0.04504,-0.01747 -0.016,0.04167 -0.09003,0.203222 -0.164514,0.359012 -0.259635,0.543029 -0.887083,1.052642 -1.440924,1.170319 -0.479054,0.101787 -1.007962,0.02622 -1.320192,-0.188589 -0.08768,-0.06032 -0.186436,-0.109673 -0.21947,-0.109673 -0.04325,0 -0.05767,-0.03143 -0.05151,-0.112204 0.0054,-0.07083 -0.02098,-0.14416 -0.07153,-0.198866 -0.04404,-0.04766 -0.105224,-0.146319 -0.135963,-0.219237 -0.109161,-0.25916 -0.93885,-1.361191 -1.359169,-1.805417 -0.121496,-0.128407 -0.220901,-0.250463 -0.220901,-0.271237 0,-0.04747 -0.59342,-0.423802 -0.871016,-0.552379 -0.114473,-0.05302 -0.331804,-0.117184 -0.482958,-0.142582 l -0.274825,-0.04618 v -0.255302 c 0,-0.324203 0.04358,-0.440109 0.178206,-0.473897 0.152096,-0.03817 0.65693,0.04456 0.919821,0.15075 l 0.226178,0.09135 -0.07309,-0.09945 c -0.0402,-0.0547 -0.140986,-0.184677 -0.223966,-0.288844 -0.08298,-0.104167 -0.275593,-0.35719 -0.428026,-0.562271 -0.152432,-0.205082 -0.347811,-0.460765 -0.434175,-0.568186 -0.188186,-0.234065 -0.321587,-0.427109 -0.94642,-1.36956 -0.722122,-1.089197 -0.917737,-1.378668 -1.11349,-1.647739 -0.381907,-0.524946 -0.434164,-0.745914 -0.398638,-1.685617 0.03772,-0.997809 0.09122,-1.632599 0.213867,-2.537895 0.09731,-0.718293 0.290101,-1.932397 0.359386,-2.263274 0.01752,-0.08367 0.0082,-0.104121 -0.04749,-0.103932 -0.07478,2.55e-4 -0.792134,0.19958 -0.978396,0.27186 -0.378605,0.146919 -1.28248,0.63216 -1.609667,0.86414 -0.664988,0.471488 -1.497163,1.37022 -1.76966,1.911201 -0.05298,0.105172 -0.129612,0.238415 -0.170302,0.296095 -0.117624,0.166735 -0.392345,0.996863 -0.464333,1.403079 -0.08758,0.494198 -0.07003,0.940085 0.04139,1.051504 0.08327,0.08327 0.206034,0.09908 1.283162,0.165244 0.69746,0.04284 1.324482,0.102194 1.466091,0.138783 0.174314,0.04503 0.346424,0.186414 0.408043,0.335173 0.03809,0.09196 0.02736,0.485881 -0.05754,2.112523 -0.113256,2.169786 -0.15119,5.174452 -0.06925,5.484349 l 0.04007,0.151516 0.04522,-0.170455 c 0.148545,-0.559957 0.406948,-0.824828 0.886771,-0.908973 0.276841,-0.04854 3.298643,0.01381 3.482108,0.07186 0.07747,0.02451 0.193666,0.08899 0.258194,0.143292 l 0.117322,0.09872 -0.01199,0.863918 c -0.0076,0.548452 -0.02681,0.878721 -0.05259,0.904458 -0.06083,0.06072 -1.214411,0.109995 -3.115654,0.133083 -1.417808,0.01722 -1.719238,0.01164 -1.858656,-0.03444 z m 8.843428,-0.766567 c 0.594125,-0.200003 1.094351,-0.819768 1.261273,-1.562685 0.04058,-0.180593 0.09133,-0.140137 -0.480572,-0.382991 -0.447142,-0.18987 -0.979198,-0.529357 -1.318631,-0.841372 l -0.156417,-0.143782 -0.230165,0.173017 c -0.212168,0.159489 -0.227312,0.180518 -0.193692,0.268945 0.02006,0.05276 0.02766,0.110178 0.0169,0.127594 -0.01077,0.01742 0.02544,0.06707 0.08044,0.110338 0.06185,0.04866 0.105466,0.125509 0.114308,0.201449 0.02255,0.193725 0.05185,0.25621 0.120394,0.256834 0.09779,8.88e-4 0.152003,0.04865 0.172244,0.151742 0.01013,0.05164 0.05157,0.162074 0.09207,0.245408 0.103092,0.212132 0.132118,0.408516 0.07795,0.527403 -0.03474,0.07623 -0.03496,0.110099 -9.66e-4,0.144084 0.06353,0.06354 0.05488,0.180791 -0.01333,0.180791 -0.03177,0 -0.07395,0.04262 -0.09376,0.0947 -0.01981,0.05209 -0.0518,0.0947 -0.07112,0.0947 -0.01931,0 -0.05235,0.04944 -0.07342,0.109887 -0.0539,0.154611 0.03723,0.284681 0.17952,0.256223 0.05564,-0.01113 0.125924,-0.0045 0.156194,0.01459 0.07853,0.04967 0.149026,0.04443 0.360789,-0.02686 z m -0.87394,-2.020508 c -0.01288,-0.02083 -0.0054,-0.03787 0.0167,-0.03787 0.02206,0 0.04011,0.01705 0.04011,0.03787 0,0.02083 -0.0075,0.03787 -0.0167,0.03787 -0.0092,0 -0.02724,-0.01705 -0.04011,-0.03787 z m -4.005709,1.984194 0.236744,-0.02052 v -0.262133 -0.262139 h -1.399743 c -1.004552,0 -1.427784,0.01277 -1.499063,0.04526 -0.11785,0.05369 -0.195753,0.191315 -0.230183,0.406631 l -0.02507,0.156804 1.340287,-0.02169 c 0.737158,-0.01193 1.446822,-0.03092 1.577032,-0.0422 z m 7.011246,-0.916842 c 0.0553,-0.03796 0.269246,-0.106962 0.475437,-0.153336 0.448817,-0.100943 0.569116,-0.148395 0.738707,-0.291383 0.156315,-0.131793 0.350606,-0.393107 0.324132,-0.435943 -0.01058,-0.01711 -0.09124,-0.0055 -0.179237,0.02577 -0.346195,0.123101 -0.695388,0.176412 -1.14833,0.175316 l -0.458021,-0.0011 -0.06583,0.289623 c -0.0362,0.159291 -0.07544,0.323579 -0.08722,0.365081 -0.01881,0.06632 -0.01386,0.06921 0.04088,0.02378 0.05291,-0.04391 0.07509,-0.04274 0.14751,0.0078 0.107689,0.07512 0.09387,0.07548 0.21197,-0.0055 z m -2.969643,-0.198326 c -0.0789,-0.0872 -0.130592,-0.09467 -0.130592,-0.0189 0,0.07007 0.164804,0.189558 0.183616,0.133124 0.0074,-0.02236 -0.0164,-0.07376 -0.05303,-0.114229 z m -0.32573,-0.342436 c -0.07068,-0.04391 -0.08902,0.02985 -0.02624,0.105587 0.04666,0.05629 0.05204,0.05576 0.06412,-0.0062 0.0072,-0.0372 -0.0098,-0.08193 -0.03787,-0.09938 z m 0.08149,-0.187914 c 0,-0.0196 -0.01705,-0.03565 -0.03787,-0.03565 -0.02083,0 -0.03788,0.02657 -0.03788,0.05905 0,0.03248 0.01705,0.04852 0.03788,0.03565 0.02083,-0.01288 0.03787,-0.03945 0.03787,-0.05906 z m -0.198451,-0.433373 c 0.0054,-0.08334 -0.007,-0.177085 -0.02746,-0.208336 -0.03319,-0.05051 -0.04858,-0.05051 -0.138496,0 -0.122043,0.06855 -0.167499,0.17757 -0.123419,0.295988 0.02646,0.07108 0.05596,0.0854 0.156058,0.07575 0.114808,-0.01106 0.124122,-0.02248 0.133314,-0.16341 z m 4.270449,-0.394682 c 0.404666,-0.08513 0.619427,-0.170712 0.652238,-0.259929 0.01317,-0.0358 0.06355,-0.10263 0.11199,-0.14851 0.07297,-0.06912 0.08805,-0.122092 0.08805,-0.309173 v -0.225753 l -0.156309,-0.02641 -0.156306,-0.02641 -0.326651,0.326499 c -0.3647,0.364533 -0.513061,0.474489 -0.851789,0.631305 l -0.232442,0.107611 0.265153,0.0013 c 0.145835,6.82e-4 0.418564,-0.03104 0.606065,-0.07047 z m -4.945273,-0.351993 c 0.134284,-0.08128 0.267354,-0.180905 0.29571,-0.22139 0.02836,-0.04048 0.08042,-0.07406 0.115698,-0.07463 0.03528,-5.6e-4 0.1238,-0.0506 0.196717,-0.111195 l 0.132577,-0.110175 -0.116284,-0.125551 c -0.06396,-0.06905 -0.14769,-0.176048 -0.186075,-0.237769 -0.06453,-0.103771 -0.07198,-0.106622 -0.09886,-0.03787 -0.02598,0.06645 -0.02962,0.0643 -0.03425,-0.02036 -0.0028,-0.05208 -0.06292,-0.171404 -0.133483,-0.265153 -0.07057,-0.09375 -0.225358,-0.349435 -0.343978,-0.568186 -0.118618,-0.218752 -0.221596,-0.404747 -0.22884,-0.413324 -0.0072,-0.0085 -0.09652,0.02978 -0.19841,0.08522 -0.101883,0.05545 -0.226473,0.100821 -0.276867,0.100821 -0.128,0 -0.409999,-0.187568 -0.54664,-0.363589 -0.516936,-0.665921 -1.074979,-1.78422 -1.074979,-2.154219 0,-0.223587 0.178409,-0.361 0.4687,-0.361 0.188616,0 0.402518,0.140574 0.402518,0.26453 0,0.293435 0.556897,1.477518 0.695054,1.477833 0.0302,5.7e-5 0.479196,-0.266187 0.479196,-0.284164 0,-0.0045 -0.0488,-0.117209 -0.108438,-0.2503 -0.15369,-0.34296 -0.232572,-0.789503 -0.231915,-1.312835 6.2e-4,-0.493467 0.03393,-0.60377 0.207395,-0.686946 0.08632,-0.04139 0.160341,-0.04509 0.332512,-0.01662 0.121811,0.02014 0.228891,0.02463 0.237957,0.01 0.0091,-0.01466 -0.01814,-0.135035 -0.06045,-0.26748 -0.04232,-0.132446 -0.10307,-0.385698 -0.135013,-0.562783 -0.0719,-0.398563 -0.108273,-1.743297 -0.06437,-2.379492 0.02141,-0.310232 0.01926,-0.476405 -0.0065,-0.495859 -0.02127,-0.01609 -0.157969,-0.04985 -0.303804,-0.07501 -0.797169,-0.137542 -1.514705,-0.443947 -2.131389,-0.910153 -0.282425,-0.213511 -0.798604,-0.719215 -0.928808,-0.909961 -0.07962,-0.116634 -0.09658,-0.09816 -0.141001,0.153531 -0.157996,0.895229 -0.199624,1.167949 -0.282655,1.851773 -0.123511,1.017193 -0.199476,1.884985 -0.23045,2.632593 l -0.02511,0.606065 0.14922,0.287745 c 0.08208,0.15826 0.201454,0.354284 0.265295,0.43561 0.108727,0.138503 0.466288,0.689038 0.768065,1.182587 0.183519,0.300143 0.770219,1.14654 1.01185,1.459739 0.110154,0.142779 0.2003,0.27062 0.200325,0.284093 2.6e-5,0.01347 0.04501,0.07563 0.09997,0.138131 0.08808,0.100161 0.469612,0.597647 0.893187,1.164629 0.161716,0.21647 0.294681,0.542926 0.294681,0.723505 0,0.06815 0.02447,0.157004 0.05439,0.197443 0.06795,0.09188 0.03801,0.382943 -0.05002,0.486235 -0.06525,0.07655 0.177314,-0.04749 0.637514,-0.326042 z m 0.318165,-0.694363 c -0.01233,-0.03215 -0.01397,-0.06692 -0.0037,-0.07726 0.01034,-0.01034 0.02791,0.01596 0.03901,0.05845 0.0236,0.09026 -0.0026,0.104201 -0.03539,0.0188 z m 2.933887,0.603538 c 0.161575,-0.03231 0.212218,-0.17738 0.205807,-0.589524 -0.0029,-0.184687 -0.01402,-0.35001 -0.02475,-0.367387 -0.02238,-0.03621 -0.460684,-0.108293 -0.804097,-0.13224 l -0.232917,-0.01624 -0.114186,0.175986 c -0.0628,0.09679 -0.158275,0.217311 -0.212162,0.267818 -0.05389,0.05051 -0.09798,0.103639 -0.09798,0.118073 0,0.04397 0.437527,0.326582 0.681823,0.440408 0.238104,0.11094 0.410655,0.140669 0.598457,0.103108 z m 1.28482,-0.695152 c 0.07789,-0.09835 0.05489,-0.142201 -0.108915,-0.207746 -0.188504,-0.07542 -0.202375,-0.06111 -0.233996,0.241417 -0.01249,0.119547 -0.03486,0.25004 -0.04967,0.289984 -0.02546,0.0686 0.283974,-0.186507 0.392584,-0.323655 z m 2.226599,0.244007 c 0.125,-0.03018 0.2898,-0.05514 0.366223,-0.05547 0.205607,-8.75e-4 0.258781,-0.03269 0.258781,-0.154828 0,-0.07371 -0.02719,-0.122573 -0.08523,-0.153134 -0.123573,-0.06507 -0.133002,-0.09313 -0.09775,-0.290821 0.08897,-0.499031 0.100043,-0.445246 -0.106236,-0.516392 -0.101349,-0.03495 -0.312111,-0.124241 -0.468362,-0.198414 -0.156252,-0.07418 -0.33753,-0.160153 -0.40284,-0.191068 -0.196037,-0.09279 -0.25222,-0.05746 -0.307945,0.193736 -0.04642,0.209224 -0.04471,0.22812 0.02763,0.305107 0.04241,0.04513 0.07711,0.118788 0.07711,0.163667 0,0.05798 0.01693,0.07511 0.05844,0.05917 0.07073,-0.02714 0.471866,0.09355 0.471866,0.141967 0,0.0189 0.04151,0.03435 0.09223,0.03435 0.160021,0 0.292461,0.06902 0.279477,0.145667 -0.0066,0.03848 0.01068,0.09713 0.03823,0.130317 0.02755,0.03318 0.04459,0.108252 0.03787,0.166803 -0.01004,0.08763 -0.0323,0.10818 -0.125844,0.116191 -0.176993,0.01516 -0.397729,0.08418 -0.397729,0.124366 0,0.04586 0.0092,0.04517 0.284091,-0.02122 z m 0.868119,-0.306327 c 0.03295,-0.01264 0.05992,-0.03661 0.05992,-0.05328 0,-0.03805 -0.145504,-0.002 -0.173282,0.04296 -0.02388,0.03864 0.02737,0.04331 0.113365,0.01031 z m 0.882355,-0.277632 c 0.25802,-0.194315 0.367167,-0.324428 0.337345,-0.402146 -0.01666,-0.04342 -0.111304,-0.05482 -0.45536,-0.05482 H 56.461 l 0.007,0.245861 c 0.0044,0.15601 0.02295,0.24599 0.05064,0.246214 0.024,1.99e-4 0.06223,0.05366 0.08494,0.118804 0.04667,0.133872 0.0086,0.148148 0.409765,-0.153922 z m -7.09142,-0.04029 c 0.01288,-0.02083 0.0068,-0.03788 -0.01361,-0.03788 -0.02037,0 -0.06398,-0.01034 -0.09693,-0.02299 -0.03932,-0.01509 -0.05992,-0.0021 -0.05992,0.03787 0,0.06688 0.132302,0.08473 0.170456,0.023 z m 0.127514,-0.19573 c 0.03274,-0.05213 0.01913,-0.07031 -0.07798,-0.104168 -0.129349,-0.04509 -0.523018,-0.05642 -0.523018,-0.01505 0,0.01429 0.03402,0.06218 0.07561,0.106453 0.098,0.104317 0.462322,0.113167 0.525389,0.01277 z m 3.516048,-0.713367 c 0.120155,-0.466485 0.120373,-0.465378 -0.111341,-0.564836 -0.109375,-0.04695 -0.305384,-0.136941 -0.435573,-0.199986 -0.252231,-0.122143 -0.456271,-0.125827 -0.410833,-0.0074 0.01223,0.03186 0.04774,0.263975 0.07891,0.515808 0.03118,0.251834 0.06673,0.467952 0.07901,0.480262 0.05603,0.05618 0.319136,0.110226 0.508553,0.104471 l 0.208334,-0.0064 z m -1.617033,0.02049 c 0,-0.197768 -0.07588,-0.706247 -0.124579,-0.834886 -0.04272,-0.112842 -0.445102,-0.635927 -0.529127,-0.687856 -0.09113,-0.05632 -0.420838,-0.04621 -0.465055,0.01426 -0.02951,0.04037 -0.08556,0.05338 -0.181665,0.04215 -0.07644,-0.0089 -0.138978,-0.0029 -0.138978,0.01331 0,0.01625 0.06202,0.126491 0.137824,0.244991 0.183094,0.28622 0.297361,0.577847 0.359537,0.917593 0.02811,0.153614 0.06834,0.285851 0.08938,0.29386 0.04469,0.017 0.688944,0.118543 0.786375,0.123936 0.05107,0.0028 0.06629,-0.02643 0.06629,-0.127362 z M 50.19446,75.968603 c -0.02275,-0.16965 -0.301659,-0.749694 -0.405791,-0.843931 -0.05473,-0.04953 -0.08627,-0.0408 -0.286103,0.07918 -0.260822,0.156599 -0.432929,0.310508 -0.432929,0.387155 0,0.02961 0.0824,0.135793 0.183108,0.235975 0.207166,0.206078 0.418553,0.28298 0.816205,0.296931 l 0.147034,0.0052 z m 5.466131,-0.215741 c 0,-0.06186 -0.203162,-0.180535 -0.35723,-0.208668 -0.09856,-0.018 -0.132134,-0.03754 -0.09931,-0.05783 0.06538,-0.0404 0.01685,-0.114872 -0.07484,-0.114872 -0.03981,0 -0.130476,-0.03263 -0.201493,-0.07252 l -0.129122,-0.07252 -0.04248,0.09325 c -0.05687,0.12482 -0.05354,0.146008 0.01415,0.08985 0.04561,-0.03785 0.07484,-0.03507 0.150183,0.01431 0.05146,0.03372 0.123984,0.06155 0.161176,0.06188 0.05627,4.84e-4 0.05829,0.0065 0.01208,0.0357 -0.04512,0.02854 -0.03801,0.04199 0.03788,0.07169 0.05138,0.0201 0.170119,0.07186 0.26387,0.11498 0.186575,0.08582 0.265153,0.0991 0.265153,0.04478 z m 1.459956,-0.421859 c 0.06751,-0.10922 -0.22801,-0.257409 -0.569798,-0.285733 -0.307783,-0.02551 -0.360751,0.0149 -0.236027,0.180068 0.05284,0.06997 0.117058,0.198281 0.142715,0.285142 l 0.04666,0.157926 0.296306,-0.149406 c 0.162967,-0.08217 0.307036,-0.166773 0.320152,-0.187997 z m -3.523416,0.108684 c 0.04095,-0.165865 -0.10114,-0.26896 -0.587325,-0.426133 -0.234639,-0.07585 -0.437304,-0.127229 -0.450367,-0.114166 -0.04252,0.04252 0.114302,0.127012 0.322046,0.173503 0.111749,0.02501 0.292703,0.0991 0.402121,0.164642 0.168056,0.100672 0.200839,0.13871 0.211169,0.24502 0.01346,0.13848 0.06267,0.11787 0.102356,-0.04287 z m 0.697853,-0.35747 c 0.04471,-0.07576 0.07622,-0.160392 0.07003,-0.188057 -0.0062,-0.02766 -0.173182,-0.178892 -0.3711,-0.336059 -0.521364,-0.414019 -1.42583,-0.860623 -1.956721,-0.966182 -0.678591,-0.134927 -0.998114,-0.09335 -1.423906,0.185243 -0.151086,0.09886 -0.295979,0.205697 -0.321985,0.237424 -0.04169,0.05085 -0.02536,0.05423 0.137907,0.02841 0.101854,-0.0161 0.509406,-0.03486 0.90567,-0.04168 0.852371,-0.01467 0.875957,-0.0061 1.02601,0.375298 0.07862,0.199821 0.105904,0.232876 0.208334,0.252447 0.267449,0.0511 1.191904,0.372808 1.367872,0.476017 0.104168,0.06109 0.209018,0.111942 0.233002,0.112992 0.02398,0.0011 0.08018,-0.06008 0.124887,-0.13585 z m 0.956846,-0.229815 c -0.149649,-0.187343 -0.380732,-0.4086 -0.403238,-0.386093 -0.0097,0.0097 0.09451,0.14128 0.231638,0.292354 0.257589,0.283796 0.374381,0.347596 0.1716,0.09374 z m -6.395058,-0.314249 c 0.02529,0 0.110809,-0.0664 0.190052,-0.147547 0.108394,-0.111007 0.137896,-0.167017 0.119124,-0.226162 -0.02301,-0.0725 -0.03581,-0.06648 -0.164798,0.07754 -0.07691,0.08588 -0.170298,0.188281 -0.207517,0.227544 -0.03722,0.03926 -0.05541,0.09124 -0.04041,0.115489 0.02054,0.03324 0.03099,0.03289 0.04241,-0.0014 0.0084,-0.02502 0.03584,-0.04548 0.06114,-0.04548 z m -0.07423,-0.340912 c 0.110454,0 0.25139,-0.09016 0.272519,-0.174352 0.01499,-0.05973 -0.04342,-0.206614 -0.193247,-0.485934 -0.118103,-0.220179 -0.230129,-0.400326 -0.248946,-0.400326 -0.09483,0 -0.09144,0.654933 0.0054,1.038858 0.04016,0.159273 0.05151,0.174518 0.07754,0.104167 0.01677,-0.04532 0.0558,-0.08241 0.08675,-0.08241 z m 5.552282,-0.492427 c 0,-0.02083 -0.01805,-0.03787 -0.04011,-0.03787 -0.02207,0 -0.02958,0.01705 -0.0167,0.03787 0.01288,0.02083 0.03092,0.03788 0.04011,0.03788 0.0092,0 0.0167,-0.01705 0.0167,-0.03788 z m -4.63807,-1.297357 c 0.162574,-0.491508 0.240492,-0.659146 0.42254,-0.909098 0.198004,-0.271857 0.118403,-0.215595 -0.122961,0.08692 -0.30246,0.379076 -0.585784,0.81692 -0.585784,0.905255 0,0.06444 0.110826,0.343073 0.13646,0.343073 0.0048,0 0.07221,-0.191763 0.149745,-0.42614 z m 1.22805,-0.168436 c 0.0553,-0.07031 0.07682,-0.144109 0.06903,-0.236744 -0.01,-0.118947 -0.02675,-0.138412 -0.144036,-0.167409 -0.09639,-0.02383 -0.171567,-0.01659 -0.274623,0.02647 -0.117951,0.04929 -0.141899,0.07793 -0.141899,0.169751 0,0.281511 0.325372,0.419151 0.491521,0.207926 z M 49.52948,68.002307 c 1.099804,-0.203278 1.927198,-0.747986 2.50031,-1.646054 0.294152,-0.460937 0.428351,-0.81152 0.545987,-1.426344 0.135505,-0.708224 0.01446,-1.823084 -0.251915,-2.320069 -0.0398,-0.07427 -0.07237,-0.148654 -0.07237,-0.165297 0,-0.06733 -0.395185,-0.604166 -0.561096,-0.762206 -0.41464,-0.394974 -0.709976,-0.583455 -1.241278,-0.792177 -0.513385,-0.201684 -0.918618,-0.266503 -1.512042,-0.241859 -0.5379,0.02234 -0.842456,0.08902 -1.41282,0.309285 -1.238949,0.478482 -2.123909,1.473879 -2.442376,2.747164 -0.123679,0.49449 -0.113377,1.192675 0.02425,1.643965 0.217738,0.713938 0.539181,1.239868 1.059886,1.73414 0.513852,0.487765 1.304086,0.841223 2.127108,0.951419 0.287767,0.03853 0.947187,0.02148 1.236353,-0.03197 z m -1.160596,-2.549839 c -0.222502,-0.137438 -0.265153,-0.217691 -0.265153,-0.498908 0,-0.28936 0.05866,-0.40378 0.287575,-0.560893 0.246689,-0.169314 0.586364,-0.06413 0.738758,0.228768 0.08535,0.164055 0.06844,0.488902 -0.03336,0.640224 -0.161738,0.240442 -0.502738,0.32984 -0.727821,0.190809 z m 2.443954,-0.677694 c -0.402209,-0.202077 -0.396702,-0.735485 0.0095,-0.919878 0.320188,-0.145348 0.617747,-0.05136 0.760705,0.240261 0.08762,0.178746 0.06065,0.356275 -0.07941,0.522726 -0.182664,0.217083 -0.450099,0.277823 -0.690798,0.156891 z M 54.613685,79.9738 c -0.02911,-0.07586 0.01384,-0.181312 0.0618,-0.151682 0.0502,0.03103 0.04941,0.208501 -9.09e-4,0.208501 -0.02149,0 -0.04888,-0.02557 -0.06088,-0.05682 z"
       id="path1" />
  </g>
</svg>
