<?xml version="1.0" encoding="UTF-8" standalone="no"?>
<svg
   width="24"
   height="24"
   xml:space="preserve"
   overflow="hidden"
   version="1.1"
   id="svg10"
   sodipodi:docname="Variant.svg"
   inkscape:export-filename="../../../../../../../Downloads/Variant.png"
   inkscape:export-xdpi="200"
   inkscape:export-ydpi="200"
   inkscape:version="1.3.2 (091e20ef0f, 2023-11-25, custom)"
   viewBox="0 0 24 24"
   xmlns:inkscape="http://www.inkscape.org/namespaces/inkscape"
   xmlns:sodipodi="http://sodipodi.sourceforge.net/DTD/sodipodi-0.dtd"
   xmlns="http://www.w3.org/2000/svg"
   xmlns:svg="http://www.w3.org/2000/svg"><sodipodi:namedview
     id="namedview10"
     pagecolor="#ffffff"
     bordercolor="#666666"
     borderopacity="1.0"
     inkscape:showpageshadow="2"
     inkscape:pageopacity="0.0"
     inkscape:pagecheckerboard="0"
     inkscape:deskcolor="#d1d1d1"
     inkscape:zoom="23.102534"
     inkscape:cx="12.206453"
     inkscape:cy="14.717"
     inkscape:window-width="1920"
     inkscape:window-height="1011"
     inkscape:window-x="1920"
     inkscape:window-y="45"
     inkscape:window-maximized="1"
     inkscape:current-layer="svg10" /><defs
     id="defs4" /><path
     d="m 0.69213955,16.879373 v -0.769157 l 0.1536842,-0.0053 c 0.36252735,-0.01262 0.69550025,-0.06738 1.03218145,-0.169793 0.051998,-0.01581 0.096396,-0.02876 0.098661,-0.02876 0.00225,0 0.0041,-1.757201 0.0041,-3.904886 V 8.0965362 L 1.8861312,8.0673542 C 1.544456,7.9619396 1.2220026,7.9084573 0.84112585,7.8940254 l -0.144973,-0.0055 -0.00201,-0.7683845 -0.00201,-0.7683883 0.1993784,0.00496 C 2.0873109,6.3864627 3.1521214,6.7730997 4.0668544,7.5097518 4.4024169,7.7799965 4.6889947,8.0626663 5.0151772,8.4451569 L 5.0571532,8.4943796 4.4478904,8.9678683 3.8386269,9.4413569 3.8138052,9.4136149 C 3.6799931,9.264034 3.5942349,9.1706065 3.5600524,9.1372293 l -0.04093,-0.039964 3.671e-4,2.9031727 3.678e-4,2.903177 0.08939,-0.09262 c 0.4338346,-0.449522 0.8652692,-1.058582 1.3423795,-1.895058 0.189892,-0.33292 0.4924091,-0.896174 0.4924091,-0.91681 0,-0.01353 -0.2337337,-0.453331 -0.3825449,-0.719825 -0.1971867,-0.353135 -0.4031829,-0.696699 -0.5792654,-0.96612 -0.042441,-0.06493 -0.07716,-0.120809 -0.07716,-0.124171 0,-0.0061 1.1938473,-0.9370857 1.2077854,-0.9418458 0.02081,-0.00709 0.3813329,0.5666205 0.6762602,1.0761808 l 0.034061,0.05885 0.094754,-0.163555 C 7.1614266,8.9352718 7.8548475,8.0817407 8.6616199,7.4568817 9.4121879,6.8755527 10.276752,6.5190415 11.226829,6.3990966 c 0.419384,-0.052944 0.978774,-0.059417 1.389321,-0.016069 0.316884,0.033465 0.633477,0.093659 0.932364,0.1773043 l 0.07058,0.019745 0.06231,-0.03589 c 0.118941,-0.068501 0.275193,-0.1256525 0.42474,-0.1553421 0.113089,-0.022474 0.381608,-0.020049 0.495322,0.00447 0.279513,0.060232 0.515405,0.1904816 0.704731,0.3891153 0.172575,0.1810601 0.293072,0.4081896 0.342155,0.6449527 0.01728,0.083388 0.03236,0.2174238 0.03236,0.2877823 v 0.046403 l 0.130211,0.1238902 c 0.342917,0.3262797 0.707084,0.7539793 1.034705,1.2152193 0.241417,0.3398738 0.580662,0.8756334 0.771591,1.2185433 0.01675,0.03009 0.0335,0.05366 0.03717,0.05235 0.0038,-0.0011 0.0697,-0.107488 0.146679,-0.235953 0.182602,-0.3047226 0.249865,-0.4111985 0.437557,-0.6926441 0.157984,-0.2369035 0.285103,-0.4177514 0.294115,-0.4184336 0.0039,-2.88e-4 1.108804,0.9375975 1.158383,0.9832387 0.01,0.0092 -0.0012,0.02937 -0.07742,0.141752 -0.250262,0.368453 -0.552541,0.872158 -0.963872,1.606158 -0.06491,0.115836 -0.118024,0.214468 -0.118024,0.219182 0,0.0047 0.07659,0.14733 0.170202,0.316926 0.727519,1.31806 1.153351,1.949722 1.717292,2.547378 l 0.0608,0.06443 2.54e-4,-2.915558 2.5e-4,-2.9155627 -0.05036,0.052353 c -0.0277,0.028803 -0.07243,0.076782 -0.0994,0.1066426 l -0.04904,0.054293 -0.581396,-0.4961445 c -0.319756,-0.272881 -0.580312,-0.4991881 -0.578997,-0.5029021 0.0067,-0.019063 0.310533,-0.3319986 0.433241,-0.4462853 0.286709,-0.2670329 0.502519,-0.4389291 0.789332,-0.6287172 0.646377,-0.4277186 1.340837,-0.6904766 2.114182,-0.7999311 0.267389,-0.037861 0.517769,-0.057435 0.734932,-0.057507 h 0.114768 V 7.123446 7.8926037 h -0.08104 c -0.322096,0 -0.744569,0.065788 -1.096858,0.1708085 l -0.110745,0.033009 v 3.9006658 c 0,3.804893 3.67e-4,3.900863 0.01509,3.908742 0.02426,0.01296 0.261272,0.07823 0.379553,0.104497 0.256501,0.05696 0.594374,0.09708 0.819499,0.09732 h 0.0745 v 0.769161 0.769158 h -0.114768 c -0.133352,0 -0.329595,-0.01125 -0.501366,-0.02865 -1.129558,-0.114388 -2.1025,-0.542225 -2.977477,-1.309297 -0.660898,-0.579401 -1.276556,-1.369345 -1.943516,-2.493722 -0.06109,-0.102989 -0.113532,-0.187257 -0.116534,-0.187257 -0.003,0 -0.05023,0.07702 -0.104967,0.17115 -0.390553,0.671672 -0.762852,1.217311 -1.147154,1.68128 -0.940474,1.135424 -2.008151,1.809403 -3.258718,2.057093 -0.14121,0.02797 -0.371989,0.06335 -0.480913,0.07374 l -0.05839,0.0056 v -0.754125 -0.754093 l -0.05033,-0.0012 c -0.04874,-7.57e-4 -0.04932,-0.0012 -0.01811,-0.008 0.01774,-0.0039 0.09926,-0.01796 0.181215,-0.03138 0.157397,-0.02574 0.341458,-0.06851 0.485253,-0.112775 l 0.08658,-0.02664 V 12.228367 8.5289811 l -0.0531,-0.078689 C 13.167771,8.3498042 13.11032,8.2323074 13.072691,8.1171642 l -0.02968,-0.090839 -0.04026,-0.010422 c -0.193017,-0.050003 -0.506536,-0.09945 -0.730391,-0.1151887 -0.476793,-0.03354 -1.01684,0.02831 -1.47072,0.1683565 l -0.0822,0.025354 v 3.917284 3.917287 l 0.05034,0.01629 c 0.161516,0.05232 0.405275,0.107574 0.61009,0.138307 0.06423,0.0096 0.118296,0.01895 0.120142,0.02069 0.0019,0.0019 -0.03532,0.003 -0.08255,0.003 h -0.08591 v 0.749026 0.749026 h -0.01811 c -0.01,-1.6e-5 -0.09299,-0.01084 -0.184494,-0.0241 C 10.271308,17.457204 9.497273,17.14581 8.8065728,16.646979 8.5004925,16.425929 8.1542667,16.120414 7.9097757,15.855637 l -0.1075291,-0.116455 -0.089793,-0.0054 c -0.268261,-0.01626 -0.49276,-0.09081 -0.7000534,-0.232484 -0.4800913,-0.328114 -0.6934294,-0.926244 -0.5284721,-1.481665 0.012771,-0.04305 0.023234,-0.08214 0.023234,-0.08687 0,-0.0047 -0.041519,-0.0774 -0.092264,-0.161493 l -0.09227,-0.152894 -0.04567,0.07868 c -0.1374459,0.236783 -0.363758,0.609541 -0.4707403,0.775359 -0.765162,1.185946 -1.5404338,1.980575 -2.4320729,2.492796 -0.7420682,0.426297 -1.5781077,0.654223 -2.48668285,0.677936 l -0.1953102,0.0051 z M 7.951888,15.547105 c 0.594548,-0.09404 1.0230133,-0.642698 0.9711187,-1.243537 -0.04581,-0.53045 -0.4403123,-0.961633 -0.9621023,-1.051566 -0.1046265,-0.01804 -0.2884838,-0.01853 -0.3865955,-0.0012 -0.3705144,0.06611 -0.6846214,0.297313 -0.8494757,0.625283 -0.038243,0.07609 -0.077222,0.185112 -0.098036,0.274268 -0.022777,0.09759 -0.029104,0.322694 -0.012012,0.426958 0.082767,0.504174 0.4601488,0.884281 0.9635429,0.9705 0.087296,0.01493 0.276231,0.01451 0.3735503,-7.58e-4 z M 9.1730344,11.998289 V 9.0486909 l -0.065071,0.064242 C 8.9797294,9.2395403 8.8012429,9.4415658 8.6542269,9.6265105 8.2737869,10.105097 7.8850997,10.72429 7.3892357,11.64171 7.3150155,11.779031 7.241219,11.915537 7.2252488,11.945057 l -0.029027,0.05367 0.039598,0.07519 c 0.085025,0.161429 0.3090358,0.568755 0.4247131,0.77227 l 0.1215408,0.213834 0.1014999,0.0099 c 0.2171694,0.02107 0.4023527,0.08265 0.5847393,0.194454 0.2952255,0.180972 0.5238409,0.502807 0.5995208,0.843981 0.046057,0.207634 0.040543,0.442582 -0.015087,0.642262 l -0.015691,0.05638 0.025581,0.0282 c 0.043339,0.04772 0.1056804,0.112755 0.1080906,0.112755 0.00116,0 0.00225,-1.327322 0.00225,-2.949602 z m 5.8149336,2.760333 c 0.401735,-0.439258 0.776851,-0.974487 1.236196,-1.763834 0.194029,-0.33343 0.551878,-0.978842 0.551878,-0.99537 0,-0.01838 -0.273369,-0.525939 -0.461611,-0.857059 C 15.82476,10.281021 15.361681,9.6257562 14.91709,9.1650961 l -0.08939,-0.092624 -3.68e-4,2.9272079 -3.67e-4,2.927208 0.02892,-0.02774 c 0.01592,-0.01527 0.07535,-0.0785 0.132065,-0.140509 z M 14.593399,8.8400444 c 0.219534,-0.051485 0.393534,-0.1447192 0.550158,-0.2947859 0.174833,-0.1675114 0.288403,-0.37161 0.340786,-0.6124322 0.02145,-0.098548 0.02137,-0.3527781 -1.7e-4,-0.455051 C 15.435668,7.2467535 15.328213,7.0481844 15.161467,6.8814346 14.994043,6.7140142 14.806552,6.613515 14.565964,6.5622308 c -0.107889,-0.023005 -0.319302,-0.024937 -0.427699,-0.00394 -0.162111,0.031418 -0.312307,0.091714 -0.437721,0.1757164 -0.0794,0.053176 -0.09624,0.067099 -0.177061,0.1463716 -0.402831,0.3950996 -0.459455,1.0364634 -0.131944,1.4944327 0.192092,0.2686056 0.472144,0.4381256 0.799753,0.4841003 0.02842,0.00398 0.111475,0.00584 0.184566,0.00409 0.104782,-0.00266 0.150779,-0.00735 0.217458,-0.022967 z"
     id="path87" /></svg>
