<?xml version="1.0" encoding="UTF-8" standalone="no"?>
<!-- Generator: Adobe Illustrator 26.3.1, SVG Export Plug-In . SVG Version: 6.00 Build 0)  -->

<svg
   version="1.1"
   id="Layer_1"
   x="0px"
   y="0px"
   viewBox="0 0 370.24701 370.24701"
   xml:space="preserve"
   sodipodi:docname="PWB-logo.svg"
   inkscape:version="1.3.2 (091e20ef0f, 2023-11-25, custom)"
   width="370.24701"
   height="370.24701"
   inkscape:export-filename="PWB-logo.png"
   inkscape:export-xdpi="200"
   inkscape:export-ydpi="200"
   xmlns:inkscape="http://www.inkscape.org/namespaces/inkscape"
   xmlns:sodipodi="http://sodipodi.sourceforge.net/DTD/sodipodi-0.dtd"
   xmlns="http://www.w3.org/2000/svg"
   xmlns:svg="http://www.w3.org/2000/svg"><defs
   id="defs5"><clipPath
     clipPathUnits="userSpaceOnUse"
     id="clipPath1"><path
       style="fill:#000000;stroke:#000000;stroke-width:1px;stroke-linecap:butt;stroke-linejoin:miter;stroke-opacity:1"
       d="m 257.97416,185.93842 20.31777,-32.01589 c 0,0 48.02383,110.20853 45.56107,108.97715 -2.46276,-1.23138 -46.17676,9.85104 -48.63952,-0.61569 -2.46276,-10.46673 -6.1569,-67.11022 -6.1569,-67.11022 z"
       id="path2" /></clipPath><clipPath
     clipPathUnits="userSpaceOnUse"
     id="clipPath4"><path
       style="fill:#000000;stroke:#000000;stroke-width:1px;stroke-linecap:butt;stroke-linejoin:miter;stroke-opacity:1"
       d="m 169.31478,221.03275 22.16485,-1.84707 c 0,0 -1.23138,32.63158 -3.69414,32.63158 -2.46276,0 -19.70209,-5.54121 -19.70209,-5.54121 z"
       id="path8" /></clipPath><clipPath
     clipPathUnits="userSpaceOnUse"
     id="clipPath9"><path
       style="fill:#000000;stroke:#000000;stroke-width:1px;stroke-linecap:butt;stroke-linejoin:miter;stroke-opacity:1"
       d="m 34.478647,261.05261 c 0,0 22.164844,-171.777542 41.251238,-124.98509 19.086394,46.79245 -17.239323,130.5263 -17.239323,130.5263 z"
       id="path10" /></clipPath></defs><sodipodi:namedview
   id="namedview5"
   pagecolor="#ffffff"
   bordercolor="#666666"
   borderopacity="1.0"
   inkscape:showpageshadow="2"
   inkscape:pageopacity="0.0"
   inkscape:pagecheckerboard="0"
   inkscape:deskcolor="#d1d1d1"
   inkscape:zoom="1.8803909"
   inkscape:cx="314.56225"
   inkscape:cy="235.05751"
   inkscape:window-width="1920"
   inkscape:window-height="991"
   inkscape:window-x="1920"
   inkscape:window-y="65"
   inkscape:window-maximized="1"
   inkscape:current-layer="g8" />
<style
   type="text/css"
   id="style1">
	.st0{fill:none;stroke:#010101;stroke-width:12;stroke-miterlimit:11.3386;}
	.st1{fill:none;stroke:#010101;stroke-width:10.7489;stroke-miterlimit:11.3386;}
	.st2{fill:none;stroke:#000000;stroke-width:12.0023;stroke-miterlimit:11.3386;}
	.st3{fill:#010101;}
	.st4{fill:none;stroke:#000000;stroke-width:12;stroke-miterlimit:11.3386;}
	.st5{fill:#FFFFFF;stroke:#000000;stroke-width:12;stroke-miterlimit:11.3386;}
</style>
<path
   style="color:#000000;fill:#010101;stroke-miterlimit:11.3386;-inkscape-stroke:none;stroke:#ffffff"
   d="m 84.17956,149.17223 c -17.928853,33.7373 -43.345137,87.7572 -34.559141,115.85511 l 11.453125,-3.58203 C 54.031865,238.92578 70.706961,195.63107 88.0065,163.07797 Z"
   id="path7583"
   sodipodi:nodetypes="ccccc" />
<path
   style="color:#000000;fill:#010101;stroke-miterlimit:11.3386;-inkscape-stroke:none;stroke:#ffffff"
   d="m 263.46189,174.84121 c 5.85831,5.65765 6.39491,7.29193 11.09475,13.66074 13.45165,18.22849 21.23159,39.47167 16.99219,68.1836 l 11.87109,1.75195 c 4.6874,-31.74603 -4.35892,-56.93707 -19.20898,-77.06055 -5.86768,-7.95135 -7.33459,-9.52458 -14.47156,-16.20999 z"
   id="path7583-9"
   transform="translate(6.1848717)"
   sodipodi:nodetypes="csccscc" />
<path
   style="color:#000000;fill:#010101;stroke-miterlimit:11.3386;-inkscape-stroke:none;stroke:#ffffff"
   d="m 174.62497,222.51819 c 1.35412,17.06393 0.80374,19.76251 0.92972,25.43689 l 10.74609,-0.23828 c -0.14151,-6.37366 -0.60816,-8.26602 -1.90828,-24.64009 z"
   id="path7583-9-6"
   transform="translate(6.1848717)"
   sodipodi:nodetypes="ccccc" />
<path
   style="color:#000000;fill:#000000;stroke-miterlimit:11.3386;-inkscape-stroke:none;stroke:#ffffff"
   d="M 6.1855469,257.29492 V 370.24805 H 113.71875 V 257.29492 Z M 18.1875,269.29687 h 83.5293 v 88.94727 H 18.1875 Z"
   id="rect7420" />
<path
   id="path7076"
   class="st3"
   d="m 48.283758,343.7744 c 0,-6.67514 1.81469,-9.64241 6.53781,-9.64241 10.53504,0 21.79106,-10.38301 23.24772,-21.5066 0.72588,-6.67514 3.6343,-10.38301 8.35251,-11.1236 15.979132,-2.59452 16.342072,-4.44845 2.90351,-17.05323 -14.89031,-13.71812 -19.25049,-14.09087 -19.25049,0 0,7.04298 -1.81469,8.89691 -8.71544,8.89691 -10.17211,0 -24.69948,16.31264 -21.79107,24.10112 1.45176,3.33512 -1.45175,5.5618 -8.3525,6.30239 -10.53505,1.11334 -14.16444,10.38301 -5.08605,13.34537 2.90351,1.11334 3.99723,0 2.90351,-1.85393 -1.08882,-1.85393 0.72588,-3.33512 4.36017,-3.33512 3.26646,0 6.17487,2.96728 6.17487,6.30239 0,3.70787 -1.45175,5.5618 -3.26645,4.44846 -1.81469,-1.11334 -2.90351,0 -1.81469,2.96727 1.08881,2.96728 4.36017,5.5618 7.62662,6.30239 4.35527,1.11825 6.16997,-1.47628 6.16997,-8.15141 z m 0,-25.58231 c 0,-4.44846 1.45176,-5.93455 4.36017,-4.08061 3.26646,1.85393 3.26646,0.74059 -0.36294,-3.33512 -2.54057,-3.33512 -3.63429,-6.67514 -1.81469,-6.67514 15.61619,-2.59452 18.16167,-1.85393 18.52461,4.82121 0.36294,4.44845 -0.72588,5.93454 -3.6343,4.08061 -2.90351,-1.48118 -2.90351,-0.37275 0.36294,3.33512 5.08606,6.30239 2.17764,8.89691 -10.53504,8.89691 -4.36018,0.005 -6.90075,-2.59452 -6.90075,-7.04298 z m 30.14357,-30.77136 c 0,-2.59452 2.17763,-3.70786 5.08605,-2.59452 6.17487,2.59452 6.17487,7.41573 0,7.41573 -2.90351,0 -5.08605,-2.22668 -5.08605,-4.82121 z"
   style="stroke-width:0.490458;stroke:#ffffff" />
<path
   style="color:#000000;fill:#000000;stroke-miterlimit:11.3386;-inkscape-stroke:none;stroke:#ffffff"
   d="M 132.48633,244.54102 V 357.49219 H 240.01758 V 244.54102 Z m 12,12 h 83.53125 v 88.95117 h -83.53125 z"
   id="rect7420-2" />
<path
   id="path7078"
   class="st3"
   d="m 159.01216,324.63033 c -13.53174,-14.60095 -13.53174,-32.40949 0,-47.01534 13.87017,-14.24781 30.79098,-14.24781 44.99956,0.35803 8.4604,8.90182 9.81407,12.82059 8.79882,25.64607 -0.67683,13.53665 0,15.31701 6.76832,16.38621 4.061,0.71117 7.44516,3.56073 7.44516,6.41029 0,6.41029 -3.04575,6.41029 -10.4909,-0.71116 -5.75308,-5.34109 -6.76833,-5.34109 -15.22383,1.78036 -13.20314,11.03532 -30.11905,9.96612 -42.29713,-2.85446 z m 40.93856,-3.91877 c 9.13724,-9.61788 9.13724,-29.55992 0,-39.17781 -14.88541,-15.67014 -43.9843,-3.2076 -43.9843,19.23087 0,23.14964 28.41715,36.32825 43.9843,19.94694 z m -31.80622,-5.69912 c -12.18299,-12.46745 -3.04575,-33.47869 14.54699,-33.47869 5.41466,0 11.50615,2.1384 13.53175,4.98796 6.09149,7.83753 6.42991,24.57687 0.33841,29.55993 -7.10183,6.05225 -22.32566,5.69912 -28.41715,-1.0692 z m 23.68423,-10.68709 c 2.70733,-11.04022 -2.0305,-16.73934 -12.5165,-14.95898 -14.54699,2.1384 -12.85491,24.21883 1.69209,24.21883 6.425,0 9.13233,-2.49152 10.82441,-9.25985 z m -15.56224,-3.20269 c 0,-6.76833 8.79882,-6.76833 11.50615,0 1.35367,3.56073 -0.33842,5.34109 -4.73783,5.34109 -3.72258,0 -6.76832,-2.49153 -6.76832,-5.34109 z"
   style="stroke-width:0.490458;stroke:#ffffff" />
<path
   style="color:#000000;fill:#000000;stroke-miterlimit:11.3386;-inkscape-stroke:none;stroke:#ffffff"
   d="M 256.53125,255.87305 V 368.82422 H 364.0625 V 255.87305 Z m 12,12 h 83.53125 v 88.95117 h -83.53125 z"
   id="rect7420-2-8" />
<path
   id="path7080"
   class="st3"
   d="m 344.55492,281.7167 c 0.57384,2.08936 0.85831,17.90664 0.57384,35.21982 l -0.8583,31.0411 h -32.87052 -32.87052 v -34.32227 -34.32227 l 32.29668,-0.89754 c 24.86624,-0.59836 32.58115,0 33.72882,3.28116 z m -49.448,8.65659 c -5.71875,5.6697 -6.57215,9.25495 -6.57215,29.8493 0,18.80417 0.85831,23.28205 4.28661,23.28205 3.4283,0 4.28661,-4.47788 4.28661,-22.08533 0,-16.11647 1.14276,-23.58124 4.57107,-26.86241 10.28981,-10.74594 24.00793,-2.08935 24.00793,15.22383 0,7.75905 -1.14277,10.14758 -4.00214,8.95577 -4.57107,-1.79017 -11.43258,4.77706 -8.28874,7.75905 0.8583,1.19181 4.2866,2.08935 7.14597,2.08935 3.71768,0 5.14491,2.08935 5.14491,7.45987 0,4.77707 1.71661,7.45987 4.28661,7.45987 3.4283,0 4.2866,-4.47788 4.2866,-22.98287 0,-19.40253 -0.8583,-23.87551 -6.28767,-29.84439 -7.99938,-8.96068 -23.71857,-9.25986 -32.86561,-0.30409 z"
   style="stroke-width:0.490458;stroke:#ffffff" />

<g
   id="g861"
   transform="translate(-271.06101,-201.31195)">
</g>

<g
   id="g8"
   transform="translate(-248.18074,-201.31195)"
   style="fill:none;stroke:#ffffff"><path
     style="color:#000000;fill:#000000;stroke-miterlimit:11.3386;-inkscape-stroke:none;stroke:#ffffff"
     d="m 433.30469,201.3125 c -60.08543,0 -108.58985,51.46847 -108.58985,114.41016 0,62.94168 48.50442,114.41015 108.58985,114.41015 60.08543,0 108.58984,-51.46847 108.58984,-114.41015 0,-62.94169 -48.50441,-114.41016 -108.58984,-114.41016 z m 0,12 c 53.23224,0 96.58984,45.60558 96.58984,102.41016 0,56.80457 -43.3576,102.41015 -96.58984,102.41015 -53.23224,0 -96.58985,-45.60558 -96.58985,-102.41015 0,-56.80458 43.35761,-102.41016 96.58985,-102.41016 z"
     id="path7200" /><g
     id="g7"
     transform="translate(-5.6729616)"
     style="stroke:#ffffff"><path
       style="color:#000000;fill:#000000;-inkscape-stroke:none;stroke:#ffffff"
       d="m 384.91016,249.43555 c -4.03824,0.27347 -7.9801,1.11673 -11.26368,4.03906 l -1.52929,1.36133 -0.42383,2.00195 c -9.63888,45.4866 -1.93072,81.74491 -2.54297,120.60938 l 12.46484,0.19726 c 0.27833,-17.66792 -0.91699,-34.23684 -1.67187,-50.86328 l 35.47656,-17.10742 c 14.77837,-7.12608 22.74203,-15.57773 23.26758,-25.36524 0.52555,-9.7875 -6.32911,-17.33923 -14.22266,-22.75 -7.89354,-5.41077 -17.60627,-9.20216 -26.65039,-11.04297 -4.52206,-0.9204 -8.86606,-1.35355 -12.90429,-1.08007 z m 0.84179,12.4375 c 2.4781,-0.16782 5.8828,0.10764 9.57617,0.85937 7.38676,1.50348 15.96971,4.91556 22.0879,9.10938 6.11818,4.19381 8.99155,8.64601 8.82226,11.79882 -0.16929,3.15282 -3.3239,8.57931 -16.23437,14.80469 l -30.51954,14.71485 c -0.32397,-16.25994 0.38927,-32.88403 3.91407,-50.85352 0.62195,-0.17406 1.32586,-0.364 2.35351,-0.43359 z"
       id="path5" /><path
       style="color:#000000;fill:#000000;-inkscape-stroke:none;stroke:#ffffff"
       d="m 414.44336,313.40039 -7.21289,0.10547 c 0,0 0.29877,21.02461 1.53125,37.04687 0.30812,4.00557 0.67246,7.69949 1.12109,10.74024 0.44864,3.04075 0.72059,5.1826 1.90821,7.32031 0.2969,0.53443 0.66382,1.14303 1.51367,1.74414 0.84984,0.60111 2.49009,0.96229 3.69531,0.56055 2.41045,-0.80348 2.68376,-2.19286 3.19531,-3.35547 1.0231,-2.32522 1.78224,-5.5922 2.71485,-10.87695 0.34524,-1.95641 0.58459,-2.59153 0.89648,-4.08399 0.62646,3.36861 1.22143,6.96628 2.02344,9.80469 0.26648,0.94312 0.54752,1.80714 0.92187,2.63867 0.37436,0.83153 0.73226,1.68577 1.89844,2.58399 0.58309,0.44911 1.48791,0.88697 2.52148,0.91992 1.03358,0.0329 2.00544,-0.35891 2.64258,-0.80469 1.2743,-0.89157 1.71179,-1.82193 2.19336,-2.83789 6.59052,-13.90379 10.94977,-29.97956 12.50781,-48.71875 l -7.18945,-0.59961 c -1.28456,15.44991 -4.62741,28.73569 -9.44922,40.49414 -0.54897,-2.69537 -1.0881,-5.29961 -1.66797,-8.14648 -0.44522,-2.18588 -0.88735,-4.1593 -1.5039,-5.84961 -0.30828,-0.84516 -0.61082,-1.62289 -1.31055,-2.50977 -0.34986,-0.44343 -0.82358,-0.95082 -1.63281,-1.35156 -0.80924,-0.40074 -2.02509,-0.55703 -3,-0.2832 -1.94983,0.54764 -2.56782,1.74486 -3.09375,2.6914 -0.52593,0.94654 -0.91081,1.9745 -1.31445,3.27539 -0.65323,2.10525 -1.34439,5.54863 -2.0625,9.32422 -0.10604,-1.15157 -0.24108,-1.9992 -0.33594,-3.23242 -1.20211,-15.62733 -1.51172,-36.59961 -1.51172,-36.59961 z"
       id="path6" /><path
       style="color:#000000;fill:#000000;-inkscape-stroke:none;stroke:#ffffff"
       d="m 461.22852,251.14844 c -3.00658,-0.2813 -5.08274,1.71781 -5.82422,2.76172 -1.48296,2.08781 -1.50454,3.22067 -1.84766,4.80664 -0.34312,1.58596 -0.62005,3.41017 -0.88086,5.53906 -1.04321,8.51554 -1.76092,21.88405 -2.29101,36.44531 -1.06019,29.12252 -1.32654,61.84209 -1.12696,67.82813 0.16967,5.089 4.15372,8.88602 8.03125,10.59375 3.87753,1.70773 8.25559,2.31187 12.96289,2.37695 9.41461,0.13015 20.08382,-1.99608 28.34571,-6.93164 4.13094,-2.46778 7.81602,-5.766 9.72851,-10.41211 1.91249,-4.64611 1.43981,-10.38309 -1.38086,-15.47461 -4.84829,-8.75156 -15.91507,-17.06525 -35.09765,-26.35156 0.93537,-0.46485 1.35644,-0.70175 2.38671,-1.21485 7.90147,-3.93506 18.22779,-9.17734 26.11719,-15.78515 3.9447,-3.30391 7.3904,-6.96044 9.38672,-11.5586 1.99632,-4.59815 2.00418,-10.47319 -0.84766,-15.38671 -5.44177,-9.37584 -18.26304,-15.90373 -41.92578,-22.43946 -0.23438,-0.55314 -0.42534,-1.08454 -0.84961,-1.73437 -0.6265,-0.95961 -1.88014,-2.78121 -4.88671,-3.0625 z m 2.96875,16.26758 c 22.16039,6.30044 32.37302,13.15401 34.52929,16.86914 1.13812,1.9609 1.07663,2.86216 0.23242,4.80664 -0.8442,1.94447 -3.00922,4.59597 -6.15234,7.22851 -6.28624,5.26508 -16.04626,10.40864 -23.81055,14.27539 -2.85989,1.42428 -5.0154,2.53204 -7.17382,3.66211 0.12293,-4.54381 0.14585,-8.71216 0.30664,-13.1289 0.49532,-13.6062 1.20409,-25.89221 2.06836,-33.71289 z m -2.75391,62.99023 c 21.7342,10.01601 32.38709,18.85228 35.22266,23.9707 1.5087,2.72333 1.35815,3.93362 0.79296,5.30664 -0.56518,1.37303 -2.15641,3.16582 -4.88671,4.79688 -5.46062,3.26211 -14.85675,5.36852 -22.15821,5.26758 -3.65073,-0.0505 -6.79496,-0.67897 -8.38867,-1.38086 -0.73111,-0.322 -0.93429,-0.41621 -1.01953,-0.4375 -0.0817,-2.67787 0.0892,-18.94013 0.4375,-37.52344 z"
       id="path7" /></g></g></svg>
