<?xml version="1.0" encoding="UTF-8" standalone="no"?>
<!-- Created with Inkscape (http://www.inkscape.org/) -->

<svg
   width="191.44841mm"
   height="45.582855mm"
   viewBox="0 0 191.44841 45.582855"
   version="1.1"
   id="svg5"
   inkscape:version="1.1.2 (0a00cf5339, 2022-02-04)"
   sodipodi:docname="scg-logo.svg"
   xmlns:inkscape="http://www.inkscape.org/namespaces/inkscape"
   xmlns:sodipodi="http://sodipodi.sourceforge.net/DTD/sodipodi-0.dtd"
   xmlns="http://www.w3.org/2000/svg"
   xmlns:svg="http://www.w3.org/2000/svg">
  <sodipodi:namedview
     id="namedview7"
     pagecolor="#ffffff"
     bordercolor="#666666"
     borderopacity="1.0"
     inkscape:pageshadow="2"
     inkscape:pageopacity="0.0"
     inkscape:pagecheckerboard="0"
     inkscape:document-units="mm"
     showgrid="false"
     inkscape:zoom="0.76167929"
     inkscape:cx="322.31413"
     inkscape:cy="281.61459"
     inkscape:window-width="1916"
     inkscape:window-height="1005"
     inkscape:window-x="1920"
     inkscape:window-y="43"
     inkscape:window-maximized="1"
     inkscape:current-layer="text2978" />
  <defs
     id="defs2" />
  <g
     inkscape:label="Layer 1"
     inkscape:groupmode="layer"
     id="layer1"
     transform="translate(-7.8765153,-4.6317697)">
    <g
       id="g859"
       transform="translate(1.8241934,-10.62955)">
      <path
         style="fill:none;stroke:#000000;stroke-width:0.649446px;stroke-linecap:butt;stroke-linejoin:miter;stroke-opacity:1"
         d="m 35.211705,24.710666 c 2.685134,-1.668779 4.118016,5.718783 -11.521602,10.195343 -2.336488,0.66878 -9.27701,2.32969 -9.20211,5.75355"
         id="path7583"
         sodipodi:nodetypes="csc" />
      <path
         style="fill:none;stroke:#000000;stroke-width:0.649446px;stroke-linecap:butt;stroke-linejoin:miter;stroke-opacity:1"
         d="m 37.786479,24.032522 c -2.973678,-1.668778 -4.560531,5.718777 12.759689,10.195347 2.58756,0.66878 10.273892,2.32968 10.190945,5.75354"
         id="path7583-9"
         sodipodi:nodetypes="csc" />
      <path
         style="fill:none;stroke:#000000;stroke-width:0.649446px;stroke-linecap:butt;stroke-linejoin:miter;stroke-opacity:1"
         d="m 38.269512,26.27583 c -1.14722,-0.888809 -3.838224,4.676009 0.150732,10.158739 2.564566,3.52494 -3.954779,9.98652 0.40747,11.39097"
         id="path7583-9-6"
         sodipodi:nodetypes="csc" />
    </g>
    <path
       style="fill:none;stroke:#000000;stroke-width:2.76308px;stroke-linecap:butt;stroke-linejoin:miter;stroke-opacity:1"
       d="M 92.754277,16.525451 C 91.856066,6.0969211 84.095879,4.5814469 79.161249,7.3552533 73.932306,10.294498 71.876017,18.049928 84.518726,25.120125 107.99704,38.249933 76.456498,57.023296 75.482421,38.88863"
       id="path970"
       sodipodi:nodetypes="cssc" />
    <path
       style="fill:none;stroke:#000000;stroke-width:3.538px;stroke-linecap:butt;stroke-linejoin:miter;stroke-opacity:1"
       d="m 156.2151,8.6290918 c -12.58383,-6.157116 -20.19428,3.6651452 -20.46592,18.4513832 -0.22453,12.22159 5.35605,22.920048 20.48687,19.81292"
       id="path2417"
       sodipodi:nodetypes="csc" />
    <path
       style="fill:none;stroke:#000000;stroke-width:3.45949px;stroke-linecap:butt;stroke-linejoin:miter;stroke-opacity:1"
       d="M 197.27304,17.195071 C 190.09932,-5.311427 170.73547,10.1178 176.6415,36.468124 c 6.14432,19.198999 23.3939,10.885254 20.17285,-3.498841 l -8.44647,1.805296"
       id="path3201"
       sodipodi:nodetypes="cccc" />
    <g
       id="g837"
       transform="translate(1.8241934,-10.62955)">
      <rect
         style="fill:#ffb7a5;stroke:#3a5278;stroke-width:0.172102;stroke-miterlimit:4;stroke-dasharray:none"
         id="rect7420"
         width="17.210358"
         height="17.210358"
         x="6.1383729"
         y="39.731033" />
      <path
         id="path7076"
         d="m 12.263962,54.808999 c 0,-1.35353 0.375978,-1.9551 1.35352,-1.9551 2.180675,0 4.511739,-2.10547 4.812522,-4.36134 0.150392,-1.35352 0.751956,-2.10548 1.7295,-2.25587 3.308608,-0.52637 3.383803,-0.90235 0.601564,-3.459 -3.08302,-2.78224 -3.985368,-2.85743 -3.985368,0 0,1.42872 -0.375978,1.80469 -1.804695,1.80469 -2.105478,0 -5.113304,3.30861 -4.511739,4.88772 0.300783,0.67677 -0.300782,1.12794 -1.729501,1.27833 -2.180674,0.22558 -2.93263,2.10547 -1.052736,2.70704 0.601565,0.22559 0.827149,0 0.601565,-0.37597 -0.225588,-0.37598 0.15039,-0.67677 0.902346,-0.67677 0.676761,0 1.278326,0.60157 1.278326,1.27833 0,0.75196 -0.300782,1.12794 -0.67676,0.90235 -0.375978,-0.22559 -0.601566,0 -0.375978,0.60156 0.225586,0.60157 0.902347,1.12793 1.579108,1.27833 0.902347,0.22558 1.278326,-0.30078 1.278326,-1.6543 z m 0,-5.18851 c 0,-0.90234 0.300782,-1.20312 0.902347,-0.82715 0.676762,0.37598 0.676762,0.1504 -0.0752,-0.67676 -0.526369,-0.67676 -0.751956,-1.35352 -0.375977,-1.35352 3.233412,-0.52637 3.759781,-0.37598 3.834977,0.97754 0.0752,0.90235 -0.150391,1.20314 -0.751956,0.82715 -0.601565,-0.30078 -0.601565,-0.0752 0.0752,0.67677 1.052739,1.27832 0.451174,1.80469 -2.180673,1.80469 -0.902348,0 -1.428717,-0.52637 -1.428718,-1.42872 z m 6.241238,-6.24124 c 0,-0.52636 0.451174,-0.75195 1.052738,-0.52636 1.278326,0.52636 1.278326,1.50391 0,1.50391 -0.601564,0 -1.052738,-0.45117 -1.052738,-0.97755 z"
         style="stroke-width:0.0751961" />
    </g>
    <g
       id="g841"
       transform="translate(1.8241934,-10.62955)">
      <rect
         style="fill:#ffe4a0;stroke:#3a5278;stroke-width:0.172102;stroke-miterlimit:4;stroke-dasharray:none"
         id="rect7420-2"
         width="17.210358"
         height="17.210358"
         x="30.130228"
         y="43.547768" />
      <path
         id="path7078"
         d="m 32.774795,56.346549 c -2.816142,-2.88655 -2.816142,-6.40671 0,-9.29325 2.886533,-2.81614 6.406705,-2.81614 9.363643,0.0704 1.760086,1.76008 2.0417,2.53452 1.830484,5.06904 -0.140803,2.67533 0,3.02735 1.408067,3.23856 0.844848,0.14081 1.548878,0.70403 1.548878,1.26726 0,1.26727 -0.633633,1.26727 -2.182503,-0.1408 -1.196859,-1.05605 -1.408068,-1.05605 -3.168153,0.35202 -2.74573,2.1825 -6.265895,1.97129 -8.800416,-0.56323 z m 8.518802,-0.77444 c 1.900889,-1.9009 1.900889,-5.84349 0,-7.74438 -3.097747,-3.09774 -9.152434,-0.63363 -9.152434,3.80178 0,4.57623 5.913876,7.18115 9.152434,3.9426 z m -6.617912,-1.12645 c -2.534522,-2.46413 -0.633632,-6.61793 3.027342,-6.61793 1.126454,0 2.393711,0.42242 2.816135,0.98566 1.267257,1.54886 1.337662,4.85782 0.07037,5.84347 -1.478465,1.19687 -4.646619,1.12646 -5.913875,-0.2112 z m 4.928231,-2.11211 c 0.563228,-2.18251 -0.422416,-3.30896 -2.604926,-2.95694 -3.027343,0.42241 -2.675324,4.78742 0.352019,4.78742 1.337662,0 1.900889,-0.49282 2.252907,-1.83048 z m -3.238551,-0.63363 c 0,-1.33767 1.830485,-1.33767 2.393711,0 0.281613,0.70404 -0.07044,1.05605 -0.985643,1.05605 -0.774443,0 -1.408068,-0.49283 -1.408068,-1.05605 z"
         style="stroke-width:0.0704038" />
    </g>
    <g
       id="g845"
       transform="translate(1.8241934,-10.62955)">
      <rect
         style="fill:#ffb3d0;stroke:#3a5278;stroke-width:0.172102;stroke-miterlimit:4;stroke-dasharray:none"
         id="rect7420-2-8"
         width="17.210358"
         height="17.210358"
         x="51.239468"
         y="39.917389" />
      <path
         id="path7080"
         d="m 66.789298,42.569069 c 0.115718,0.40487 0.173506,3.47036 0.115718,6.82504 l -0.173519,6.01531 h -6.651519 -6.651525 v -6.65154 -6.65153 l 6.535839,-0.17352 c 5.032022,-0.11573 6.593686,0 6.825058,0.63624 z m -10.006217,1.67733 c -1.156786,1.09895 -1.330305,1.79303 -1.330305,5.78394 0,3.64389 0.173519,4.51148 0.867594,4.51148 0.694069,0 0.867587,-0.86759 0.867587,-4.28012 0,-3.12333 0.231353,-4.5693 0.925435,-5.20553 2.08222,-2.08223 4.858503,-0.40489 4.858503,2.9498 0,1.50382 -0.231359,1.96654 -0.809742,1.73519 -0.925434,-0.34705 -2.313579,0.92542 -1.677349,1.50381 0.173518,0.23137 0.867601,0.40488 1.44599,0.40488 0.751896,0 1.041101,0.40488 1.041101,1.44599 0,0.92543 0.347038,1.44598 0.867581,1.44598 0.694082,0 0.867601,-0.86759 0.867601,-4.45364 0,-3.75955 -0.173519,-4.62714 -1.272472,-5.78393 -1.619496,-1.73518 -4.800657,-1.79303 -6.651524,-0.0578 z"
         style="stroke-width:0.0578394" />
    </g>
    <g
       id="g849"
       transform="translate(1.8241934,-10.62955)">
      <circle
         style="fill:#b3cfff;stroke:#3a5278;stroke-width:0.135373;stroke-miterlimit:4;stroke-dasharray:none"
         id="path7200"
         cx="35.603954"
         cy="24.707497"
         r="9.0644932" />
      <path
         id="path7082"
         d="m 30.42096,18.612371 h 1.298891 v 1.298891 c 0,0.935202 0.441623,1.695053 1.220958,2.454905 0.558523,0.53904 1.305386,1.058596 2.084721,1.571658 l -1.188486,0.772841 c -0.642951,-0.435129 -1.266419,-0.90273 -1.79247,-1.415792 -0.928707,-0.902729 -1.623614,-2.019776 -1.623614,-3.383612 v -1.298891 m 9.092239,0 h 1.298892 v 1.298891 c 0,1.363836 -0.694907,2.480883 -1.623614,3.383612 -0.915719,0.896235 -2.084721,1.636603 -3.221251,2.357488 -1.13653,0.727379 -2.240588,1.435275 -3.026417,2.195127 -0.779335,0.759851 -1.220958,1.519702 -1.220958,2.4549 v 1.2989 H 30.42096 v -1.2989 c 0,-1.363832 0.694907,-2.480878 1.623614,-3.383608 0.915718,-0.896235 2.084721,-1.636603 3.221251,-2.357488 1.13653,-0.727379 2.240587,-1.435275 3.026417,-2.195126 0.779334,-0.759852 1.220957,-1.519703 1.220957,-2.454905 v -1.298891 m -2.117193,6.890619 c 0.642952,0.435128 1.26642,0.902729 1.792471,1.415791 0.928707,0.90273 1.623614,2.019776 1.623614,3.383608 v 1.2989 h -1.298892 v -1.2989 c 0,-0.935198 -0.441623,-1.695049 -1.220957,-2.4549 -0.558524,-0.53904 -1.305386,-1.058597 -2.084721,-1.571659 l 1.188485,-0.77284 m -5.026709,-6.241174 h 6.494457 v 0.649446 l -0.03897,0.324723 h -6.416523 l -0.03897,-0.324723 v -0.649446 m 0.441623,1.948338 h 5.611211 c -0.155867,0.220811 -0.337712,0.448117 -0.584501,0.688412 l -0.331218,0.285756 H 33.713649 L 33.395421,21.898566 C 33.148632,21.658271 32.966787,21.430965 32.81092,21.210154 m 0.915718,6.819179 h 3.792763 l 0.318229,0.285756 c 0.246789,0.240295 0.428634,0.467601 0.584501,0.688413 H 32.81092 c 0.155867,-0.220812 0.337712,-0.448118 0.584501,-0.688413 l 0.331217,-0.285756 m -1.318374,1.948336 h 6.416523 l 0.03897,0.32472 v 0.64945 h -6.49446 v -0.64945 z"
         style="stroke-width:0.649446" />
    </g>
    <g
       id="g861" />
    <g
       aria-label=" ignature  ommons  raph"
       transform="scale(0.794402,1.2588085)"
       id="text2978"
       style="font-size:8.4074px;line-height:1.25;font-family:'OpenDyslexicMono Nerd Font';-inkscape-font-specification:'OpenDyslexicMono Nerd Font, Normal';stroke-width:0.210185">
      <path
         d="m 119.18407,17.051532 c 0.008,-0.126111 0.0841,-0.201777 0.21019,-0.201777 h 0.35311 c 0.13452,0 0.21018,0.07567 0.21018,0.201777 l 0.0252,0.546481 c 0.008,0.134519 -0.0673,0.210185 -0.20178,0.210185 h -0.42037 c -0.13452,0 -0.20178,-0.07567 -0.20178,-0.210185 z m -0.41196,6.061736 c 0.50444,-1.975739 0.85756,-2.488591 0.26063,-4.2037 -0.042,-0.109296 0.0757,-0.184963 0.21019,-0.184963 h 0.6894 c 0.13452,0 0.227,0.07567 0.20178,0.210185 -0.21019,1.462888 -0.24382,3.194812 0.15133,4.170071 0.0589,0.142925 -0.0588,0.218592 -0.19337,0.218592 h -1.11818 c -0.14293,0 -0.23541,-0.06726 -0.20178,-0.210185 z"
         id="path843" />
      <path
         d="m 127.71759,22.709713 c -0.0841,2.900553 -0.72304,3.55633 -2.1607,3.55633 -0.46241,0 -0.87437,-0.05885 -1.26952,-0.184963 -0.1093,-0.03363 -0.16815,-0.109296 -0.16815,-0.227 v -0.907999 c 0,-0.151333 0.10089,-0.210185 0.24381,-0.142926 0.36152,0.159741 0.71463,0.227 1.07615,0.227 0.7903,0 1.22748,-0.546481 1.42085,-1.832813 0.0505,-0.319481 0.11771,-0.563296 -0.12611,-0.344703 -0.27744,0.252222 -0.68941,0.428777 -1.20226,0.428777 -1.12659,0 -1.88325,-0.933221 -1.88325,-2.354072 0,-1.420851 0.75666,-2.354072 1.88325,-2.354072 0.54648,0 0.96685,0.168148 1.26952,0.521259 0.1177,0.142925 0.227,0.126111 0.24382,-0.05885 l 0.0168,-0.176556 c 0.0168,-0.117703 0.0925,-0.176555 0.21859,-0.176555 h 0.35311 c 0.13452,0 0.20178,0.07567 0.20178,0.210185 z m -1.04252,-1.824406 c 0,-1.10137 -0.47081,-1.723517 -1.28633,-1.723517 -0.80711,0 -1.28633,0.622147 -1.28633,1.723517 0.10929,1.084555 0.42037,1.168629 1.22748,1.168629 0.81551,0 1.34518,-0.08407 1.34518,-1.168629 z"
         id="path845" />
      <path
         d="m 133.95588,23.071231 c 0.008,0.134518 -0.0589,0.210185 -0.20178,0.210185 h -0.65578 c -0.14292,0 -0.21018,-0.07567 -0.20177,-0.210185 l 0.15133,-2.581072 c 0,-0.87437 -0.26063,-1.303147 -0.93322,-1.303147 -0.92481,0 -1.362,0.554888 -1.362,1.45448 l 0.1177,2.429739 c 0,0.134518 -0.0673,0.210185 -0.20177,0.210185 h -0.63056 c -0.13452,0 -0.21018,-0.07567 -0.20178,-0.210185 l 0.1093,-4.228922 c 0.008,-0.126111 0.0757,-0.201778 0.21018,-0.201778 h 0.35312 c 0.13451,0 0.20177,0.07567 0.20177,0.210185 v 0.03363 c 0,0.176555 0.1093,0.226999 0.24382,0.126111 0.32789,-0.227 0.73985,-0.437185 1.24429,-0.437185 1.05093,0 1.589,0.664184 1.64785,1.933702 z"
         id="path847" />
      <path
         d="m 138.00825,18.573272 c -0.43718,0 -0.908,0.08407 -1.39563,0.260629 -0.10929,0.04204 -0.16815,0.117704 -0.16815,0.235407 v 0.176556 c 0,0.151333 0.10089,0.210185 0.24382,0.142926 0.38674,-0.168148 0.80711,-0.26063 1.24429,-0.26063 0.88278,0.05885 1.30315,0.479222 1.30315,1.177036 0,0.05044 -0.0673,0.07567 -0.20178,0.07567 h -0.85755 c -1.37041,0 -2.06822,0.529666 -2.06822,1.563776 0,0.882777 0.60533,1.454481 1.53855,1.454481 0.59693,0 1.03411,-0.168148 1.362,-0.496037 0.13452,-0.134518 0.227,-0.100889 0.227,0.08407 v 0.09248 c 0,0.134519 0.0757,0.201778 0.21019,0.201778 h 0.3447 c 0.13452,0 0.20178,-0.07567 0.20178,-0.201778 v -2.421331 c 0,-1.404036 -0.64737,-2.085035 -1.98415,-2.085035 z m -0.24381,3.674034 c -0.49604,0 -0.86597,-0.03363 -0.99208,-0.386741 -0.0336,-0.09248 -0.0336,-0.15974 -0.0252,-0.243814 0.042,-0.479222 0.36152,-0.681 1.38722,-0.681 h 0.47922 c 0.12611,0 0.20178,0.06726 0.20178,0.193371 -0.008,0.958443 -0.30267,1.118184 -1.05092,1.118184 z"
         id="path849" />
      <path
         d="m 143.96069,17.539162 c 0.13452,0 0.20178,0.07567 0.20178,0.210185 l -0.0252,0.723036 c -0.008,0.134518 0.0673,0.210185 0.20178,0.210185 h 0.64737 c 0.13451,0 0.20177,0.07567 0.20177,0.210185 v 0.176555 c 0,0.126111 -0.0673,0.201778 -0.20177,0.201778 h -0.65578 c -0.13452,0 -0.20178,0.06726 -0.21019,0.201778 l -0.0336,1.799183 c 0,0.756666 0.15134,0.882777 0.78189,0.882777 h 0.57171 c 0.13451,0 0.20177,0.07567 0.20177,0.210185 v 0.714629 c 0,0.126111 -0.0757,0.201778 -0.20177,0.201778 h -0.57171 c -1.16863,0 -1.71511,-0.361518 -1.65626,-1.513332 l 0.1093,-2.29522 c 0.008,-0.126111 -0.0673,-0.201778 -0.20178,-0.201778 h -0.16814 c -0.11771,0 -0.17656,-0.07567 -0.17656,-0.201778 v -0.176555 c 0,-0.142926 0.0673,-0.210185 0.20178,-0.210185 h 0.15133 c 0.12611,0 0.20178,-0.06726 0.21019,-0.201778 l 0.0252,-0.739851 c 0,-0.126111 0.0757,-0.201777 0.21018,-0.201777 z"
         id="path851" />
      <path
         d="m 148.41662,18.892753 c 0,-0.142926 0.0673,-0.210185 0.20177,-0.210185 h 0.227 c 0.13452,0 0.20178,0.06726 0.20178,0.210185 v 1.891665 c 0.0504,0.865962 0.3363,1.303147 1.0173,1.303147 0.81551,0 1.26951,-0.554888 1.31996,-1.45448 l 0.0757,-1.748739 c 0.008,-0.134519 0.0757,-0.193371 0.21019,-0.201778 l 0.40355,-0.0084 c 0.12612,-0.0084 0.20178,0.06726 0.20178,0.201777 l -0.0757,4.186886 c -0.008,0.134518 -0.0757,0.201777 -0.21019,0.210185 l -0.31107,0.0084 c -0.13452,0 -0.20178,-0.07567 -0.19337,-0.210185 v -0.109296 c 0.008,-0.184963 -0.0841,-0.218593 -0.2186,-0.07567 -0.32788,0.344704 -0.73144,0.512852 -1.23588,0.512852 -1.05934,0 -1.61422,-0.664185 -1.61422,-1.933702 z"
         id="path853" />
      <path
         d="m 157.89176,19.229049 c 0,0.151333 -0.0757,0.184963 -0.227,0.159741 -0.10089,-0.01682 -0.20178,-0.01682 -0.3447,-0.01682 -0.84915,0 -1.20226,0.622147 -1.20226,1.614221 l 0.15133,2.085035 c 0.008,0.134518 -0.0588,0.210185 -0.20178,0.210185 h -0.73985 c -0.14292,0 -0.21018,-0.08407 -0.18496,-0.227 0.29426,-1.664665 0.3363,-2.387702 0.28585,-4.119626 0,-0.134518 0.0673,-0.210185 0.20178,-0.210185 h 0.28585 c 0.13452,0 0.20178,0.05885 0.20178,0.168148 0,0.168148 0.10929,0.218592 0.24381,0.126111 0.26063,-0.159741 0.681,-0.361518 1.18545,-0.361518 0.0589,0 0.10088,0 0.16814,0.0084 0.1093,0.01682 0.16815,0.09248 0.16815,0.218593 z"
         id="path855" />
      <path
         d="m 164.77742,20.675122 c 0,0.134518 -0.0757,0.210185 -0.20177,0.210185 h -3.01826 c -0.13452,0 -0.21019,0.07567 -0.20178,0.210185 0.0841,1.042518 0.64737,1.134999 1.58059,1.185443 0.49604,0 0.96685,0 1.42926,-0.134518 0.14293,-0.04204 0.23541,0 0.23541,0.151333 l 0.008,0.61374 c 0.008,0.117704 -0.042,0.201778 -0.15134,0.235408 -0.49603,0.151333 -1.01729,0.252222 -1.54696,0.252222 -1.46289,-0.05044 -2.35407,-0.823926 -2.35407,-2.278406 0.0589,-1.513332 0.87437,-2.547442 2.26159,-2.547442 1.22748,0.05044 1.85803,0.706221 1.95892,2.026183 z m -0.89118,-0.411963 c 0.14292,0 0.227,-0.09248 0.17655,-0.227 -0.16814,-0.453999 -0.60533,-1.067739 -1.24429,-1.067739 -0.73144,0 -1.2443,0.596925 -1.362,1.084554 -0.0336,0.134519 0.0504,0.218593 0.19337,0.218593 z"
         id="path857" />
      <path
         d="m 181.12983,18.573272 c 1.31155,0 2.11025,0.899592 2.11025,2.412924 0,1.504924 -0.7987,2.412924 -2.11025,2.412924 -1.31996,0 -2.11026,-0.908 -2.11026,-2.412924 0,-1.513332 0.7903,-2.412924 2.11026,-2.412924 z m 0,0.554888 c -0.80711,0 -1.31156,0.655777 -1.31156,1.723517 0,1.076148 0.49604,1.244296 1.31156,1.244296 0.80711,0 1.31155,-0.176556 1.31155,-1.244296 0,-1.050925 -0.50444,-1.723517 -1.31155,-1.723517 z"
         id="path859" />
      <path
         d="m 187.70441,19.346753 c 0.14293,-0.403556 0.48763,-0.773481 0.97526,-0.773481 0.79029,0 1.17703,0.697814 1.17703,1.933702 l -0.008,2.564257 c 0,0.134518 -0.0673,0.210185 -0.20178,0.210185 h -0.54648 c -0.14293,0 -0.12611,-0.07567 -0.1177,-0.210185 l 0.26903,-2.665146 c 0,-0.882777 -0.18496,-1.303147 -0.66418,-1.303147 -0.41197,0 -0.72304,0.966851 -0.72304,1.580591 l -0.008,2.396109 c 0,0.134519 -0.0757,0.201778 -0.21018,0.201778 h -0.61374 c -0.13452,0 -0.20178,-0.07567 -0.18496,-0.218592 l 0.33629,-2.698776 c 0.15974,-0.87437 -0.18496,-1.244295 -0.52126,-1.244295 -0.54648,0 -0.96685,0.672592 -0.93322,1.563776 l 0.0673,2.387702 c 0.008,0.134518 -0.0589,0.210185 -0.19337,0.210185 H 184.914 c -0.13451,0 -0.21018,-0.07567 -0.19337,-0.210185 l 0.34471,-4.186885 c 0.008,-0.134519 0.0757,-0.201778 0.20177,-0.201778 h 0.24382 c 0.13452,0 0.21018,0.07567 0.19337,0.218592 l -0.0168,0.100889 c -0.0168,0.19337 0.10089,0.176556 0.20178,0.0084 0.1093,-0.176556 0.24382,-0.437185 0.76508,-0.437185 0.39514,0 0.53807,0.260629 0.81551,0.756666 0.0673,0.134518 0.18497,0.15974 0.23541,0.01682 z"
         id="path861" />
      <path
         d="m 193.85863,19.346753 c 0.14293,-0.403556 0.48763,-0.773481 0.97526,-0.773481 0.7903,0 1.17704,0.697814 1.17704,1.933702 l -0.008,2.564257 c 0,0.134518 -0.0673,0.210185 -0.20178,0.210185 h -0.54648 c -0.14293,0 -0.12611,-0.07567 -0.1177,-0.210185 l 0.26903,-2.665146 c 0,-0.882777 -0.18496,-1.303147 -0.66418,-1.303147 -0.41196,0 -0.72304,0.966851 -0.72304,1.580591 l -0.008,2.396109 c 0,0.134519 -0.0757,0.201778 -0.21018,0.201778 h -0.61374 c -0.13452,0 -0.20178,-0.07567 -0.18496,-0.218592 l 0.33629,-2.698776 c 0.15974,-0.87437 -0.18496,-1.244295 -0.52126,-1.244295 -0.54648,0 -0.96685,0.672592 -0.93322,1.563776 l 0.0673,2.387702 c 0.008,0.134518 -0.0589,0.210185 -0.19337,0.210185 h -0.68941 c -0.13451,0 -0.21018,-0.07567 -0.19337,-0.210185 l 0.34471,-4.186885 c 0.008,-0.134519 0.0757,-0.201778 0.20178,-0.201778 h 0.24381 c 0.13452,0 0.21018,0.07567 0.19337,0.218592 l -0.0168,0.100889 c -0.0168,0.19337 0.10088,0.176556 0.20177,0.0084 0.1093,-0.176556 0.24382,-0.437185 0.76508,-0.437185 0.39514,0 0.53807,0.260629 0.81551,0.756666 0.0673,0.134518 0.18497,0.15974 0.23541,0.01682 z"
         id="path863" />
      <path
         d="m 199.59248,18.573272 c 1.31156,0 2.11026,0.899592 2.11026,2.412924 0,1.504924 -0.7987,2.412924 -2.11026,2.412924 -1.31996,0 -2.11026,-0.908 -2.11026,-2.412924 0,-1.513332 0.7903,-2.412924 2.11026,-2.412924 z m 0,0.554888 c -0.80711,0 -1.31155,0.655777 -1.31155,1.723517 0,1.076148 0.49603,1.244296 1.31155,1.244296 0.80711,0 1.31156,-0.176556 1.31156,-1.244296 0,-1.050925 -0.50445,-1.723517 -1.31156,-1.723517 z"
         id="path865" />
      <path
         d="m 207.80652,23.071231 c 0.008,0.134518 -0.0589,0.210185 -0.20178,0.210185 h -0.65578 c -0.14293,0 -0.21018,-0.07567 -0.20178,-0.210185 l 0.15134,-2.581072 c 0,-0.87437 -0.26063,-1.303147 -0.93323,-1.303147 -0.92481,0 -1.36199,0.554888 -1.36199,1.45448 l 0.1177,2.429739 c 0,0.134518 -0.0673,0.210185 -0.20178,0.210185 h -0.63055 c -0.13452,0 -0.21019,-0.07567 -0.20178,-0.210185 l 0.1093,-4.228922 c 0.008,-0.126111 0.0757,-0.201778 0.21018,-0.201778 h 0.35311 c 0.13452,0 0.20178,0.07567 0.20178,0.210185 v 0.03363 c 0,0.176555 0.1093,0.226999 0.24381,0.126111 0.32789,-0.227 0.73985,-0.437185 1.2443,-0.437185 1.05092,0 1.589,0.664184 1.64785,1.933702 z"
         id="path867" />
      <path
         d="m 213.41425,19.187012 c 0,0.159741 -0.0925,0.218592 -0.2354,0.151333 -0.36152,-0.142926 -0.73985,-0.218592 -1.14341,-0.218592 -0.75666,0 -1.16863,0.277444 -1.16863,0.731444 0,0.411962 0.24382,0.605332 1.05093,0.781888 l 0.26063,0.05885 c 1.06774,0.227 1.4797,0.571703 1.4797,1.319962 0,0.857554 -0.71463,1.387221 -1.90007,1.387221 -0.4456,0 -0.91641,-0.07567 -1.43767,-0.235408 -0.1177,-0.03363 -0.17655,-0.109296 -0.17655,-0.226999 v -0.664185 c 0,-0.159741 0.10089,-0.218592 0.24381,-0.151333 0.47082,0.210185 0.93322,0.319481 1.38722,0.319481 0.62215,0 0.94163,-0.176555 1.0173,-0.479222 0.0168,-0.100889 -0.008,-0.168148 -0.0589,-0.260629 -0.0589,-0.100889 -0.11771,-0.176556 -0.16815,-0.235407 -0.0589,-0.07567 -0.32789,-0.159741 -0.79871,-0.269037 l -0.26062,-0.05885 c -0.93323,-0.19337 -1.32837,-0.496037 -1.32837,-1.210666 0,-0.865962 0.63896,-1.353591 1.76555,-1.353591 0.48763,0 0.92481,0.05885 1.30315,0.184963 0.1177,0.04204 0.16814,0.117703 0.16814,0.235407 z"
         id="path869" />
      <path
         d="m 231.7424,19.229049 c 0,0.151333 -0.0757,0.184963 -0.227,0.159741 -0.10089,-0.01682 -0.20178,-0.01682 -0.34471,-0.01682 -0.84914,0 -1.20225,0.622147 -1.20225,1.614221 l 0.15133,2.085035 c 0.008,0.134518 -0.0588,0.210185 -0.20178,0.210185 h -0.73985 c -0.14292,0 -0.21018,-0.08407 -0.18496,-0.227 0.29426,-1.664665 0.33629,-2.387702 0.28585,-4.119626 0,-0.134518 0.0673,-0.210185 0.20178,-0.210185 h 0.28585 c 0.13452,0 0.20178,0.05885 0.20178,0.168148 0,0.168148 0.10929,0.218592 0.24381,0.126111 0.26063,-0.159741 0.681,-0.361518 1.18544,-0.361518 0.0589,0 0.10089,0 0.16815,0.0084 0.1093,0.01682 0.16815,0.09248 0.16815,0.218593 z"
         id="path871" />
      <path
         d="m 236.47577,18.573272 c -0.43719,0 -0.908,0.08407 -1.39563,0.260629 -0.1093,0.04204 -0.16815,0.117704 -0.16815,0.235407 v 0.176556 c 0,0.151333 0.10089,0.210185 0.24382,0.142926 0.38674,-0.168148 0.80711,-0.26063 1.24429,-0.26063 0.88278,0.05885 1.30315,0.479222 1.30315,1.177036 0,0.05044 -0.0673,0.07567 -0.20178,0.07567 h -0.85755 c -1.37041,0 -2.06822,0.529666 -2.06822,1.563776 0,0.882777 0.60533,1.454481 1.53855,1.454481 0.59693,0 1.03411,-0.168148 1.362,-0.496037 0.13452,-0.134518 0.227,-0.100889 0.227,0.08407 v 0.09248 c 0,0.134519 0.0757,0.201778 0.21018,0.201778 h 0.34471 c 0.13452,0 0.20177,-0.07567 0.20177,-0.201778 v -2.421331 c 0,-1.404036 -0.64737,-2.085035 -1.98414,-2.085035 z m -0.24382,3.674034 c -0.49603,0 -0.86596,-0.03363 -0.99207,-0.386741 -0.0336,-0.09248 -0.0336,-0.15974 -0.0252,-0.243814 0.042,-0.479222 0.36152,-0.681 1.38722,-0.681 h 0.47922 c 0.12611,0 0.20178,0.06726 0.20178,0.193371 -0.008,0.958443 -0.30267,1.118184 -1.05093,1.118184 z"
         id="path873" />
      <path
         d="m 241.45295,24.828378 c 0,0.134518 -0.0757,0.201777 -0.21018,0.201777 h -0.53808 c -0.13451,0 -0.21018,-0.07567 -0.19337,-0.218592 l 0.3363,-2.597887 v -3.253664 c 0,-0.134518 0.0757,-0.210185 0.21018,-0.210185 h 0.31949 c 0.14292,0 0.21859,0.08407 0.18496,0.227 v 0.02522 c -0.042,0.184963 0.0168,0.210185 0.15133,0.06726 0.30267,-0.336296 0.70622,-0.496036 1.23589,-0.496036 1.11818,0 1.89166,0.966851 1.89166,2.412924 0,1.446073 -0.77348,2.412924 -1.89166,2.412924 -0.52967,0 -0.94163,-0.159741 -1.2527,-0.504444 -0.12611,-0.142926 -0.2186,-0.117704 -0.2186,0.06726 z m 2.90056,-3.976701 c 0,-1.109777 -0.48763,-1.773961 -1.28634,-1.773961 -0.7987,0 -1.28633,0.664184 -1.28633,1.773961 0,1.118185 0.52967,1.303147 1.32837,1.303147 0.7987,0 1.2443,-0.184962 1.2443,-1.303147 z"
         id="path875" />
      <path
         d="m 250.91128,23.071231 c 0.008,0.134518 -0.0673,0.210185 -0.20178,0.210185 h -0.53807 c -0.13452,0 -0.21018,-0.07567 -0.20178,-0.210185 l 0.11771,-2.539035 c 0.042,-1.050925 -0.34471,-1.387221 -1.0173,-1.387221 -0.82392,0 -1.31996,0.638962 -1.31996,1.538554 l 0.0757,2.387702 c 0,0.134518 -0.0673,0.210185 -0.20178,0.210185 h -0.67259 c -0.13452,0 -0.21019,-0.07567 -0.20178,-0.210185 l 0.31948,-6.818402 c 0.008,-0.134518 0.0757,-0.201777 0.21018,-0.201777 h 0.34471 c 0.13452,0 0.21018,0.07567 0.20178,0.210185 l -0.0673,2.757627 c 0,0.184963 0.0925,0.218592 0.227,0.07567 0.32788,-0.353111 0.73985,-0.521259 1.2527,-0.521259 1.05092,0 1.5974,0.664184 1.5974,1.933702 z"
         id="path877" />
    </g>
  </g>
</svg>
